<svg width="52" height="52" viewBox="0 0 52 52" fill="none" xmlns="http://www.w3.org/2000/svg">
<rect width="52" height="52" rx="12" fill="#4C3220"/>
<path d="M26.0008 9C23.5566 9 23.2499 9.01071 22.2899 9.05438C21.3317 9.09824 20.6777 9.24995 20.1055 9.47252C19.5136 9.70232 19.0114 10.0099 18.5111 10.5103C18.0105 11.0106 17.703 11.5126 17.4724 12.1045C17.2492 12.6769 17.0973 13.331 17.0543 14.2888C17.0113 15.2488 17 15.5557 17 18C17 20.4443 17.011 20.7501 17.0544 21.71C17.0984 22.6681 17.2502 23.3222 17.4725 23.8944C17.7026 24.4863 18.0101 24.9885 18.5106 25.4887C19.0106 25.9893 19.5127 26.2976 20.1043 26.5275C20.677 26.7501 21.3312 26.9018 22.289 26.9456C23.2491 26.9893 23.5557 27 25.9998 27C28.4442 27 28.75 26.9893 29.71 26.9456C30.6682 26.9017 31.323 26.7501 31.8956 26.5275C32.4874 26.2977 32.9887 25.9893 33.4888 25.4887C33.9894 24.9885 34.2969 24.4863 34.5276 23.8946C34.7488 23.3222 34.9006 22.668 34.9457 21.7102C34.9888 20.7502 35 20.4443 35 18C35 15.5557 34.9888 15.249 34.9457 14.289C34.9006 13.3309 34.7488 12.6769 34.5276 12.1046C34.2969 11.5126 33.9894 11.0106 33.4888 10.5103C32.9882 10.0097 32.4875 9.70214 31.8951 9.47252C31.3212 9.24995 30.6668 9.09824 29.7088 9.05438C28.7488 9.01071 28.4431 9 25.9981 9H26.0008ZM25.1935 10.6219C25.4331 10.6214 25.7005 10.6219 26.0009 10.6219C28.404 10.6219 28.6888 10.6305 29.6377 10.6736C30.5151 10.7137 30.9914 10.8604 31.3087 10.9836C31.7286 11.1467 32.0282 11.3417 32.343 11.6567C32.658 11.9716 32.8529 12.2716 33.0164 12.6917C33.1397 13.0085 33.2864 13.4848 33.3264 14.3623C33.3695 15.311 33.3789 15.596 33.3789 17.998C33.3789 20.3998 33.3695 20.6848 33.3264 21.6336C33.2862 22.511 33.1397 22.9873 33.0164 23.3042C32.8533 23.7241 32.658 24.0233 32.343 24.338C32.028 24.653 31.7289 24.848 31.3087 25.0111C30.9918 25.1349 30.5151 25.2812 29.6377 25.3213C28.6889 25.3644 28.404 25.3738 26.0009 25.3738C23.5977 25.3738 23.3129 25.3645 22.3641 25.3213C21.4866 25.2808 21.0103 25.1342 20.6929 25.011C20.2729 24.8479 19.9729 24.6529 19.6579 24.3378C19.3428 24.0229 19.1479 23.7236 18.9844 23.3034C18.8612 22.9866 18.7144 22.5103 18.6744 21.6328C18.6313 20.684 18.6226 20.399 18.6226 17.9957C18.6226 15.5924 18.6313 15.3088 18.6744 14.36C18.7146 13.4826 18.8612 13.0063 18.9844 12.689C19.1475 12.2691 19.3428 11.9691 19.6579 11.654C19.9729 11.3391 20.2729 11.144 20.6929 10.9805C21.0101 10.8568 21.4866 10.7105 22.3641 10.6702C23.1943 10.6327 23.5161 10.6214 25.1935 10.6196V10.6219ZM30.8051 12.1163C30.2088 12.1163 29.725 12.5994 29.725 13.1959C29.725 13.7921 30.2088 14.2759 30.8051 14.2759C31.4013 14.2759 31.8851 13.7921 31.8851 13.1959C31.8851 12.5996 31.4013 12.1163 30.8051 12.1163ZM26.0008 13.3781C23.4483 13.3781 21.3788 15.4475 21.3788 18C21.3788 20.5524 23.4483 22.6209 26.0008 22.6209C28.5533 22.6209 30.6219 20.5524 30.6219 18C30.6219 15.4475 28.5533 13.3781 26.0008 13.3781ZM26.0008 15C27.6576 15 29.0008 16.3431 29.0008 18C29.0008 19.6567 27.6576 21 26.0008 21C24.3439 21 23.0007 19.6567 23.0007 18C23.0007 16.343 24.3438 15 26.0008 15Z" fill="white"/>
<path d="M9.85128 36.068C9.89928 36.044 10.0153 36.024 10.1993 36.008C10.3193 36 10.4633 36 10.6313 36.008C10.7993 36.008 10.9713 36.008 11.1473 36.008C11.2353 36.016 11.3793 36.02 11.5793 36.02C12.4913 36.028 13.2913 36.048 13.9793 36.08C14.3313 36.088 14.5633 36.1 14.6753 36.116C14.7713 36.124 14.8513 36.156 14.9153 36.212C15.0353 36.292 15.1153 36.396 15.1553 36.524C15.1713 36.564 15.1793 36.648 15.1793 36.776C15.1793 36.928 15.1713 37.052 15.1553 37.148L15.0593 37.952L15.0113 38.264L14.9753 38.528C14.9193 38.864 14.8473 39.104 14.7593 39.248C14.6793 39.392 14.5593 39.464 14.3993 39.464C14.2873 39.464 14.1913 39.412 14.1113 39.308C14.0313 39.22 13.9913 39.088 13.9913 38.912C13.9913 38.752 14.0113 38.64 14.0513 38.576C14.0913 38.464 14.1353 38.188 14.1833 37.748C14.1993 37.596 14.2073 37.42 14.2073 37.22C14.2073 37.092 14.1993 37.024 14.1833 37.016C14.1593 36.984 13.9033 36.956 13.4153 36.932L12.1313 36.86C11.5473 36.828 11.0073 36.8 10.5113 36.776C10.1833 36.76 9.97928 36.74 9.89928 36.716C9.79528 36.684 9.71928 36.616 9.67128 36.512C9.66328 36.488 9.65928 36.452 9.65928 36.404C9.65928 36.348 9.66728 36.304 9.68328 36.272C9.71528 36.192 9.77128 36.124 9.85128 36.068ZM8.66328 40.292C8.66328 40.116 8.73528 39.988 8.87928 39.908C8.95128 39.876 9.38328 39.856 10.1753 39.848C10.9833 39.832 11.3953 39.812 11.4113 39.788C11.4273 39.78 11.4433 39.548 11.4593 39.092C11.4753 38.724 11.4913 38.496 11.5073 38.408C11.5313 38.304 11.5913 38.216 11.6873 38.144C11.7273 38.12 11.7833 38.108 11.8553 38.108C12.0073 38.108 12.1193 38.144 12.1913 38.216C12.2393 38.28 12.2673 38.344 12.2753 38.408C12.2913 38.496 12.3033 38.696 12.3113 39.008C12.3193 39.472 12.3393 39.724 12.3713 39.764C12.3873 39.804 12.9993 39.824 14.2073 39.824C15.3833 39.824 16.0193 39.832 16.1153 39.848C16.1793 39.864 16.2433 39.92 16.3073 40.016C16.3633 40.12 16.3913 40.212 16.3913 40.292C16.3913 40.364 16.3593 40.452 16.2953 40.556L16.1873 40.688L12.5993 40.676L11.0273 40.664C10.1313 40.664 9.61128 40.66 9.46728 40.652C9.13128 40.636 8.92328 40.612 8.84328 40.58C8.74728 40.524 8.69528 40.484 8.68728 40.46C8.67128 40.428 8.66328 40.372 8.66328 40.292ZM9.73128 43.124C9.73128 42.724 9.85528 42.36 10.1033 42.032C10.2793 41.776 10.4553 41.584 10.6313 41.456C10.8073 41.344 11.0433 41.252 11.3393 41.18C11.6353 41.1 12.0073 41.06 12.4553 41.06C13.0233 41.06 13.4913 41.132 13.8593 41.276C14.4833 41.516 14.9073 41.868 15.1313 42.332C15.1953 42.476 15.2273 42.684 15.2273 42.956C15.2193 43.236 15.1833 43.456 15.1193 43.616C15.0153 43.84 14.8313 44.052 14.5673 44.252C14.3113 44.436 14.0113 44.584 13.6673 44.696C13.4993 44.76 13.0473 44.792 12.3113 44.792C11.9113 44.792 11.6193 44.772 11.4353 44.732C10.9793 44.62 10.6553 44.504 10.4633 44.384C10.2793 44.272 10.1593 44.184 10.1033 44.12C10.0393 44.04 9.96328 43.916 9.87528 43.748C9.77928 43.532 9.73128 43.324 9.73128 43.124ZM10.6673 43.088C10.6673 43.2 10.6753 43.288 10.6913 43.352C10.7073 43.416 10.7393 43.472 10.7873 43.52C10.8673 43.608 10.9833 43.684 11.1353 43.748C11.3993 43.828 11.7793 43.888 12.2753 43.928C12.5153 43.944 12.6833 43.952 12.7793 43.952C13.0033 43.952 13.2033 43.932 13.3793 43.892C13.6273 43.836 13.8353 43.724 14.0033 43.556C14.1473 43.396 14.2193 43.2 14.2193 42.968C14.2193 42.824 14.1993 42.704 14.1593 42.608C14.1193 42.52 14.0473 42.428 13.9433 42.332C13.8073 42.196 13.6113 42.08 13.3553 41.984C13.2113 41.928 12.9673 41.896 12.6233 41.888L12.2273 41.876C12.0993 41.876 11.9633 41.884 11.8193 41.9C11.6833 41.924 11.5393 41.976 11.3873 42.056C11.1953 42.152 11.0673 42.232 11.0033 42.296C10.7793 42.52 10.6673 42.784 10.6673 43.088ZM20.4033 36.344C20.5953 36.28 20.8313 36.248 21.1113 36.248C21.5753 36.248 21.9913 36.344 22.3593 36.536C22.7593 36.744 23.0713 37.096 23.2953 37.592C23.4713 37.952 23.5593 38.312 23.5593 38.672C23.5593 38.8 23.5473 38.924 23.5233 39.044C23.4673 39.38 23.4273 39.588 23.4033 39.668C23.3553 39.82 23.2953 39.94 23.2233 40.028C22.9593 40.484 22.5273 40.832 21.9273 41.072C21.7353 41.144 21.4433 41.18 21.0513 41.18C20.6593 41.18 20.3673 41.144 20.1753 41.072C19.2393 40.688 18.6753 40.176 18.4833 39.536C18.4353 39.328 18.4113 39.128 18.4113 38.936C18.4113 38.776 18.4313 38.604 18.4713 38.42C18.5593 38.068 18.6913 37.744 18.8673 37.448C19.0673 37.136 19.2793 36.908 19.5033 36.764C19.5513 36.732 19.6233 36.688 19.7193 36.632C19.8153 36.568 19.8913 36.524 19.9473 36.5C20.0433 36.46 20.1953 36.408 20.4033 36.344ZM17.0073 42.152C17.0473 42.016 17.1673 41.932 17.3673 41.9C17.6073 41.868 18.2113 41.848 19.1793 41.84C20.3953 41.824 21.7793 41.816 23.3313 41.816C24.3153 41.816 24.8353 41.824 24.8913 41.84C25.0033 41.872 25.0793 41.924 25.1193 41.996C25.1673 42.068 25.1913 42.168 25.1913 42.296V42.308C25.1913 42.38 25.1713 42.44 25.1313 42.488C25.0993 42.536 25.0593 42.568 25.0113 42.584C24.9473 42.6 24.6233 42.608 24.0393 42.608H23.9913H23.5113C23.4393 42.608 23.3673 42.608 23.2953 42.608C23.2233 42.6 23.1593 42.6 23.1033 42.608C22.9993 42.616 22.9273 42.64 22.8873 42.68C22.8633 42.712 22.8433 42.8 22.8273 42.944C22.8113 43.08 22.8033 43.24 22.8033 43.424V43.448C22.8033 44.184 22.7833 44.6 22.7433 44.696C22.7193 44.752 22.6753 44.804 22.6113 44.852C22.5473 44.908 22.4713 44.936 22.3833 44.936H22.3593C22.2553 44.936 22.1793 44.928 22.1313 44.912C22.0913 44.896 22.0513 44.864 22.0113 44.816C21.9713 44.76 21.9433 44.684 21.9273 44.588C21.9193 44.516 21.9153 44.096 21.9153 43.328C21.9153 43.064 21.9113 42.896 21.9033 42.824C21.8873 42.72 21.8673 42.664 21.8433 42.656C21.7873 42.632 21.4713 42.62 20.8953 42.62C20.3193 42.62 20.0033 42.64 19.9473 42.68C19.9233 42.704 19.9033 42.772 19.8873 42.884C19.8793 42.956 19.8753 43.124 19.8753 43.388C19.8753 44.124 19.8593 44.556 19.8273 44.684C19.8113 44.756 19.7673 44.816 19.6953 44.864C19.6313 44.912 19.5513 44.94 19.4553 44.948C19.3273 44.948 19.2513 44.944 19.2273 44.936C19.1793 44.928 19.1233 44.88 19.0593 44.792C18.9953 44.712 18.9673 44.612 18.9753 44.492L19.0113 43.352L19.0233 42.992C19.0233 42.784 19.0113 42.668 18.9873 42.644C18.9553 42.612 18.7433 42.596 18.3513 42.596C18.0153 42.596 17.7353 42.596 17.5113 42.596C17.2873 42.588 17.1593 42.576 17.1273 42.56C17.0393 42.512 16.9953 42.424 16.9953 42.296C16.9953 42.232 16.9993 42.184 17.0073 42.152ZM19.3353 38.972C19.3353 39.204 19.3513 39.356 19.3833 39.428C19.3993 39.508 19.4713 39.616 19.5993 39.752C19.9433 40.12 20.4313 40.304 21.0633 40.304C21.5353 40.304 21.9073 40.18 22.1793 39.932C22.4673 39.668 22.6113 39.252 22.6113 38.684C22.6113 38.324 22.5473 38.032 22.4193 37.808C22.2753 37.592 22.0553 37.408 21.7593 37.256C21.5353 37.144 21.2753 37.088 20.9793 37.088C20.7633 37.088 20.5873 37.116 20.4513 37.172C20.1153 37.292 19.8473 37.516 19.6473 37.844C19.4393 38.172 19.3353 38.548 19.3353 38.972ZM32.6838 36.416C32.7798 36.384 32.8518 36.368 32.8998 36.368C32.9238 36.368 32.9678 36.376 33.0318 36.392C33.1278 36.424 33.1958 36.492 33.2358 36.596C33.2678 36.684 33.2838 37.276 33.2838 38.372C33.2838 39.444 33.3038 40 33.3438 40.04C33.3838 40.08 33.5878 40.1 33.9558 40.1C34.2998 40.1 34.5198 40.12 34.6158 40.16C34.6878 40.192 34.7318 40.296 34.7478 40.472V40.544C34.7478 40.68 34.7198 40.776 34.6638 40.832C34.6318 40.872 34.5758 40.9 34.4958 40.916C34.4238 40.924 34.2598 40.936 34.0038 40.952C33.6038 40.976 33.3878 41.004 33.3558 41.036C33.3078 41.068 33.2838 41.32 33.2838 41.792C33.2838 42.384 33.2678 42.908 33.2358 43.364C33.1958 43.892 33.1598 44.196 33.1278 44.276L33.0558 44.42L32.7318 44.408C32.5638 44.392 32.4758 44.384 32.4678 44.384C32.4358 44.376 32.3998 44.336 32.3598 44.264C32.3198 44.168 32.2998 43.872 32.2998 43.376L32.3358 39.788C32.3758 37.844 32.4078 36.832 32.4318 36.752C32.4878 36.576 32.5718 36.464 32.6838 36.416ZM25.7718 38.24C25.8358 38.152 25.9198 38.092 26.0238 38.06C26.1118 38.028 26.8958 38.012 28.3758 38.012H29.4798C30.2238 38.012 30.5998 38.008 30.6078 38C30.6238 37.984 30.6678 37.976 30.7398 37.976C30.8198 37.976 30.8878 37.98 30.9438 37.988C31.1198 38.012 31.2358 38.044 31.2918 38.084C31.3798 38.164 31.4318 38.264 31.4478 38.384C31.4478 38.544 31.3518 38.664 31.1598 38.744C30.9998 38.808 30.1198 38.848 28.5198 38.864H27.7998C26.6478 38.864 26.0198 38.836 25.9158 38.78C25.7638 38.7 25.6878 38.6 25.6878 38.48C25.6878 38.4 25.7158 38.32 25.7718 38.24ZM26.2398 41.72C26.2158 41.56 26.2518 41.332 26.3478 41.036C26.4278 40.756 26.5358 40.524 26.6718 40.34C27.0158 39.876 27.4358 39.572 27.9318 39.428C28.0918 39.388 28.3318 39.36 28.6518 39.344C28.9638 39.344 29.2078 39.372 29.3838 39.428C29.6718 39.508 29.9438 39.652 30.1998 39.86C30.4398 40.052 30.6278 40.292 30.7638 40.58C30.8438 40.74 30.8878 40.852 30.8958 40.916C30.9038 40.972 30.9078 41.144 30.9078 41.432C30.9078 41.728 30.8878 41.968 30.8478 42.152C30.8158 42.304 30.7358 42.488 30.6078 42.704C30.4718 42.912 30.3278 43.076 30.1758 43.196C30.0398 43.308 29.8038 43.436 29.4678 43.58C29.3638 43.62 29.1638 43.64 28.8678 43.64C28.3318 43.64 27.9758 43.612 27.7998 43.556C27.5358 43.468 27.2958 43.348 27.0798 43.196C26.8398 43.036 26.6718 42.872 26.5758 42.704C26.5358 42.64 26.4718 42.484 26.3838 42.236C26.2958 42.004 26.2478 41.832 26.2398 41.72ZM26.8398 36.728C26.8958 36.624 26.9958 36.548 27.1398 36.5C27.2758 36.444 27.7718 36.416 28.6278 36.416H29.8998L30.0198 36.524C30.0838 36.588 30.1158 36.66 30.1158 36.74C30.1158 36.812 30.0958 36.88 30.0558 36.944C29.9838 37.072 29.8638 37.148 29.6958 37.172C29.5678 37.196 29.1358 37.216 28.3998 37.232C27.7598 37.232 27.3958 37.228 27.3078 37.22C27.1558 37.204 27.0518 37.18 26.9958 37.148C26.8678 37.076 26.8038 36.988 26.8038 36.884C26.8038 36.828 26.8158 36.776 26.8398 36.728ZM27.1518 41.576C27.1678 41.864 27.2198 42.084 27.3078 42.236C27.3878 42.388 27.5638 42.532 27.8358 42.668C27.9238 42.716 28.0198 42.748 28.1238 42.764C28.2198 42.78 28.3718 42.788 28.5798 42.788C28.8518 42.788 29.0598 42.768 29.2038 42.728C29.3078 42.696 29.4438 42.596 29.6118 42.428C29.8438 42.188 29.9598 41.884 29.9598 41.516C29.9598 41.228 29.8958 40.98 29.7678 40.772C29.6078 40.54 29.3798 40.376 29.0838 40.28C28.8918 40.216 28.6918 40.184 28.4838 40.184C28.2598 40.192 28.0838 40.232 27.9558 40.304C27.6438 40.464 27.4118 40.692 27.2598 40.988C27.1878 41.14 27.1518 41.336 27.1518 41.576ZM41.6497 36.476C41.7537 36.372 41.8617 36.32 41.9737 36.32C42.0857 36.328 42.1697 36.352 42.2257 36.392C42.2897 36.44 42.3377 36.528 42.3697 36.656C42.4177 36.808 42.4417 38.068 42.4417 40.436C42.4417 42.804 42.4177 44.044 42.3697 44.156C42.3137 44.284 42.2337 44.372 42.1297 44.42C42.0817 44.444 42.0217 44.456 41.9497 44.456C41.8937 44.456 41.8297 44.444 41.7577 44.42L41.7097 44.396C41.5977 44.356 41.5377 44.204 41.5297 43.94C41.5137 43.588 41.5057 42.656 41.5057 41.144V36.62L41.6497 36.476ZM35.1097 37.736C35.1097 37.64 35.1337 37.56 35.1817 37.496C35.2377 37.424 35.3097 37.376 35.3977 37.352C35.4777 37.336 36.1257 37.328 37.3417 37.328C38.5817 37.336 39.2537 37.348 39.3577 37.364C39.4457 37.372 39.5257 37.416 39.5977 37.496C39.6377 37.544 39.6617 37.592 39.6697 37.64C39.6777 37.656 39.6817 37.692 39.6817 37.748C39.6817 38.06 39.6097 38.376 39.4657 38.696C39.3857 38.88 39.2097 39.24 38.9377 39.776C38.7137 40.208 38.5257 40.548 38.3737 40.796C38.3417 40.844 38.2217 41.008 38.0137 41.288L37.7497 41.636C37.4857 41.996 37.2857 42.256 37.1497 42.416L36.8257 42.764C36.5457 43.076 36.3257 43.24 36.1657 43.256L36.0337 43.268C35.7697 43.268 35.6137 43.168 35.5657 42.968L35.5537 42.896C35.5537 42.832 35.5817 42.752 35.6377 42.656C35.7177 42.536 35.8857 42.348 36.1417 42.092C36.4937 41.724 36.7177 41.484 36.8137 41.372C36.9177 41.236 36.9937 41.144 37.0417 41.096C37.0737 41.072 37.2937 40.764 37.7017 40.172C37.8217 39.988 37.9577 39.736 38.1097 39.416C38.2857 39.056 38.4177 38.748 38.5057 38.492V38.48C38.5697 38.312 38.5737 38.212 38.5177 38.18C38.4617 38.156 38.2137 38.144 37.7737 38.144H37.7377C37.2657 38.144 36.7297 38.132 36.1297 38.108C35.8177 38.1 35.5857 38.084 35.4337 38.06C35.3457 38.052 35.2737 38.02 35.2177 37.964C35.1457 37.9 35.1097 37.824 35.1097 37.736Z" fill="white"/>
</svg>
