<svg width="53" height="52" viewBox="0 0 53 52" fill="none" xmlns="http://www.w3.org/2000/svg">
<rect width="53" height="52" rx="12" fill="#4C3220"/>
<path fill-rule="evenodd" clip-rule="evenodd" d="M25.238 9.25C24.4644 9.25 23.819 9.84123 23.7515 10.6119C23.6102 12.2232 23.5745 13.8416 23.6444 15.4569C23.56 15.4626 23.4757 15.4685 23.3914 15.4746L21.9019 15.5832C20.9498 15.6526 20.4176 16.7142 20.9316 17.5185C22.0278 19.2341 23.4403 20.7254 25.0937 21.9132L25.6904 22.3418C26.1743 22.6894 26.8259 22.6894 27.3097 22.3418L27.9065 21.9132C29.5599 20.7254 30.9724 19.2341 32.0685 17.5185C32.5825 16.7142 32.0503 15.6526 31.0983 15.5832L29.6088 15.4746C29.5245 15.4685 29.4401 15.4626 29.3558 15.4569C29.4257 13.8416 29.3899 12.2232 29.2487 10.6119C29.1811 9.84123 28.5358 9.25 27.7622 9.25H25.238ZM25.1816 16.1147C25.0679 14.3275 25.0891 12.5342 25.2451 10.75H27.755C27.9111 12.5342 27.9323 14.3275 27.8186 16.1147C27.8058 16.3151 27.874 16.5122 28.0077 16.662C28.1414 16.8117 28.3296 16.9016 28.5302 16.9114C28.8535 16.9274 29.1767 16.9471 29.4997 16.9707L30.5815 17.0495C29.6219 18.4628 28.4204 19.6971 27.0313 20.6949L26.5001 21.0765L25.9688 20.6949C24.5797 19.6971 23.3782 18.4628 22.4187 17.0495L23.5005 16.9707C23.8234 16.9471 24.1466 16.9274 24.47 16.9114C24.6705 16.9016 24.8587 16.8117 24.9925 16.662C25.1262 16.5122 25.1943 16.3151 25.1816 16.1147Z" fill="white"/>
<path d="M20.25 23C20.25 22.5858 19.9142 22.25 19.5 22.25C19.0858 22.25 18.75 22.5858 18.75 23V25C18.75 25.9665 19.5335 26.75 20.5 26.75H32.5C33.4665 26.75 34.25 25.9665 34.25 25V23C34.25 22.5858 33.9142 22.25 33.5 22.25C33.0858 22.25 32.75 22.5858 32.75 23V25C32.75 25.1381 32.6381 25.25 32.5 25.25H20.5C20.3619 25.25 20.25 25.1381 20.25 25V23Z" fill="white"/>
<path d="M15.7248 36.476C15.7728 36.444 15.8728 36.436 16.0248 36.452C16.1608 36.46 16.2408 36.48 16.2648 36.512C16.3368 36.608 16.3728 37.188 16.3728 38.252L16.3608 40.34C16.3608 42.268 16.3568 43.34 16.3488 43.556C16.3328 43.884 16.3048 44.088 16.2648 44.168C16.2248 44.248 16.1888 44.292 16.1568 44.3C16.1248 44.308 16.0448 44.32 15.9168 44.336H15.8448C15.7248 44.336 15.6328 44.312 15.5688 44.264C15.4888 44.208 15.4368 44.104 15.4128 43.952C15.4048 43.84 15.3928 43.252 15.3768 42.188V40.628L14.5608 40.604C13.9368 40.596 13.5208 40.56 13.3128 40.496C13.2648 40.488 13.2208 40.44 13.1808 40.352C13.1568 40.304 13.1448 40.256 13.1448 40.208C13.1448 40.008 13.2648 39.872 13.5048 39.8C13.6888 39.76 14.0928 39.732 14.7168 39.716C15.0368 39.716 15.2248 39.712 15.2808 39.704C15.3608 39.696 15.4048 39.676 15.4128 39.644C15.4368 39.596 15.4488 39.108 15.4488 38.18C15.4488 37.46 15.4528 37.052 15.4608 36.956C15.4768 36.804 15.5008 36.7 15.5328 36.644C15.6128 36.548 15.6768 36.492 15.7248 36.476ZM8.64484 42.668C8.64484 42.556 8.66884 42.46 8.71684 42.38C8.76484 42.292 8.87284 42.16 9.04084 41.984C9.28084 41.72 9.45284 41.528 9.55684 41.408L9.95284 40.94C10.0168 40.876 10.0968 40.764 10.1928 40.604C10.3528 40.364 10.4608 40.16 10.5168 39.992C10.5728 39.84 10.6248 39.556 10.6728 39.14C10.7128 38.78 10.7328 38.58 10.7328 38.54C10.7328 38.476 10.7128 38.432 10.6728 38.408C10.6088 38.368 10.3048 38.348 9.76084 38.348C9.42484 38.348 9.18484 38.34 9.04084 38.324C8.93684 38.308 8.85284 38.284 8.78884 38.252C8.69284 38.188 8.64484 38.112 8.64484 38.024C8.64484 37.872 8.70484 37.756 8.82484 37.676C8.95284 37.596 9.15284 37.552 9.42484 37.544C9.69684 37.528 10.1288 37.52 10.7208 37.52H11.5368C12.5288 37.536 13.1088 37.552 13.2768 37.568C13.4688 37.6 13.5928 37.688 13.6488 37.832C13.6808 37.944 13.6968 38.004 13.6968 38.012C13.6968 38.06 13.6488 38.136 13.5528 38.24L13.3968 38.396L12.5448 38.372C12.3688 38.364 12.1648 38.36 11.9328 38.36C11.7408 38.36 11.6368 38.368 11.6208 38.384C11.5808 38.408 11.5568 38.484 11.5488 38.612C11.5088 39.076 11.4808 39.412 11.4648 39.62L11.4288 40.076L11.6088 40.28C11.7128 40.424 12.0208 40.756 12.5328 41.276C13.2288 41.98 13.5768 42.396 13.5768 42.524C13.5768 42.58 13.5288 42.644 13.4328 42.716C13.3448 42.796 13.2608 42.836 13.1808 42.836C13.0608 42.836 12.8848 42.736 12.6528 42.536C12.4208 42.36 12.0488 42.016 11.5368 41.504C11.2568 41.224 11.0928 41.072 11.0448 41.048C11.0368 41.04 11.0208 41.036 10.9968 41.036C10.9488 41.036 10.9008 41.06 10.8528 41.108C10.7808 41.164 10.6768 41.3 10.5408 41.516C10.2048 42.004 9.95284 42.352 9.78484 42.56C9.61684 42.76 9.46484 42.892 9.32884 42.956C9.21684 43.012 9.12084 43.04 9.04084 43.04C8.95284 43.04 8.85684 43.008 8.75284 42.944C8.68084 42.896 8.64484 42.804 8.64484 42.668ZM24.0983 36.128C24.1623 36.104 24.2263 36.092 24.2903 36.092C24.3783 36.092 24.4543 36.108 24.5183 36.14C24.6143 36.18 24.6743 36.268 24.6983 36.404C24.7063 36.452 24.7103 36.568 24.7103 36.752C24.7103 36.976 24.7063 37.164 24.6983 37.316C24.6823 37.716 24.6783 37.94 24.6863 37.988C24.7023 38.092 24.7183 38.156 24.7343 38.18C24.7823 38.212 24.9863 38.236 25.3463 38.252C25.6743 38.268 25.8983 38.292 26.0183 38.324C26.1383 38.372 26.2023 38.456 26.2103 38.576C26.2263 38.656 26.2263 38.752 26.2103 38.864C26.2023 38.968 26.1743 39.036 26.1263 39.068C26.0863 39.092 25.8503 39.108 25.4183 39.116C25.0823 39.132 24.8863 39.144 24.8303 39.152C24.7663 39.168 24.7223 39.204 24.6983 39.26C24.6583 39.34 24.6383 39.632 24.6383 40.136C24.6383 40.528 24.6343 40.752 24.6263 40.808C24.6183 40.888 24.5863 40.96 24.5303 41.024C24.4743 41.096 24.3863 41.132 24.2663 41.132C24.0503 41.132 23.9143 41.092 23.8583 41.012C23.7943 40.956 23.7543 40.836 23.7383 40.652C23.7303 40.324 23.7423 39.64 23.7743 38.6C23.7983 37.552 23.8223 36.94 23.8463 36.764C23.8703 36.572 23.9023 36.42 23.9423 36.308C23.9823 36.22 24.0343 36.16 24.0983 36.128ZM17.7983 36.656C17.8303 36.552 17.9383 36.488 18.1223 36.464C18.3223 36.432 18.8503 36.412 19.7063 36.404C20.0743 36.404 20.3343 36.4 20.4863 36.392C20.7823 36.392 21.0623 36.392 21.3263 36.392C21.5983 36.384 21.8223 36.384 21.9983 36.392C22.2543 36.408 22.4263 36.448 22.5143 36.512C22.6423 36.608 22.7063 36.712 22.7063 36.824C22.7063 36.84 22.6983 36.88 22.6823 36.944C22.6263 37.064 22.5423 37.144 22.4303 37.184C22.3423 37.208 22.0623 37.228 21.5903 37.244H21.5423C21.0863 37.252 20.8223 37.276 20.7503 37.316C20.6783 37.348 20.6423 37.476 20.6423 37.7V37.736C20.6423 37.856 20.6503 37.956 20.6663 38.036C20.6823 38.108 20.7183 38.184 20.7743 38.264C20.9183 38.456 21.1943 38.74 21.6023 39.116C22.0183 39.508 22.2703 39.704 22.3583 39.704C22.3903 39.704 22.4583 39.764 22.5623 39.884C22.6663 39.996 22.7183 40.108 22.7183 40.22C22.7183 40.3 22.6823 40.384 22.6103 40.472C22.5623 40.52 22.5183 40.552 22.4783 40.568C22.4623 40.576 22.4183 40.58 22.3463 40.58C22.1863 40.58 22.0143 40.512 21.8303 40.376C21.6543 40.256 21.3703 40.032 20.9783 39.704C20.6983 39.464 20.4903 39.296 20.3543 39.2L20.1263 39.032L19.8023 39.38L19.0463 40.148C18.7663 40.428 18.5623 40.592 18.4343 40.64C18.4023 40.656 18.3583 40.664 18.3023 40.664C18.1903 40.664 18.0903 40.62 18.0023 40.532C17.9223 40.46 17.8823 40.368 17.8823 40.256C17.8823 40.144 17.9143 40.036 17.9783 39.932C18.0503 39.828 18.1543 39.72 18.2903 39.608C18.5383 39.392 18.8063 39.128 19.0943 38.816C19.4143 38.472 19.6063 38.236 19.6703 38.108C19.7103 38.028 19.7423 37.892 19.7663 37.7L19.7903 37.472C19.7903 37.408 19.7823 37.368 19.7663 37.352C19.7263 37.312 19.4183 37.28 18.8423 37.256L17.9663 37.232L17.8583 37.112C17.7943 37.04 17.7623 36.952 17.7623 36.848C17.7623 36.792 17.7743 36.728 17.7983 36.656ZM19.1303 43.292C19.1303 43.036 19.1543 42.836 19.2023 42.692C19.2983 42.436 19.4503 42.204 19.6583 41.996C19.8423 41.788 20.0383 41.632 20.2463 41.528C20.4463 41.424 20.7063 41.34 21.0263 41.276C21.2663 41.236 21.6143 41.216 22.0703 41.216C22.5263 41.216 22.8543 41.236 23.0543 41.276C24.1663 41.548 24.7223 42.104 24.7223 42.944C24.7223 43.328 24.5863 43.668 24.3143 43.964C24.0503 44.26 23.6823 44.476 23.2103 44.612C22.9623 44.668 22.6343 44.696 22.2263 44.696C21.5623 44.696 21.0703 44.656 20.7503 44.576C20.2783 44.456 19.9143 44.316 19.6583 44.156C19.5623 44.108 19.4743 44.028 19.3943 43.916C19.2983 43.796 19.2463 43.704 19.2383 43.64C19.2143 43.552 19.1903 43.504 19.1663 43.496C19.1423 43.472 19.1303 43.404 19.1303 43.292ZM20.0543 43.112C20.0543 43.32 20.1183 43.452 20.2463 43.508C20.3903 43.588 20.7063 43.668 21.1943 43.748C21.5223 43.804 21.8383 43.832 22.1423 43.832C22.4383 43.832 22.6863 43.804 22.8863 43.748C23.3183 43.636 23.5903 43.412 23.7023 43.076C23.7343 42.988 23.7423 42.9 23.7263 42.812C23.7183 42.748 23.6703 42.648 23.5823 42.512C23.4223 42.264 23.0543 42.088 22.4783 41.984C22.2623 41.944 22.0743 41.924 21.9143 41.924C21.7303 41.924 21.5103 41.952 21.2543 42.008C20.8863 42.088 20.5943 42.236 20.3783 42.452C20.2583 42.58 20.1743 42.688 20.1263 42.776C20.0783 42.872 20.0543 42.984 20.0543 43.112ZM33.5823 36.416C33.6783 36.384 33.7503 36.368 33.7983 36.368C33.8223 36.368 33.8663 36.376 33.9303 36.392C34.0263 36.424 34.0943 36.492 34.1343 36.596C34.1663 36.684 34.1823 37.276 34.1823 38.372C34.1823 39.444 34.2023 40 34.2423 40.04C34.2823 40.08 34.4863 40.1 34.8543 40.1C35.1983 40.1 35.4183 40.12 35.5143 40.16C35.5863 40.192 35.6303 40.296 35.6463 40.472V40.544C35.6463 40.68 35.6183 40.776 35.5623 40.832C35.5303 40.872 35.4743 40.9 35.3943 40.916C35.3223 40.924 35.1583 40.936 34.9023 40.952C34.5023 40.976 34.2863 41.004 34.2543 41.036C34.2063 41.068 34.1823 41.32 34.1823 41.792C34.1823 42.384 34.1663 42.908 34.1343 43.364C34.0943 43.892 34.0583 44.196 34.0263 44.276L33.9543 44.42L33.6303 44.408C33.4623 44.392 33.3743 44.384 33.3663 44.384C33.3343 44.376 33.2983 44.336 33.2583 44.264C33.2183 44.168 33.1983 43.872 33.1983 43.376L33.2343 39.788C33.2743 37.844 33.3063 36.832 33.3303 36.752C33.3863 36.576 33.4703 36.464 33.5823 36.416ZM26.6703 38.24C26.7343 38.152 26.8183 38.092 26.9223 38.06C27.0103 38.028 27.7943 38.012 29.2743 38.012H30.3783C31.1223 38.012 31.4983 38.008 31.5063 38C31.5223 37.984 31.5663 37.976 31.6383 37.976C31.7183 37.976 31.7863 37.98 31.8423 37.988C32.0183 38.012 32.1343 38.044 32.1903 38.084C32.2783 38.164 32.3303 38.264 32.3463 38.384C32.3463 38.544 32.2503 38.664 32.0583 38.744C31.8983 38.808 31.0183 38.848 29.4183 38.864H28.6983C27.5463 38.864 26.9183 38.836 26.8143 38.78C26.6623 38.7 26.5863 38.6 26.5863 38.48C26.5863 38.4 26.6143 38.32 26.6703 38.24ZM27.1383 41.72C27.1143 41.56 27.1503 41.332 27.2463 41.036C27.3263 40.756 27.4343 40.524 27.5703 40.34C27.9143 39.876 28.3343 39.572 28.8303 39.428C28.9903 39.388 29.2303 39.36 29.5503 39.344C29.8623 39.344 30.1063 39.372 30.2823 39.428C30.5703 39.508 30.8423 39.652 31.0983 39.86C31.3383 40.052 31.5263 40.292 31.6623 40.58C31.7423 40.74 31.7863 40.852 31.7943 40.916C31.8023 40.972 31.8063 41.144 31.8063 41.432C31.8063 41.728 31.7863 41.968 31.7463 42.152C31.7143 42.304 31.6343 42.488 31.5063 42.704C31.3703 42.912 31.2263 43.076 31.0743 43.196C30.9383 43.308 30.7023 43.436 30.3663 43.58C30.2623 43.62 30.0623 43.64 29.7663 43.64C29.2303 43.64 28.8743 43.612 28.6983 43.556C28.4343 43.468 28.1943 43.348 27.9783 43.196C27.7383 43.036 27.5703 42.872 27.4743 42.704C27.4343 42.64 27.3703 42.484 27.2823 42.236C27.1943 42.004 27.1463 41.832 27.1383 41.72ZM27.7383 36.728C27.7943 36.624 27.8943 36.548 28.0383 36.5C28.1743 36.444 28.6703 36.416 29.5263 36.416H30.7983L30.9183 36.524C30.9823 36.588 31.0143 36.66 31.0143 36.74C31.0143 36.812 30.9943 36.88 30.9543 36.944C30.8823 37.072 30.7623 37.148 30.5943 37.172C30.4663 37.196 30.0343 37.216 29.2983 37.232C28.6583 37.232 28.2943 37.228 28.2063 37.22C28.0543 37.204 27.9503 37.18 27.8943 37.148C27.7663 37.076 27.7023 36.988 27.7023 36.884C27.7023 36.828 27.7143 36.776 27.7383 36.728ZM28.0503 41.576C28.0663 41.864 28.1183 42.084 28.2063 42.236C28.2863 42.388 28.4623 42.532 28.7343 42.668C28.8223 42.716 28.9183 42.748 29.0223 42.764C29.1183 42.78 29.2703 42.788 29.4783 42.788C29.7503 42.788 29.9583 42.768 30.1023 42.728C30.2063 42.696 30.3423 42.596 30.5103 42.428C30.7423 42.188 30.8583 41.884 30.8583 41.516C30.8583 41.228 30.7943 40.98 30.6663 40.772C30.5063 40.54 30.2783 40.376 29.9823 40.28C29.7903 40.216 29.5903 40.184 29.3823 40.184C29.1583 40.192 28.9823 40.232 28.8543 40.304C28.5423 40.464 28.3103 40.692 28.1583 40.988C28.0863 41.14 28.0503 41.336 28.0503 41.576ZM42.5481 36.476C42.6521 36.372 42.7601 36.32 42.8721 36.32C42.9841 36.328 43.0681 36.352 43.1241 36.392C43.1881 36.44 43.2361 36.528 43.2681 36.656C43.3161 36.808 43.3401 38.068 43.3401 40.436C43.3401 42.804 43.3161 44.044 43.2681 44.156C43.2121 44.284 43.1321 44.372 43.0281 44.42C42.9801 44.444 42.9201 44.456 42.8481 44.456C42.7921 44.456 42.7281 44.444 42.6561 44.42L42.6081 44.396C42.4961 44.356 42.4361 44.204 42.4281 43.94C42.4121 43.588 42.4041 42.656 42.4041 41.144V36.62L42.5481 36.476ZM36.0081 37.736C36.0081 37.64 36.0321 37.56 36.0801 37.496C36.1361 37.424 36.2081 37.376 36.2961 37.352C36.3761 37.336 37.0241 37.328 38.2401 37.328C39.4801 37.336 40.1521 37.348 40.2561 37.364C40.3441 37.372 40.4241 37.416 40.4961 37.496C40.5361 37.544 40.5601 37.592 40.5681 37.64C40.5761 37.656 40.5801 37.692 40.5801 37.748C40.5801 38.06 40.5081 38.376 40.3641 38.696C40.2841 38.88 40.1081 39.24 39.8361 39.776C39.6121 40.208 39.4241 40.548 39.2721 40.796C39.2401 40.844 39.1201 41.008 38.9121 41.288L38.6481 41.636C38.3841 41.996 38.1841 42.256 38.0481 42.416L37.7241 42.764C37.4441 43.076 37.2241 43.24 37.0641 43.256L36.9321 43.268C36.6681 43.268 36.5121 43.168 36.4641 42.968L36.4521 42.896C36.4521 42.832 36.4801 42.752 36.5361 42.656C36.6161 42.536 36.7841 42.348 37.0401 42.092C37.3921 41.724 37.6161 41.484 37.7121 41.372C37.8161 41.236 37.8921 41.144 37.9401 41.096C37.9721 41.072 38.1921 40.764 38.6001 40.172C38.7201 39.988 38.8561 39.736 39.0081 39.416C39.1841 39.056 39.3161 38.748 39.4041 38.492V38.48C39.4681 38.312 39.4721 38.212 39.4161 38.18C39.3601 38.156 39.1121 38.144 38.6721 38.144H38.6361C38.1641 38.144 37.6281 38.132 37.0281 38.108C36.7161 38.1 36.4841 38.084 36.3321 38.06C36.2441 38.052 36.1721 38.02 36.1161 37.964C36.0441 37.9 36.0081 37.824 36.0081 37.736Z" fill="white"/>
</svg>
