<svg width="349" height="383" viewBox="0 0 349 383" fill="none" xmlns="http://www.w3.org/2000/svg">
<path d="M213.36 101.4L214.07 101.29L214.72 100.88L215.41 100.65L216.08 100.44L216.79 100.27L217.52 100.13L218.07 99.61L218.77 99.38L219.48 99.2L220.11 98.81L220.58 98.21L221.35 98.05L221.91 97.61L222.71 97.58L223.36 97.13L223.59 96.26L224.36 96.09L224.92 95.58L225.7 95.42L226.13 94.83L226.82 94.51L227.12 93.77L227.7 93.34L228.1 92.72L228.91 92.5L229.09 91.68L229.7 91.24L230.13 90.67L230.57 90.09L230.81 89.4L231.24 88.8L232.05 88.45L231.83 87.51L232.36 86.96L232.91 86.45L233.11 85.74L233.48 85.11L233.9 84.54L233.88 83.72L234.42 83.14L234.33 82.33L234.89 81.8L235.16 81.1L235.59 80.46L235.51 79.71L235.72 79.02L235.9 78.32L236.16 77.63L235.91 76.86L236.17 76.14L236.44 75.47L236.18 74.74L236.28 74L236.38 73.29L236.22 72.6L236.43 71.86L236.3 71.14L236.43 70.43L236.27 69.7L236.25 68.98L236.31 68.23L236 67.56L235.99 66.82L236.08 66.08L235.99 65.35L235.52 64.73L235.35 64.01L235.21 63.31L234.81 62.65L235.04 61.83L234.19 61.35L234.4 60.53L233.98 59.94L233.81 59.19L233.65 58.51L233.1 57.94L232.86 57.25L232.83 56.48L232.25 55.96L232.01 55.27L231.6 54.67L231.46 53.91L230.81 53.46L230.46 52.81L230.49 51.97L229.75 51.58L229.49 50.88L229.03 50.31L228.77 49.64L228.46 48.94L227.6 48.69L227.55 47.85L227.08 47.29L226.71 46.66L226.2 46.16L225.62 45.7L225.14 45.2L224.48 44.78L224.52 43.86L224.17 44.06L224.22 43.31L223.84 42.67L223.93 41.87L223.46 41.27L223.44 40.53L223.43 39.8L223.18 39.1L223.13 38.35L222.85 37.69L222.65 36.97L222.18 36.39L221.88 35.71L221.71 35.02L221.53 34.32L221.45 33.59L221.11 32.93L220.95 32.22L220.22 31.75L220.07 31.02L219.61 30.43L219.47 29.68L219.09 29.09L219.15 28.25L218.83 27.61L218.45 26.95L217.79 26.5L217.47 25.85L217.09 25.22L216.66 24.63L216.38 23.95L216.04 23.28L215.5 22.73L214.92 22.31L214.52 21.68L213.72 21.49L213.13 21.04L212.69 20.43L212.07 20L211.5 19.62L210.97 19.17L210.83 19.16L210.05 19.3L209.33 19.22L208.55 19.07L207.93 19.55L207.23 19.69L206.61 20.04L205.97 20.35L205.38 20.77L204.71 21.03L204.22 21.55L203.48 21.79L202.99 22.32L202.49 22.82L201.93 23.27L201.27 23.65L201.15 24.5L200.45 24.83L199.92 25.34L199.6 26L199.11 26.56L198.81 27.2L198.18 27.62L198.14 28.48L197.53 28.94L197.18 29.53L196.89 30.22L196.15 30.59L195.92 31.32L195.81 32.1L194.96 32.39L195.04 33.4L194.24 33.04L193.59 32.69L192.87 32.61L192.15 32.52L191.52 32.08L190.74 32.25L190.07 31.96L189.32 32.05L188.66 31.69L187.91 31.65L187.26 31.26L186.48 31.59L185.84 31.02L185.09 31.1L184.37 31.03L183.65 31L183.02 30.47L182.27 30.4L181.51 30.68L180.78 30.63L180.1 30.29L179.38 30.13L178.68 30.1L177.97 30.05L177.24 29.85L176.5 30.1L175.79 30.02L175.07 29.92H174.33L173.63 29.86L172.9 30.16L172.19 29.87L171.46 29.83L170.75 30.14L170.04 30.02L169.31 29.79L168.59 29.88L167.91 30.32L167.18 30.12L166.48 30.32L165.78 30.45L165.09 30.68L164.38 30.7L163.66 30.74L162.92 30.59L162.28 31.05L161.51 30.79L160.81 30.96L160.14 31.37L159.43 31.34L158.71 31.45L158.12 32.08L157.29 31.54L156.6 31.89L155.89 32.08L155.3 32.52L154.58 32.54L153.95 32.95L153.31 33.14L153.02 32.55L152.82 31.86L152.3 31.29L152.21 30.57L151.74 30L151.6 29.28L151.34 28.6L150.99 27.99L150.33 27.56L150.18 26.82L150.01 26.07L149.34 25.66L148.93 25.07L148.48 24.51L147.98 23.99L147.54 23.47L146.96 23.01L146.57 22.38L146.29 21.64L145.54 21.4L145.02 20.87L144.35 20.58L143.59 20.51L142.93 20.27L142.35 19.86L141.7 19.59L141.08 19.14L140.3 19.41L139.6 19.18L138.88 19L138.13 19.11L137.46 19.28L137.45 19.44L136.64 19.4L136.36 20.31L135.73 20.73L134.82 20.65L134.33 21.29L133.9 21.89L133.49 22.49L132.93 22.96L132.4 23.47L132.08 24.14L131.67 24.75L131.57 25.54L130.92 25.99L130.62 26.67L130.27 27.29L129.83 27.88L129.62 28.57L129.12 29.19L129.11 29.94L128.58 30.51L128.56 31.28L128.2 31.93L128.15 32.7L127.44 33.21L127.54 34L127.05 34.62L126.99 35.37L127.2 36.19L126.7 36.81L126.59 37.53L126.45 38.26L126.16 38.94L125.77 39.58L125.51 40.26L125.6 41.02L125.47 41.75L125.23 42.44L125.27 43.18L124.91 43.86L125.11 44.62L124.89 45.3L124.8 45.28L124.25 45.76L123.76 46.26L123.5 47L122.91 47.48L122.74 48.26L122.06 48.64L121.63 49.19L121.31 49.84L120.72 50.31L120.27 50.87L119.94 51.51L119.48 52.08L119.08 52.72L119.14 53.56L118.51 54.02L118.26 54.71L117.8 55.28L117.59 55.99L117.47 56.73L116.98 57.28L116.72 57.96L116.43 58.62L115.91 59.18L115.56 59.81L115.34 60.5L115.05 61.17L115.13 61.95L114.62 62.54L114.41 63.23L114.57 64.01L114.35 64.72L113.76 65.31L113.79 66.08L113.81 66.8L113.55 67.45L113.2 68.16L113.54 68.94L113.2 69.63L113.38 70.37L113.12 71.07L113 71.8L113.32 72.52L113.29 73.24L113.24 73.97L113.22 74.69L113.1 75.43L113.3 76.15L113.64 76.81L113.5 77.55L113.82 78.27L113.7 79.05L114.25 79.63L114.26 80.38L114.76 81.01L114.37 81.84L115.03 82.38L115.44 83.03L115.52 83.75L116.04 84.29L116.13 85.07V85.87L116.59 86.46L117.22 86.92L117.65 87.53L117.6 88.39L118.22 88.86L118.8 89.32L119.01 90.05L119.6 90.49L119.87 91.17L120.35 91.71L121.01 92.09L121.35 92.72L121.69 93.36L122.23 93.84L122.71 94.37L123.22 94.86L123.86 95.21L124.35 95.69L125.07 95.96L125.55 96.54L125.85 97.32L126.66 97.38L127.41 97.54L127.84 98.17L128.41 98.58L129.1 98.8L129.72 99.21L130.22 99.7L130.89 99.93L131.47 100.39L132.16 100.58L132.63 101.26L133.41 101.25L134.01 101.64L134.74 101.7L135.38 102.06L136.08 102.2L136.71 102.51L137.34 102.91L138.09 102.88L138.83 102.87L139.44 103.39L140.16 103.49L140.83 103.76L141.53 103.97L142.31 103.85L142.87 104.49L143.63 104.43L144.24 104.96L145.04 104.57L145.74 104.85L146.38 105.17L147.11 105.25L147.82 105.21L148.56 105.34L149.22 105.71L149.96 105.61L150.63 105.88L151.31 106.21L152.08 105.91L152.72 106.51L153.47 106.37L154.14 106.75L154.88 106.65L155.58 106.89L156.28 107.04L157.03 106.82L157.69 107.34L158.46 107.04L159.16 107.19L159.85 107.4L160.57 107.6L161.33 107.68L162.04 107.31L162.75 107.51L163.46 107.58H164.19L164.92 107.7L165.57 108.09L166.3 108.35L167.07 108.1L167.78 107.84L168.46 108.18H169.21L169.94 108.17L170.67 108.16L171.39 108.21L172.1 107.91L172.82 108.25L173.53 107.78L174.26 107.95L174.96 107.82L175.69 108.16L176.4 107.9L177.12 108L177.84 108.16L178.58 108.09L179.27 107.63L180.01 107.91L180.75 108.06L181.44 107.75L182.15 107.59L182.88 107.64L183.58 107.42L184.32 107.52L185.01 107.31L185.76 107.55L186.46 107.14L187.21 107.32L187.9 107.04L188.62 106.99L189.35 107.02L190.06 106.83L190.77 106.67L191.48 106.56L192.21 106.54L192.91 106.38L193.59 106.09L194.32 106.06L195.03 105.84L195.78 105.99L196.45 105.7L197.13 105.41L197.86 105.35L198.62 105.43L199.28 105L200.01 104.99L200.71 104.81L201.38 104.47L202.09 104.33L202.83 104.2L203.53 104.18L204.17 103.81L204.94 103.67L205.7 103.84L206.39 103.56L207.1 103.5L207.85 103.4L208.56 103.14L209.21 102.83L209.85 102.46L210.67 102.61L211.26 102.08L212.04 102.19L212.75 101.88L213.36 101.4Z" fill="#FBD0AE"/>
<path d="M213.36 101.4L214.07 101.29L214.72 100.88L215.41 100.65L216.08 100.44L216.79 100.27L217.52 100.13L218.07 99.61L218.77 99.38L219.48 99.2L220.11 98.81L220.58 98.21L221.35 98.05L221.91 97.61L222.71 97.58L223.36 97.13L223.59 96.26L224.36 96.09L224.92 95.58L225.7 95.42L226.13 94.83L226.82 94.51L227.12 93.77L227.7 93.34L228.1 92.72L228.91 92.5L229.09 91.68L229.7 91.24L230.13 90.67L230.57 90.09L230.81 89.4L231.24 88.8L232.05 88.45L231.83 87.51L232.36 86.96L232.91 86.45L233.11 85.74L233.48 85.11L233.9 84.54L233.88 83.72L234.42 83.14L234.33 82.33L234.89 81.8L235.16 81.1L235.59 80.46L235.51 79.71L235.72 79.02L235.9 78.32L236.16 77.63L235.91 76.86L236.17 76.14L236.44 75.47L236.18 74.74L236.28 74L236.38 73.29L236.22 72.6L236.43 71.86L236.3 71.14L236.43 70.43L236.27 69.7L236.25 68.98L236.31 68.23L236 67.56L235.99 66.82L236.08 66.08L235.99 65.35L235.52 64.73L235.35 64.01L235.21 63.31L234.81 62.65L235.04 61.83L234.19 61.35L234.4 60.53L233.98 59.94L233.81 59.19L233.65 58.51L233.1 57.94L232.86 57.25L232.83 56.48L232.25 55.96L232.01 55.27L231.6 54.67L231.46 53.91L230.81 53.46L230.46 52.81L230.49 51.97L229.75 51.58L229.49 50.88L229.03 50.31L228.77 49.64L228.46 48.94L227.6 48.69L227.55 47.85L227.08 47.29L226.71 46.66L226.2 46.16L225.62 45.7L225.14 45.2L224.48 44.78L224.52 43.86L224.17 44.06L224.22 43.31L223.84 42.67L223.93 41.87L223.46 41.27L223.44 40.53L223.43 39.8L223.18 39.1L223.13 38.35L222.85 37.69L222.65 36.97L222.18 36.39L221.88 35.71L221.71 35.02L221.53 34.32L221.45 33.59L221.11 32.93L220.95 32.22L220.22 31.75L220.07 31.02L219.61 30.43L219.47 29.68L219.09 29.09L219.15 28.25L218.83 27.61L218.45 26.95L217.79 26.5L217.47 25.85L217.09 25.22L216.66 24.63L216.38 23.95L216.04 23.28L215.5 22.73L214.92 22.31L214.52 21.68L213.72 21.49L213.13 21.04L212.69 20.43L212.07 20L211.5 19.62L210.97 19.17L210.83 19.16L210.05 19.3L209.33 19.22L208.55 19.07L207.93 19.55L207.23 19.69L206.61 20.04L205.97 20.35L205.38 20.77L204.71 21.03L204.22 21.55L203.48 21.79L202.99 22.32L202.49 22.82L201.93 23.27L201.27 23.65L201.15 24.5L200.45 24.83L199.92 25.34L199.6 26L199.11 26.56L198.81 27.2L198.18 27.62L198.14 28.48L197.53 28.94L197.18 29.53L196.89 30.22L196.15 30.59L195.92 31.32L195.81 32.1L194.96 32.39L195.04 33.4L194.24 33.04L193.59 32.69L192.87 32.61L192.15 32.52L191.52 32.08L190.74 32.25L190.07 31.96L189.32 32.05L188.66 31.69L187.91 31.65L187.26 31.26L186.48 31.59L185.84 31.02L185.09 31.1L184.37 31.03L183.65 31L183.02 30.47L182.27 30.4L181.51 30.68L180.78 30.63L180.1 30.29L179.38 30.13L178.68 30.1L177.97 30.05L177.24 29.85L176.5 30.1L175.79 30.02L175.07 29.92H174.33L173.63 29.86L172.9 30.16L172.19 29.87L171.46 29.83L170.75 30.14L170.04 30.02L169.31 29.79L168.59 29.88L167.91 30.32L167.18 30.12L166.48 30.32L165.78 30.45L165.09 30.68L164.38 30.7L163.66 30.74L162.92 30.59L162.28 31.05L161.51 30.79L160.81 30.96L160.14 31.37L159.43 31.34L158.71 31.45L158.12 32.08L157.29 31.54L156.6 31.89L155.89 32.08L155.3 32.52L154.58 32.54L153.95 32.95L153.31 33.14L153.02 32.55L152.82 31.86L152.3 31.29L152.21 30.57L151.74 30L151.6 29.28L151.34 28.6L150.99 27.99L150.33 27.56L150.18 26.82L150.01 26.07L149.34 25.66L148.93 25.07L148.48 24.51L147.98 23.99L147.54 23.47L146.96 23.01L146.57 22.38L146.29 21.64L145.54 21.4L145.02 20.87L144.35 20.58L143.59 20.51L142.93 20.27L142.35 19.86L141.7 19.59L141.08 19.14L140.3 19.41L139.6 19.18L138.88 19L138.13 19.11L137.46 19.28L137.45 19.44L136.64 19.4L136.36 20.31L135.73 20.73L134.82 20.65L134.33 21.29L133.9 21.89L133.49 22.49L132.93 22.96L132.4 23.47L132.08 24.14L131.67 24.75L131.57 25.54L130.92 25.99L130.62 26.67L130.27 27.29L129.83 27.88L129.62 28.57L129.12 29.19L129.11 29.94L128.58 30.51L128.56 31.28L128.2 31.93L128.15 32.7L127.44 33.21L127.54 34L127.05 34.62L126.99 35.37L127.2 36.19L126.7 36.81L126.59 37.53L126.45 38.26L126.16 38.94L125.77 39.58L125.51 40.26L125.6 41.02L125.47 41.75L125.23 42.44L125.27 43.18L124.91 43.86L125.11 44.62L124.89 45.3L124.8 45.28L124.25 45.76L123.76 46.26L123.5 47L122.91 47.48L122.74 48.26L122.06 48.64L121.63 49.19L121.31 49.84L120.72 50.31L120.27 50.87L119.94 51.51L119.48 52.08L119.08 52.72L119.14 53.56L118.51 54.02L118.26 54.71L117.8 55.28L117.59 55.99L117.47 56.73L116.98 57.28L116.72 57.96L116.43 58.62L115.91 59.18L115.56 59.81L115.34 60.5L115.05 61.17L115.13 61.95L114.62 62.54L114.41 63.23L114.57 64.01L114.35 64.72L113.76 65.31L113.79 66.08L113.81 66.8L113.55 67.45L113.2 68.16L113.54 68.94L113.2 69.63L113.38 70.37L113.12 71.07L113 71.8L113.32 72.52L113.29 73.24L113.24 73.97L113.22 74.69L113.1 75.43L113.3 76.15L113.64 76.81L113.5 77.55L113.82 78.27L113.7 79.05L114.25 79.63L114.26 80.38L114.76 81.01L114.37 81.84L115.03 82.38L115.44 83.03L115.52 83.75L116.04 84.29L116.13 85.07V85.87L116.59 86.46L117.22 86.92L117.65 87.53L117.6 88.39L118.22 88.86L118.8 89.32L119.01 90.05L119.6 90.49L119.87 91.17L120.35 91.71L121.01 92.09L121.35 92.72L121.69 93.36L122.23 93.84L122.71 94.37L123.22 94.86L123.86 95.21L124.35 95.69L125.07 95.96L125.55 96.54L125.85 97.32L126.66 97.38L127.41 97.54L127.84 98.17L128.41 98.58L129.1 98.8L129.72 99.21L130.22 99.7L130.89 99.93L131.47 100.39L132.16 100.58L132.63 101.26L133.41 101.25L134.01 101.64L134.74 101.7L135.38 102.06L136.08 102.2L136.71 102.51L137.34 102.91L138.09 102.88L138.83 102.87L139.44 103.39L140.16 103.49L140.83 103.76L141.53 103.97L142.31 103.85L142.87 104.49L143.63 104.43L144.24 104.96L145.04 104.57L145.74 104.85L146.38 105.17L147.11 105.25L147.82 105.21L148.56 105.34L149.22 105.71L149.96 105.61L150.63 105.88L151.31 106.21L152.08 105.91L152.72 106.51L153.47 106.37L154.14 106.75L154.88 106.65L155.58 106.89L156.28 107.04L157.03 106.82L157.69 107.34L158.46 107.04L159.16 107.19L159.85 107.4L160.57 107.6L161.33 107.68L162.04 107.31L162.75 107.51L163.46 107.58H164.19L164.92 107.7L165.57 108.09L166.3 108.35L167.07 108.1L167.78 107.84L168.46 108.18H169.21L169.94 108.17L170.67 108.16L171.39 108.21L172.1 107.91L172.82 108.25L173.53 107.78L174.26 107.95L174.96 107.82L175.69 108.16L176.4 107.9L177.12 108L177.84 108.16L178.58 108.09L179.27 107.63L180.01 107.91L180.75 108.06L181.44 107.75L182.15 107.59L182.88 107.64L183.58 107.42L184.32 107.52L185.01 107.31L185.76 107.55L186.46 107.14L187.21 107.32L187.9 107.04L188.62 106.99L189.35 107.02L190.06 106.83L190.77 106.67L191.48 106.56L192.21 106.54L192.91 106.38L193.59 106.09L194.32 106.06L195.03 105.84L195.78 105.99L196.45 105.7L197.13 105.41L197.86 105.35L198.62 105.43L199.28 105L200.01 104.99L200.71 104.81L201.38 104.47L202.09 104.33L202.83 104.2L203.53 104.18L204.17 103.81L204.94 103.67L205.7 103.84L206.39 103.56L207.1 103.5L207.85 103.4L208.56 103.14L209.21 102.83L209.85 102.46L210.67 102.61L211.26 102.08L212.04 102.19L212.75 101.88L213.36 101.4Z" stroke="#4C3220" stroke-width="4" stroke-linejoin="round"/>
<path d="M204.05 83.5098C209.562 83.5098 214.03 79.0416 214.03 73.5298C214.03 68.018 209.562 63.5498 204.05 63.5498C198.538 63.5498 194.07 68.018 194.07 73.5298C194.07 79.0416 198.538 83.5098 204.05 83.5098Z" fill="#FFAD76"/>
<path d="M147.25 83.5098C152.762 83.5098 157.23 79.0416 157.23 73.5298C157.23 68.018 152.762 63.5498 147.25 63.5498C141.738 63.5498 137.27 68.018 137.27 73.5298C137.27 79.0416 141.738 83.5098 147.25 83.5098Z" fill="#FFAD76"/>
<path d="M157.23 70.6699C159.185 70.6699 160.77 68.8701 160.77 66.6499C160.77 64.4297 159.185 62.6299 157.23 62.6299C155.275 62.6299 153.69 64.4297 153.69 66.6499C153.69 68.8701 155.275 70.6699 157.23 70.6699Z" fill="#231F20"/>
<path d="M194.07 70.6699C196.025 70.6699 197.61 68.8701 197.61 66.6499C197.61 64.4297 196.025 62.6299 194.07 62.6299C192.115 62.6299 190.53 64.4297 190.53 66.6499C190.53 68.8701 192.115 70.6699 194.07 70.6699Z" fill="#231F20"/>
<path d="M175.65 74.84C176.837 74.84 177.8 73.8774 177.8 72.69C177.8 71.5026 176.837 70.54 175.65 70.54C174.463 70.54 173.5 71.5026 173.5 72.69C173.5 73.8774 174.463 74.84 175.65 74.84Z" fill="#231F20"/>
<path d="M135.83 39.4799L145.62 34.2299C145.62 34.2299 142.48 26.9999 137.27 29.7099C132.06 32.4199 135.82 39.4799 135.82 39.4799H135.83Z" fill="#FFBE92"/>
<path d="M212.71 39.9901L202.92 34.7401C202.92 34.7401 206.06 27.5101 211.27 30.2201C216.48 32.9301 212.72 39.9901 212.72 39.9901H212.71Z" fill="#FFBE92"/>
<path d="M321.785 379.81L321.076 379.691L320.357 379.75L319.638 379.77L318.929 379.82L318.21 379.591L317.491 379.581L316.782 379.96L316.063 379.581L315.354 379.621L314.635 379.94L313.916 379.75L313.207 379.82L312.488 379.541L311.769 379.601L311.06 379.78L310.341 379.581L309.622 379.9L308.913 379.96L308.194 379.691L307.475 379.92H306.766L306.047 379.87L305.328 379.74L304.619 380L303.9 379.84L303.181 379.661L302.472 379.541L301.753 379.83L301.034 379.511L300.325 379.661L299.606 379.98L298.887 379.89L298.168 379.86L297.459 379.711L296.74 379.94L296.021 379.9L295.302 379.541L294.593 379.94L293.874 379.97L293.155 379.561L292.436 379.75L291.728 379.86L291.009 379.74L290.29 379.95L289.571 379.79L288.852 379.95L288.143 379.75L287.424 379.93L286.705 379.601L285.986 379.84L285.267 379.89L284.548 379.72L283.839 379.97L283.12 379.84L282.401 379.95L281.682 379.541L280.963 379.641L280.244 379.77L279.525 379.651L278.806 379.9L278.087 379.94L277.368 379.92L276.649 379.681L275.93 379.561L275.211 379.83L274.492 379.651L273.773 379.581L273.054 379.641L272.345 379.75L271.626 379.86L270.907 379.651L270.188 379.9L269.469 379.85L268.75 379.9L268.031 379.89L267.312 379.75L266.603 379.95L265.884 379.581L265.165 379.691L264.446 379.88L263.728 379.77L263.009 379.98L262.3 379.571L261.581 379.81L260.862 379.77L260.143 379.591L259.424 380L258.715 379.92L257.996 379.671L257.277 379.551L256.558 379.8L255.839 379.98L255.13 379.551L254.411 380L253.692 379.79L252.973 379.82L252.264 379.97L251.545 379.75H250.826L250.107 379.81L249.398 379.551L248.679 379.97L247.96 379.691L247.241 379.661L246.522 379.611L245.813 379.92L245.094 379.651L244.375 379.581L243.656 379.511L242.947 379.88L242.228 379.96L241.509 379.651L240.79 379.571L240.071 379.541L239.362 379.651L238.643 379.76L237.924 379.581L237.205 379.88L236.486 379.541L235.767 379.631L235.049 379.681L234.34 379.621L233.621 379.541L232.902 379.531L232.183 379.98L231.464 379.651L230.745 379.9L230.026 379.591L229.307 379.711L228.588 379.681L227.869 379.75L227.15 379.82L226.431 379.601L225.712 379.661L224.993 379.73L224.274 379.78L223.555 379.8H222.836L222.117 379.661L221.398 379.94L220.679 379.77L219.96 379.99L219.251 379.88L218.532 379.84L217.813 379.73L217.094 379.74L216.375 379.78L215.656 379.8L214.937 379.96L214.218 379.72L213.499 379.681L212.78 379.581L212.071 379.99L211.352 379.621H210.633L209.914 379.601L209.195 379.691L208.476 379.91L207.757 379.541L207.049 379.671L206.33 379.581L205.611 379.661L204.892 379.551L204.173 379.711L203.454 379.88L202.745 379.581L202.026 379.84L201.307 379.591L200.598 379.78L199.879 379.93L199.16 379.77L198.451 379.501L197.732 379.86L197.013 379.82L196.304 379.711L195.585 379.95L194.866 379.571L194.147 379.77H193.438L192.719 379.81H192L191.281 379.92L190.562 380L189.843 379.531L189.124 379.98L188.405 379.701L187.686 379.99L186.967 379.93L186.248 379.98L185.529 379.581L184.81 379.701L184.091 379.74L183.372 379.701L182.653 379.89L181.934 379.85L181.225 379.691L180.506 379.711L179.787 379.661L179.068 379.581L178.35 379.81L177.641 379.99L176.922 379.72L176.203 379.531L175.494 379.541L174.775 379.73L174.056 379.551L173.347 379.661L172.628 379.86L171.909 379.97L171.2 379.87L170.481 379.691L169.762 379.8L169.053 379.87L168.334 379.531L167.625 379.501L166.906 379.651L166.197 379.631L165.478 379.531L164.759 379.8L164.05 379.88L163.331 379.98L162.622 379.701L161.903 379.83L161.194 379.9L160.475 379.72L159.756 379.631L159.047 379.531L158.328 379.581L157.619 379.73L156.9 379.591L156.181 379.94L155.472 379.571L154.753 379.93L154.044 379.591L153.325 379.701L152.606 379.99L151.887 379.671L151.178 379.631L150.459 379.91L149.74 379.84L149.021 379.9L148.312 379.77L147.593 379.75L146.874 379.93L146.155 379.681L145.437 379.86L144.718 379.671L143.999 379.511L143.28 379.99L142.561 379.79L141.842 379.91L141.123 379.94L140.404 379.621H139.685L138.956 379.83L138.237 379.591L137.518 379.91L136.799 379.601L136.08 379.691L135.361 379.85L134.642 379.9L133.923 379.82L133.204 379.87H132.485L131.766 379.711L131.047 380L130.328 379.73L129.619 379.91L128.9 379.81L128.181 379.75L127.462 379.591L126.743 379.561L126.024 379.91L125.305 379.73L124.596 379.93L123.877 379.97L123.158 379.641L122.439 379.501L121.72 379.92L121.001 379.561L120.282 379.681L119.573 379.671L118.854 379.87L118.136 379.75L117.417 379.701L116.698 379.91L115.979 379.551L115.26 379.701L114.541 379.621L113.822 379.581L113.103 379.631L112.374 379.621L111.655 379.541L110.936 379.561L110.217 379.76L109.498 379.601L108.769 379.97L108.05 379.88L107.331 379.79L106.612 379.521L105.893 379.571L105.174 379.89L104.455 379.76L103.736 379.581L103.017 379.631L102.288 379.521L101.569 379.85L100.85 379.88L100.131 379.96L99.4123 379.82L98.6933 379.641H97.9743L97.2554 379.92L96.5364 379.9L95.8174 379.96L95.0984 379.601L94.3795 379.81L93.6605 379.94L92.9415 379.78L92.2126 379.97L91.4936 379.74L90.7746 379.85H90.0456L89.3267 379.651L88.6077 379.76L87.8887 379.82L87.1698 379.98L86.4408 379.551L85.7218 379.97L85.0029 379.72L84.2839 379.73L83.5649 379.681L82.8459 379.74L82.127 379.8L81.408 379.96L80.679 379.85L79.9601 379.75L79.2411 379.94L78.5221 379.88L77.7932 379.72L77.0742 379.671L76.3552 379.92L75.6263 379.651L74.9073 379.98L74.1883 379.99L73.4693 379.691L72.7504 379.621L72.0314 379.9H71.3224L70.6034 379.82L69.8745 379.78L69.1555 379.541L68.4365 379.77L67.7076 379.711L66.9886 379.551L66.2696 379.82L65.5506 379.521L64.8317 379.83L64.1127 379.82L63.3937 379.91L62.6748 379.541L61.9558 379.511L61.2368 379.631L60.5178 379.87L59.7989 379.91L59.0799 379.98L58.3609 379.671L57.632 379.701L56.913 379.561L56.194 379.78L55.4651 379.571L54.7461 379.701L54.0171 379.641L53.2981 379.691L52.5792 379.74L51.8602 379.711L51.1312 379.74L50.4123 379.81L49.6933 379.541L48.9643 379.73H48.2454L47.5164 379.95L46.7974 379.78L46.0685 379.94L45.3495 379.79L44.6305 379.96L43.9016 379.641L43.1726 379.681L42.4536 379.611H41.7247L41.0057 379.551L40.2867 379.73L39.5678 379.571L38.8488 379.73L38.1198 379.75L37.3909 379.73L36.6719 379.501L35.9429 379.691L35.224 379.83L34.495 379.86L33.766 379.91L33.0371 379.86L32.3181 379.681L31.5892 379.691L30.8602 379.581L30.1312 379.78L29.4023 379.641L28.6733 379.83L27.9444 379.641L27.2054 380L26.4864 379.571L25.7575 379.73L25.0285 379.78L24.2896 379.8L23.5706 379.641L22.9116 379.221L22.1327 379.401L21.4237 379.241L20.7746 378.852L20.0257 378.802L19.4265 378.323L18.6277 378.393L17.9786 378.063L17.2696 377.854L16.8003 377.155L15.9815 377.165L15.5121 376.506L14.923 376.097L14.174 375.937L13.4551 375.698L12.9558 375.149L12.2967 374.809L11.8573 374.19L11.4579 373.561L10.8288 373.172L10.3096 372.683L9.9301 372.044L9.38088 371.575L8.9515 370.996L8.33238 370.577L7.95292 369.948L7.65335 369.279L7.02425 368.84L6.57489 368.261L6.30528 367.572L5.91583 366.963L5.59629 366.314L5.25678 365.666L4.8873 365.037L4.58773 364.368L4.66762 363.569L4.28816 362.93L4.34807 362.162L3.78887 361.563L3.52924 360.874L3.86876 360.066L3.73894 359.367L3.54922 358.668L3.31954 357.959L3.35949 357.241L3.16976 356.522L3.3495 355.793L3 355.075V354.356L3.40942 353.637L3.36947 352.928L3.28959 352.21L3.18973 351.491L3.22967 350.772L3.14979 350.053L3.38944 349.335L3.19971 348.626L3.01997 347.907L3.25963 347.189L3.45934 346.47L3.42939 345.751L3.31954 345.032V344.324L3.43937 343.605L3.11983 342.886L3.38944 342.168L3.04993 341.449L3.14979 340.74L3.18973 340.021L3.44936 339.303L3.22967 338.584L3 337.865L3.43937 337.147L3.3495 336.428L3.1398 335.709L3.26961 335L3.25963 334.282L3.42939 333.563L3.23966 332.844L3.3495 332.125L3.11983 331.407L3.47932 330.688L3.46933 329.969L3.3495 329.251L3.14979 328.532L3.43937 327.813L3.04993 327.094L3.08987 326.376L3.38944 325.657L3.29957 324.938L3.11983 324.22L3.2796 323.501L3.08987 322.782L3.3495 322.063L3.01997 321.345L3.3495 320.626L3.21969 319.907L3.18973 319.189L3.28959 318.47L3.36947 317.751L3.43937 317.032L3.18973 316.314L3.36947 315.595L3.03994 314.876L3.24964 314.158L3.37946 313.439L3.28959 312.72L3.47932 312.001L3.09986 311.283L3.2796 310.564L3.3495 309.845L3.47932 309.127L3.10984 308.418L3.28959 307.699L3.39943 306.98L3.4194 306.262L3.2796 305.543L3.11983 304.824L3.37946 304.106L3 303.387L3.2097 302.668L3.40942 301.949L3.18973 301.241L3.45934 300.522L3.29957 299.803L3.40942 299.084L3.05991 298.366L3.42939 297.657L3.45934 296.938L3.47932 296.22L3.33952 295.511L3.12981 294.792L3.21969 294.073L3.26961 293.355L3.16976 292.646L3.09986 291.927L3.37946 291.209L3.25963 290.49L3.23966 289.771L3.0699 289.052L3.4893 288.334L3.1398 287.615L3.08987 286.896L3.17974 286.178L3.2796 285.459L3.07989 284.74L3.24964 284.021L3.23966 283.303L3.01997 282.584L3.43937 281.865L3.14979 281.147L3.11983 280.428L3.2097 279.709L3 278.99L3.15977 278.272L3.11983 277.553L3.15977 276.834L3.25963 276.125L3.43937 275.407L3.24964 274.688L3.44936 273.969L3.21969 273.261L3.28959 272.542V271.823L3.14979 271.104L3.42939 270.396L3.00999 269.677L3.18973 268.958L3.43937 268.25L3.11983 267.531L3.40942 266.812L3.04993 266.103L3.46933 265.385L3.12981 264.666L3.08987 263.957L3.30956 263.239L3.0699 262.52L3.02996 261.811L3.09986 261.092L3.31954 260.384L3.16976 259.665L3.21969 258.946L3.12981 258.237L3.47932 257.519L3.01997 256.81L3.17974 256.091L3.14979 255.373V254.664L3.12981 253.945L3.3495 253.226L3.4194 252.518L3.42939 251.799L3.43937 251.08L3.30956 250.362L3.22967 249.653L3.02996 248.934L3.2097 248.215L3.10984 247.497L3.02996 246.788L3.36947 246.069L3.09986 245.35L3.01997 244.632L3.16976 243.913L3.21969 243.194L3.40942 242.476L3 241.757L3.2097 241.038L3.24964 240.319L3.00999 239.601L3.23966 238.882L3.03994 238.163L3.47932 237.435L3.38944 236.716L3.46933 235.997L3.30956 235.278L3.17974 234.56L3.39943 233.841L3.44936 233.112L3.29957 232.394L3.26961 231.675L3.01997 230.956L3.2796 230.237L3 229.519L3.1398 228.8L3.26961 228.081L3.04993 227.363L3.21969 226.644L3.30956 225.925L3.24964 225.216L3.38944 224.498L3.07989 223.779L3.2796 223.06L3.18973 222.342L3.4194 221.623L3.38944 220.904L3.19971 220.185L3.05991 219.467L3.2097 218.748L3.0699 218.039L3.42939 217.32L3.23966 216.602L3.2097 215.883L3.11983 215.164L3.3495 214.446L3.19971 213.727L3.37946 213.008L3.39943 212.289L3.3495 211.571L3.2097 210.842L3.23966 210.123L3.21969 209.405L3.47932 208.686L3.4893 207.967L3.32953 207.239L3.38944 206.52L3.08987 205.801L3.37946 205.072L3.14979 204.354L3.29957 203.635L3.39943 202.916L3.45934 202.198L3.03994 201.479L3.24964 200.76L3.05991 200.031L3.11983 199.313L3.22967 198.594L3.43937 197.875L3.37946 197.157L3.01997 196.438L3.37946 195.719L3.00999 195L3.35949 194.282L3.01997 193.563L3.39943 192.844L3.37946 192.116L3.32953 191.397L3.47932 190.678L3.2796 189.959L3.37946 189.241L3.18973 188.512L3.4194 187.793V187.065L3.01997 186.346L3.07989 185.627V184.908L3.46933 184.18L3.03994 183.461L3.02996 182.742L3.32953 182.024L3.2796 181.305L3.00999 180.586L3.35949 179.857L3.39943 179.139L3.4893 178.42L3.35949 177.701L3.4194 176.973L3.40942 176.254L3.24964 175.535L3.15977 174.806L3.45934 174.088L3.24964 173.369L3.29957 172.64L3.08987 171.922L3.04993 171.203L3.21969 170.484L3.14979 169.765L3.32953 169.047L3.1398 168.328L3.45934 167.609L3.2097 166.891L3.43937 166.172L3.42939 165.443L3.09986 164.724L3.25963 163.996L3.26961 163.277L3.16976 162.558L3.17974 161.84L3.31954 161.121L3.15977 160.402L3.2796 159.683L3.30956 158.965L3 158.246L3.36947 157.527L3.04993 156.809L3.47932 156.09L3.3495 155.361L3.4893 154.642L3.12981 153.924L3.18973 153.195L3.23966 152.476L3.36947 151.748L3.42939 151.029L3.05991 150.3L3.43937 149.581L3.11983 148.863L3.09986 148.144L3.31954 147.415L3.23966 146.697L3.4893 145.968L3.2796 145.249L3.24964 144.52L3.3495 143.802L3 143.073L3.33952 142.354L3.45934 141.626L3.44936 140.907L3.03994 140.178L3.1398 139.45L3.03994 138.731L3.18973 138.002L3.14979 137.283L3.17974 136.565L3.0699 135.846L3.30956 135.117L3.36947 134.389L3.11983 133.67L3 132.941L3.38944 132.222L3.42939 131.494L3.46933 130.765L3.21969 130.036L3.32953 129.308L3.36947 128.579L3.09986 127.86L3.14979 127.132L3.4194 126.403L3.14979 125.674L3.11983 124.935L3.37946 124.207L3.39943 123.488V122.759L3.15977 122.021L3.47932 121.322L3.3495 120.573L3.61912 119.875L3.7689 119.166L3.96862 118.467L4.00856 117.738L4.45792 117.109L4.48787 116.361L4.8174 115.712L4.86733 114.943L5.3067 114.344L5.56633 113.666L5.78602 112.957L6.22539 112.368L6.49501 111.679L6.90442 111.08L7.34379 110.491L7.78317 109.902L8.31241 109.403L8.85164 108.904L9.34094 108.375L9.68046 107.706L10.4294 107.417L10.6491 106.608L11.1883 106.119L11.7575 105.66L12.5563 105.51L13.0357 104.931L13.525 104.382L14.184 104.063L14.893 103.833L15.3524 103.184L16.1612 103.154L16.7903 102.815L17.2796 102.146L17.9486 101.857L18.7874 102.006L19.4165 101.637L20.1056 101.417L20.7846 101.158L21.4936 101.028L22.2325 101.018L22.8716 100.559L23.5806 100.379L24.3096 100.329L25.0385 100.359L25.7575 100.28L26.4765 100.05L27.2054 100.2L27.9244 100.04L28.6434 100.08L29.3524 100.04L30.0713 100.02L30.7903 100.14L31.4993 100.449L32.2183 100.15H32.9372L33.6462 100.349L34.3652 100.04L35.0842 100.319L35.7932 100.329L36.5121 100.27L37.2311 100.1L37.9401 100.23L38.6591 100.309L39.378 100.09L40.087 100.01L40.806 100.09L41.525 100.06L42.234 100.03L42.9529 100.429L43.6719 100.23L44.3809 100.07L45.0999 100.399L45.8188 100.2L46.5278 100.06L47.2468 100.07L47.9658 100.499L48.6748 100.02L49.3937 100.17L50.1127 100.25L50.8217 100.06H51.5407L52.2596 100.1L52.9786 100.329L53.6876 100.28L54.4066 100.05L55.1255 100.11L55.8445 100.22L56.5535 100.409L57.2725 100.15L57.9914 100.489L58.7104 100.419L59.4294 100.02L60.1384 100.379L60.8573 100.22L61.5763 100.479L62.2953 100.469L63.0143 100.06L63.7332 100.409L64.4422 100.16L65.1612 100.1L65.8802 100.15L66.5991 100.1L67.3181 100.16L68.0371 100.23L68.7561 100.16L69.475 100.06L70.194 100.499L70.913 100L71.632 100.299L72.3509 100.28L73.0699 100.419L73.7889 100.1L74.5078 100.369L75.2168 100.479L75.9358 100.439L76.6548 100.389L77.3738 100.04L78.0927 100.389L78.8117 100.369L79.5307 100.08L80.2496 100.27L80.9686 100.12L81.6776 100.419L82.3966 100.349L83.1156 100.17L83.8345 100.02L84.5535 100.329L85.2725 100.12L85.9815 100.27L86.7004 100.01L87.4194 100.02L88.1384 100.359L88.8574 100.489L89.5663 100.27L90.2853 100.14L91.0043 100.15H91.7233L92.4422 100.17L93.1512 100.25L93.8702 100.389L94.5892 100L95.3081 100.01L96.0171 100.289L96.7361 100.309L97.4551 100.479L98.174 100.21L98.893 100.16L99.602 100.25L100.321 100.14L101.04 100.28L101.759 100.07L102.468 100.349L103.187 100.1L103.906 100.05L104.625 100.449L105.344 100.08L106.053 100.399L106.772 100.439L107.491 100.12L108.21 100.25L108.929 100.489L109.638 100.429L110.357 100.479L111.076 100.03L111.795 100.429L112.514 100.419L113.233 100.429L113.942 100.479H114.66L115.379 100.05L116.098 100.27L116.817 100.17L117.536 100.02L118.255 100.289L118.974 100.299L119.693 100.489L120.412 100.09L121.131 100.379H121.85L122.569 100.05L123.288 100.06L124.007 100.349L124.726 100.17L125.445 100.389L126.164 100.11L126.883 100.19L127.602 100.25L128.311 100.429L129.03 100.459L129.749 100.05L130.468 100.449L131.187 100.26H131.906L132.625 100.289L133.344 100.489L134.063 100.27L134.782 100.419L135.501 100.03L136.21 100.299L136.929 100.22L137.648 100.23L138.367 100.369L139.086 100.1L139.805 100.299L140.524 100.25L141.233 100.359L141.952 100.24L142.67 100.14H143.389L144.108 100.12L144.827 100.11L145.536 100.399L146.255 100.02L146.974 100.459L147.693 100.359L148.402 100.04L149.121 100.469L149.83 100.01L150.549 100.18L151.268 100.08L151.977 100.24L152.696 100.23L153.415 100.309L154.134 100.23L154.843 100.409L155.562 100.24L156.281 100.13L157 100.15L157.719 100.419L158.438 100.349H159.157L159.876 100.06L160.595 100.21L161.314 100.349L162.033 100.399L162.752 100.14L163.471 100.07L164.19 100.24L164.909 100.26L165.628 100.399L166.347 100.299L167.056 100.11L167.775 100.479L168.494 100.349L169.213 100.19L169.932 100.289L170.641 100.19L171.359 100.309L172.078 100.09L172.797 100.01L173.506 100.2L174.225 100.1H174.944L175.653 100.18L176.372 100.02L177.091 100.399L177.8 100.469L178.519 100.479L179.228 100.06L179.947 100.18L180.666 100.329L181.375 100.459L182.094 100.09L182.803 100.329L183.522 100.429L184.231 100.27L184.95 100.429L185.669 100.489L186.378 100.339L187.097 100.27L187.806 100.369L188.525 100.1L189.234 100.479L189.953 100.07L190.672 100.2L191.381 100.339L192.1 100.24L192.809 100.299L193.528 100.08L194.247 100.379L194.956 100.13L195.675 100.22L196.394 100.359L197.103 100.479L197.822 100.399L198.541 100.359L199.26 100.28L199.969 100.16L200.688 100.21L201.407 100.25L202.126 100.06L202.845 100.26L203.563 100.08L204.282 100.21L205.001 100.359L205.72 100.06L206.439 100.17L207.158 100.459L207.877 100.06L208.596 100.04L209.315 100.409L210.034 100.07L210.763 100.439L211.482 100.24L212.201 100.309L212.92 100.27L213.639 100.12L214.358 100.26L215.077 100.319L215.796 100.25L216.515 100.299L217.234 100.1L217.953 100.479L218.662 100.26L219.381 100.359L220.1 100.15L220.819 100.469L221.538 100.04L222.257 100.13L222.976 100.12L223.685 100.14L224.404 100.359L225.123 100.04L225.842 100.24L226.561 100.07L227.28 100.28L227.999 100.349L228.708 100.439L229.427 100.429L230.146 100.28L230.864 100.27L231.583 100.449L232.302 100.1L233.021 100.06L233.74 100.2L234.459 100.489L235.178 100.18L235.897 100.03L236.616 100.18L237.345 100.399L238.064 100.08L238.783 100.2L239.502 100.479L240.231 100.489L240.95 100.25H241.669L242.388 100.469L243.107 100.459L243.826 100.14L244.545 100.299L245.264 100.489L245.983 100.03L246.702 100.489L247.421 100.15L248.14 100.479L248.859 100.379L249.578 100.16L250.297 100.11L251.016 100.12L251.745 100.319L252.464 100.459L253.183 100.14L253.902 100.16L254.621 100.25L255.34 100.23L256.058 100.469L256.777 100.25L257.506 100.19L258.225 100.18L258.944 100.21L259.673 100.439L260.392 100.499L261.111 100.13L261.83 100L262.549 100.12L263.278 100.27L263.997 100.309L264.716 100.389L265.435 100.09L266.154 100.16L266.873 100.21L267.592 100L268.321 100.12L269.04 100.309L269.759 100.25L270.478 100.489L271.207 100.01L271.926 100.369L272.645 100.23L273.374 100.459L274.093 100.11L274.812 100.24L275.531 100.22L276.24 100.02L276.959 100.429L277.678 100.439L278.397 100.09L279.126 100.289L279.845 100.03L280.563 100.359L281.292 100.16L282.011 100.23L282.73 100.07L283.449 100.18L284.168 100.08L284.887 100.309L285.606 100.06L286.325 100.289L287.044 100.23L287.763 100.409L288.482 100.23L289.201 100.459L289.92 100.469L290.639 100.309L291.358 100.16L292.087 100.07L292.806 100.13L293.535 100.329L294.254 100.339L294.983 100.309L295.702 100.11L296.421 100.369L297.14 100.1L297.859 100.399L298.588 100.409L299.307 100.419L300.036 100.379L300.755 100.399L301.484 100.469L302.203 100.349L302.932 100.359L303.65 100.18L304.369 100.19L305.098 100.05L305.827 100.339L306.546 100.04L307.275 100.02L307.994 100.07L308.713 100.02L309.432 100.1L310.151 100.339L310.88 100.1L311.609 100.01L312.328 100.449L313.057 100.19L313.776 100.18L314.505 100.09L315.234 100.07L315.953 100.06L316.682 100.15L317.411 100.299L318.14 100.23L318.869 100.16L319.598 100.2L320.327 100.21L321.056 100.19L321.785 100.479L322.514 100.399L323.223 100.489L323.942 100.559L324.7 100.309L325.399 100.529L326.088 100.769L326.877 100.539L327.566 100.789L328.255 101.038L328.964 101.218L329.683 101.358L330.372 101.597L331.051 101.877L331.71 102.196L332.22 102.815L332.959 102.945L333.558 103.364L334.247 103.614L334.856 104.023L335.475 104.402L335.924 105.021L336.563 105.36L337.123 105.82L337.702 106.269L338.061 106.928L338.68 107.337L339.369 107.666L339.789 108.275L340.328 108.764L340.488 109.563L341.177 109.952L341.636 110.521L342.096 111.08L342.395 111.759L342.575 112.498L342.944 113.107L343.194 113.785L343.743 114.334L343.823 115.083L344.053 115.772L344.572 116.351L344.482 117.139L345.021 117.728L345.151 118.447L345.231 119.176L345.471 119.865L345.621 120.573L345.73 121.302L345.571 122.041L345.491 122.769L345.92 123.478L345.95 124.207L345.551 124.925L345.631 125.644L345.74 126.353L345.95 127.072L345.621 127.79L345.511 128.509L345.78 129.228L345.531 129.937V130.655L345.8 131.374L346 132.093L345.81 132.811L345.99 133.53L345.89 134.239L345.74 134.958L345.71 135.676L345.98 136.395L345.96 137.114L345.521 137.832L345.571 138.541L345.97 139.26L345.611 139.979L345.95 140.697L345.541 141.416L345.97 142.135L345.99 142.843L345.75 143.562L345.94 144.281L345.82 145L345.571 145.718L345.97 146.437L345.85 147.156L345.75 147.875L346 148.593L345.64 149.312L345.84 150.031L346 150.739L345.571 151.458L345.551 152.177L345.68 152.896L345.9 153.614L345.85 154.333V155.052L345.621 155.77L346 156.499L345.89 157.218L345.74 157.937L345.75 158.655L345.92 159.374L345.71 160.093L345.79 160.811L345.85 161.53L345.95 162.249L345.83 162.968L345.84 163.686L345.541 164.405L345.97 165.124L345.66 165.842L345.94 166.561L345.65 167.28L345.7 167.999L345.92 168.707L345.65 169.426L345.84 170.145L345.571 170.863L345.93 171.582L345.99 172.301L345.541 173.02L345.511 173.738L345.591 174.457L346 175.176L345.99 175.894L345.511 176.603L345.611 177.322L345.86 178.041L345.94 178.759L345.73 179.478L345.521 180.197L345.64 180.916L345.611 181.624V182.343L345.98 183.062L345.91 183.77L345.67 184.489L345.65 185.208L345.9 185.927L345.92 186.635L345.82 187.354V188.073L345.87 188.791L345.551 189.51L345.531 190.229L345.8 190.938L345.92 191.656L345.76 192.375L345.72 193.094L345.571 193.812L345.64 194.541L345.66 195.26L345.95 195.979L345.94 196.697L345.69 197.416L345.511 198.135L345.72 198.853L345.511 199.572L345.65 200.291L345.78 201.01L345.67 201.728L345.9 202.437L345.79 203.156L345.511 203.875L345.581 204.593L345.96 205.312L345.81 206.021L345.65 206.739L345.551 207.458L345.83 208.177L345.87 208.886L345.571 209.604L345.9 210.323L345.78 211.032L345.75 211.75L345.521 212.469L345.87 213.178L345.561 213.897L345.8 214.615L345.65 215.324L345.83 216.043L345.511 216.761L345.99 217.47L345.85 218.189L345.71 218.898L345.501 219.616L345.88 220.335L345.521 221.044L345.631 221.763L345.78 222.481L345.66 223.19L345.71 223.909L345.96 224.617L345.68 225.336L345.65 226.055L345.511 226.764L345.99 227.482L345.571 228.201L345.88 228.92L345.621 229.629L345.77 230.347L345.68 231.066L345.72 231.785L345.77 232.493L345.8 233.212L345.84 233.931L345.581 234.65L345.601 235.368L345.69 236.087L345.86 236.806L345.68 237.524L345.77 238.243L345.99 238.962L345.85 239.681L345.96 240.399L345.561 241.118L345.75 241.837L345.91 242.555L345.561 243.274L345.541 244.003L345.99 244.722L345.89 245.44L345.99 246.159L345.561 246.878L345.73 247.596L345.68 248.315L345.89 249.034L345.84 249.763L345.7 250.481L345.77 251.19L346 251.909L345.77 252.627L345.88 253.346L345.89 254.065L345.78 254.784L345.601 255.502L345.531 256.221L345.67 256.94L345.76 257.658L345.87 258.377L345.79 259.096L345.551 259.805L345.561 260.523L345.621 261.242L345.551 261.961L345.75 262.68L345.69 263.398L345.67 264.117L345.73 264.836L345.79 265.554L345.531 266.273L345.67 266.992L345.591 267.711L345.621 268.429L345.631 269.148L345.581 269.867L345.66 270.595L345.97 271.314L345.74 272.033L345.83 272.752L345.551 273.48L345.561 274.199L345.64 274.918L345.86 275.646L345.7 276.365L345.571 277.084L345.8 277.802L345.68 278.521L345.67 279.24L345.65 279.959L345.86 280.677L345.75 281.396V282.115L345.92 282.843L345.85 283.562L345.8 284.281L345.88 285L345.591 285.718L345.97 286.437L345.86 287.156L345.611 287.875L345.75 288.593L345.98 289.322L345.591 290.041L345.74 290.759L345.96 291.488L345.7 292.207L345.84 292.925L345.7 293.654L345.581 294.373L345.77 295.092L345.84 295.81L345.92 296.529L345.68 297.258L345.88 297.976L345.98 298.695L345.79 299.414V300.133L345.91 300.861L345.72 301.58L345.76 302.299L345.86 303.017L345.561 303.746L345.98 304.465L345.9 305.184L345.71 305.912L345.85 306.631L345.99 307.35L345.86 308.078L345.93 308.797L345.71 309.516L345.621 310.235L345.601 310.953L345.84 311.672L345.98 312.391L345.551 313.109L345.77 313.828L345.581 314.557L345.97 315.276L345.76 315.994L345.571 316.723L345.96 317.442L345.99 318.16L345.85 318.879L345.71 319.598L345.531 320.317L345.97 321.035L345.561 321.754L345.521 322.473L345.591 323.191L345.64 323.91L345.531 324.629L345.9 325.358L345.581 326.076L345.71 326.805L345.611 327.524L345.83 328.252L345.64 328.971L345.72 329.69L345.92 330.419L345.89 331.137L345.541 331.856L345.97 332.575L345.8 333.303L345.68 334.022L345.551 334.751L346 335.479L345.89 336.198L345.511 336.927L345.88 337.646L345.84 338.364L345.561 339.093L345.75 339.822L345.571 340.54L345.76 341.269L345.89 341.988L345.81 342.717L345.74 343.435L345.79 344.154L345.86 344.883L345.98 345.601L345.93 346.33L345.89 347.049L345.96 347.778L345.68 348.506L345.82 349.235L345.78 349.954L345.561 350.682L345.91 351.411L345.86 352.14L345.551 352.868L345.94 353.597L345.89 354.326L345.91 355.055L345.94 355.793L345.561 356.512L345.541 357.231L345.75 357.969L345.72 358.698L345.241 359.367L345.421 360.125L345.401 360.864L345.161 361.563L344.922 362.252L344.892 363L344.462 363.619L344.292 364.328L343.773 364.897L343.553 365.586L343.244 366.245L343.104 366.983L342.825 367.662L342.126 368.091L341.916 368.81L341.676 369.529L341.267 370.128L340.608 370.537L340.188 371.126L339.829 371.775L339.08 372.074L338.74 372.753L338.361 373.402L337.702 373.761L337.243 374.34L336.573 374.67L335.964 375.059L335.525 375.698L334.886 376.057L334.227 376.366L333.508 376.566L332.999 377.155L332.34 377.465L331.551 377.475L330.882 377.744L330.272 378.163L329.653 378.563L328.934 378.702L328.265 379.012L327.566 379.231L326.787 379.072L326.098 379.271L325.399 379.511L324.69 379.651L323.961 379.621L323.242 379.83L322.524 379.93L321.785 379.81Z" fill="white"/>
<path d="M321.785 379.81L321.076 379.691L320.357 379.75L319.638 379.77L318.929 379.82L318.21 379.591L317.491 379.581L316.782 379.96L316.063 379.581L315.354 379.621L314.635 379.94L313.916 379.75L313.207 379.82L312.488 379.541L311.769 379.601L311.06 379.78L310.341 379.581L309.622 379.9L308.913 379.96L308.194 379.691L307.475 379.92H306.766L306.047 379.87L305.328 379.74L304.619 380L303.9 379.84L303.181 379.661L302.472 379.541L301.753 379.83L301.034 379.511L300.325 379.661L299.606 379.98L298.887 379.89L298.168 379.86L297.459 379.711L296.74 379.94L296.021 379.9L295.302 379.541L294.593 379.94L293.874 379.97L293.155 379.561L292.436 379.75L291.728 379.86L291.009 379.74L290.29 379.95L289.571 379.79L288.852 379.95L288.143 379.75L287.424 379.93L286.705 379.601L285.986 379.84L285.267 379.89L284.548 379.72L283.839 379.97L283.12 379.84L282.401 379.95L281.682 379.541L280.963 379.641L280.244 379.77L279.525 379.651L278.806 379.9L278.087 379.94L277.368 379.92L276.649 379.681L275.93 379.561L275.211 379.83L274.492 379.651L273.773 379.581L273.054 379.641L272.345 379.75L271.626 379.86L270.907 379.651L270.188 379.9L269.469 379.85L268.75 379.9L268.031 379.89L267.312 379.75L266.603 379.95L265.884 379.581L265.165 379.691L264.446 379.88L263.728 379.77L263.009 379.98L262.3 379.571L261.581 379.81L260.862 379.77L260.143 379.591L259.424 380L258.715 379.92L257.996 379.671L257.277 379.551L256.558 379.8L255.839 379.98L255.13 379.551L254.411 380L253.692 379.79L252.973 379.82L252.264 379.97L251.545 379.75H250.826L250.107 379.81L249.398 379.551L248.679 379.97L247.96 379.691L247.241 379.661L246.522 379.611L245.813 379.92L245.094 379.651L244.375 379.581L243.656 379.511L242.947 379.88L242.228 379.96L241.509 379.651L240.79 379.571L240.071 379.541L239.362 379.651L238.643 379.76L237.924 379.581L237.205 379.88L236.486 379.541L235.767 379.631L235.049 379.681L234.34 379.621L233.621 379.541L232.902 379.531L232.183 379.98L231.464 379.651L230.745 379.9L230.026 379.591L229.307 379.711L228.588 379.681L227.869 379.75L227.15 379.82L226.431 379.601L225.712 379.661L224.993 379.73L224.274 379.78L223.555 379.8H222.836L222.117 379.661L221.398 379.94L220.679 379.77L219.96 379.99L219.251 379.88L218.532 379.84L217.813 379.73L217.094 379.74L216.375 379.78L215.656 379.8L214.937 379.96L214.218 379.72L213.499 379.681L212.78 379.581L212.071 379.99L211.352 379.621H210.633L209.914 379.601L209.195 379.691L208.476 379.91L207.757 379.541L207.049 379.671L206.33 379.581L205.611 379.661L204.892 379.551L204.173 379.711L203.454 379.88L202.745 379.581L202.026 379.84L201.307 379.591L200.598 379.78L199.879 379.93L199.16 379.77L198.451 379.501L197.732 379.86L197.013 379.82L196.304 379.711L195.585 379.95L194.866 379.571L194.147 379.77H193.438L192.719 379.81H192L191.281 379.92L190.562 380L189.843 379.531L189.124 379.98L188.405 379.701L187.686 379.99L186.967 379.93L186.248 379.98L185.529 379.581L184.81 379.701L184.091 379.74L183.372 379.701L182.653 379.89L181.934 379.85L181.225 379.691L180.506 379.711L179.787 379.661L179.068 379.581L178.35 379.81L177.641 379.99L176.922 379.72L176.203 379.531L175.494 379.541L174.775 379.73L174.056 379.551L173.347 379.661L172.628 379.86L171.909 379.97L171.2 379.87L170.481 379.691L169.762 379.8L169.053 379.87L168.334 379.531L167.625 379.501L166.906 379.651L166.197 379.631L165.478 379.531L164.759 379.8L164.05 379.88L163.331 379.98L162.622 379.701L161.903 379.83L161.194 379.9L160.475 379.72L159.756 379.631L159.047 379.531L158.328 379.581L157.619 379.73L156.9 379.591L156.181 379.94L155.472 379.571L154.753 379.93L154.044 379.591L153.325 379.701L152.606 379.99L151.887 379.671L151.178 379.631L150.459 379.91L149.74 379.84L149.021 379.9L148.312 379.77L147.593 379.75L146.874 379.93L146.155 379.681L145.437 379.86L144.718 379.671L143.999 379.511L143.28 379.99L142.561 379.79L141.842 379.91L141.123 379.94L140.404 379.621H139.685L138.956 379.83L138.237 379.591L137.518 379.91L136.799 379.601L136.08 379.691L135.361 379.85L134.642 379.9L133.923 379.82L133.204 379.87H132.485L131.766 379.711L131.047 380L130.328 379.73L129.619 379.91L128.9 379.81L128.181 379.75L127.462 379.591L126.743 379.561L126.024 379.91L125.305 379.73L124.596 379.93L123.877 379.97L123.158 379.641L122.439 379.501L121.72 379.92L121.001 379.561L120.282 379.681L119.573 379.671L118.854 379.87L118.136 379.75L117.417 379.701L116.698 379.91L115.979 379.551L115.26 379.701L114.541 379.621L113.822 379.581L113.103 379.631L112.374 379.621L111.655 379.541L110.936 379.561L110.217 379.76L109.498 379.601L108.769 379.97L108.05 379.88L107.331 379.79L106.612 379.521L105.893 379.571L105.174 379.89L104.455 379.76L103.736 379.581L103.017 379.631L102.288 379.521L101.569 379.85L100.85 379.88L100.131 379.96L99.4123 379.82L98.6933 379.641H97.9743L97.2554 379.92L96.5364 379.9L95.8174 379.96L95.0984 379.601L94.3795 379.81L93.6605 379.94L92.9415 379.78L92.2126 379.97L91.4936 379.74L90.7746 379.85H90.0456L89.3267 379.651L88.6077 379.76L87.8887 379.82L87.1698 379.98L86.4408 379.551L85.7218 379.97L85.0029 379.72L84.2839 379.73L83.5649 379.681L82.8459 379.74L82.127 379.8L81.408 379.96L80.679 379.85L79.9601 379.75L79.2411 379.94L78.5221 379.88L77.7932 379.72L77.0742 379.671L76.3552 379.92L75.6263 379.651L74.9073 379.98L74.1883 379.99L73.4693 379.691L72.7504 379.621L72.0314 379.9H71.3224L70.6034 379.82L69.8745 379.78L69.1555 379.541L68.4365 379.77L67.7076 379.711L66.9886 379.551L66.2696 379.82L65.5506 379.521L64.8317 379.83L64.1127 379.82L63.3937 379.91L62.6748 379.541L61.9558 379.511L61.2368 379.631L60.5178 379.87L59.7989 379.91L59.0799 379.98L58.3609 379.671L57.632 379.701L56.913 379.561L56.194 379.78L55.4651 379.571L54.7461 379.701L54.0171 379.641L53.2981 379.691L52.5792 379.74L51.8602 379.711L51.1312 379.74L50.4123 379.81L49.6933 379.541L48.9643 379.73H48.2454L47.5164 379.95L46.7974 379.78L46.0685 379.94L45.3495 379.79L44.6305 379.96L43.9016 379.641L43.1726 379.681L42.4536 379.611H41.7247L41.0057 379.551L40.2867 379.73L39.5678 379.571L38.8488 379.73L38.1198 379.75L37.3909 379.73L36.6719 379.501L35.9429 379.691L35.224 379.83L34.495 379.86L33.766 379.91L33.0371 379.86L32.3181 379.681L31.5892 379.691L30.8602 379.581L30.1312 379.78L29.4023 379.641L28.6733 379.83L27.9444 379.641L27.2054 380L26.4864 379.571L25.7575 379.73L25.0285 379.78L24.2896 379.8L23.5706 379.641L22.9116 379.221L22.1327 379.401L21.4237 379.241L20.7746 378.852L20.0257 378.802L19.4265 378.323L18.6277 378.393L17.9786 378.063L17.2696 377.854L16.8003 377.155L15.9815 377.165L15.5121 376.506L14.923 376.097L14.174 375.937L13.4551 375.698L12.9558 375.149L12.2967 374.809L11.8573 374.19L11.4579 373.561L10.8288 373.172L10.3096 372.683L9.9301 372.044L9.38088 371.575L8.9515 370.996L8.33238 370.577L7.95292 369.948L7.65335 369.279L7.02425 368.84L6.57489 368.261L6.30528 367.572L5.91583 366.963L5.59629 366.314L5.25678 365.666L4.8873 365.037L4.58773 364.368L4.66762 363.569L4.28816 362.93L4.34807 362.162L3.78887 361.563L3.52924 360.874L3.86876 360.066L3.73894 359.367L3.54922 358.668L3.31954 357.959L3.35949 357.241L3.16976 356.522L3.3495 355.793L3 355.075V354.356L3.40942 353.637L3.36947 352.928L3.28959 352.21L3.18973 351.491L3.22967 350.772L3.14979 350.053L3.38944 349.335L3.19971 348.626L3.01997 347.907L3.25963 347.189L3.45934 346.47L3.42939 345.751L3.31954 345.032V344.324L3.43937 343.605L3.11983 342.886L3.38944 342.168L3.04993 341.449L3.14979 340.74L3.18973 340.021L3.44936 339.303L3.22967 338.584L3 337.865L3.43937 337.147L3.3495 336.428L3.1398 335.709L3.26961 335L3.25963 334.282L3.42939 333.563L3.23966 332.844L3.3495 332.125L3.11983 331.407L3.47932 330.688L3.46933 329.969L3.3495 329.251L3.14979 328.532L3.43937 327.813L3.04993 327.094L3.08987 326.376L3.38944 325.657L3.29957 324.938L3.11983 324.22L3.2796 323.501L3.08987 322.782L3.3495 322.063L3.01997 321.345L3.3495 320.626L3.21969 319.907L3.18973 319.189L3.28959 318.47L3.36947 317.751L3.43937 317.032L3.18973 316.314L3.36947 315.595L3.03994 314.876L3.24964 314.158L3.37946 313.439L3.28959 312.72L3.47932 312.001L3.09986 311.283L3.2796 310.564L3.3495 309.845L3.47932 309.127L3.10984 308.418L3.28959 307.699L3.39943 306.98L3.4194 306.262L3.2796 305.543L3.11983 304.824L3.37946 304.106L3 303.387L3.2097 302.668L3.40942 301.949L3.18973 301.241L3.45934 300.522L3.29957 299.803L3.40942 299.084L3.05991 298.366L3.42939 297.657L3.45934 296.938L3.47932 296.22L3.33952 295.511L3.12981 294.792L3.21969 294.073L3.26961 293.355L3.16976 292.646L3.09986 291.927L3.37946 291.209L3.25963 290.49L3.23966 289.771L3.0699 289.052L3.4893 288.334L3.1398 287.615L3.08987 286.896L3.17974 286.178L3.2796 285.459L3.07989 284.74L3.24964 284.021L3.23966 283.303L3.01997 282.584L3.43937 281.865L3.14979 281.147L3.11983 280.428L3.2097 279.709L3 278.99L3.15977 278.272L3.11983 277.553L3.15977 276.834L3.25963 276.125L3.43937 275.407L3.24964 274.688L3.44936 273.969L3.21969 273.261L3.28959 272.542V271.823L3.14979 271.104L3.42939 270.396L3.00999 269.677L3.18973 268.958L3.43937 268.25L3.11983 267.531L3.40942 266.812L3.04993 266.103L3.46933 265.385L3.12981 264.666L3.08987 263.957L3.30956 263.239L3.0699 262.52L3.02996 261.811L3.09986 261.092L3.31954 260.384L3.16976 259.665L3.21969 258.946L3.12981 258.237L3.47932 257.519L3.01997 256.81L3.17974 256.091L3.14979 255.373V254.664L3.12981 253.945L3.3495 253.226L3.4194 252.518L3.42939 251.799L3.43937 251.08L3.30956 250.362L3.22967 249.653L3.02996 248.934L3.2097 248.215L3.10984 247.497L3.02996 246.788L3.36947 246.069L3.09986 245.35L3.01997 244.632L3.16976 243.913L3.21969 243.194L3.40942 242.476L3 241.757L3.2097 241.038L3.24964 240.319L3.00999 239.601L3.23966 238.882L3.03994 238.163L3.47932 237.435L3.38944 236.716L3.46933 235.997L3.30956 235.278L3.17974 234.56L3.39943 233.841L3.44936 233.112L3.29957 232.394L3.26961 231.675L3.01997 230.956L3.2796 230.237L3 229.519L3.1398 228.8L3.26961 228.081L3.04993 227.363L3.21969 226.644L3.30956 225.925L3.24964 225.216L3.38944 224.498L3.07989 223.779L3.2796 223.06L3.18973 222.342L3.4194 221.623L3.38944 220.904L3.19971 220.185L3.05991 219.467L3.2097 218.748L3.0699 218.039L3.42939 217.32L3.23966 216.602L3.2097 215.883L3.11983 215.164L3.3495 214.446L3.19971 213.727L3.37946 213.008L3.39943 212.289L3.3495 211.571L3.2097 210.842L3.23966 210.123L3.21969 209.405L3.47932 208.686L3.4893 207.967L3.32953 207.239L3.38944 206.52L3.08987 205.801L3.37946 205.072L3.14979 204.354L3.29957 203.635L3.39943 202.916L3.45934 202.198L3.03994 201.479L3.24964 200.76L3.05991 200.031L3.11983 199.313L3.22967 198.594L3.43937 197.875L3.37946 197.157L3.01997 196.438L3.37946 195.719L3.00999 195L3.35949 194.282L3.01997 193.563L3.39943 192.844L3.37946 192.116L3.32953 191.397L3.47932 190.678L3.2796 189.959L3.37946 189.241L3.18973 188.512L3.4194 187.793V187.065L3.01997 186.346L3.07989 185.627V184.908L3.46933 184.18L3.03994 183.461L3.02996 182.742L3.32953 182.024L3.2796 181.305L3.00999 180.586L3.35949 179.857L3.39943 179.139L3.4893 178.42L3.35949 177.701L3.4194 176.973L3.40942 176.254L3.24964 175.535L3.15977 174.806L3.45934 174.088L3.24964 173.369L3.29957 172.64L3.08987 171.922L3.04993 171.203L3.21969 170.484L3.14979 169.765L3.32953 169.047L3.1398 168.328L3.45934 167.609L3.2097 166.891L3.43937 166.172L3.42939 165.443L3.09986 164.724L3.25963 163.996L3.26961 163.277L3.16976 162.558L3.17974 161.84L3.31954 161.121L3.15977 160.402L3.2796 159.683L3.30956 158.965L3 158.246L3.36947 157.527L3.04993 156.809L3.47932 156.09L3.3495 155.361L3.4893 154.642L3.12981 153.924L3.18973 153.195L3.23966 152.476L3.36947 151.748L3.42939 151.029L3.05991 150.3L3.43937 149.581L3.11983 148.863L3.09986 148.144L3.31954 147.415L3.23966 146.697L3.4893 145.968L3.2796 145.249L3.24964 144.52L3.3495 143.802L3 143.073L3.33952 142.354L3.45934 141.626L3.44936 140.907L3.03994 140.178L3.1398 139.45L3.03994 138.731L3.18973 138.002L3.14979 137.283L3.17974 136.565L3.0699 135.846L3.30956 135.117L3.36947 134.389L3.11983 133.67L3 132.941L3.38944 132.222L3.42939 131.494L3.46933 130.765L3.21969 130.036L3.32953 129.308L3.36947 128.579L3.09986 127.86L3.14979 127.132L3.4194 126.403L3.14979 125.674L3.11983 124.935L3.37946 124.207L3.39943 123.488V122.759L3.15977 122.021L3.47932 121.322L3.3495 120.573L3.61912 119.875L3.7689 119.166L3.96862 118.467L4.00856 117.738L4.45792 117.109L4.48787 116.361L4.8174 115.712L4.86733 114.943L5.3067 114.344L5.56633 113.666L5.78602 112.957L6.22539 112.368L6.49501 111.679L6.90442 111.08L7.34379 110.491L7.78317 109.902L8.31241 109.403L8.85164 108.904L9.34094 108.375L9.68046 107.706L10.4294 107.417L10.6491 106.608L11.1883 106.119L11.7575 105.66L12.5563 105.51L13.0357 104.931L13.525 104.382L14.184 104.063L14.893 103.833L15.3524 103.184L16.1612 103.154L16.7903 102.815L17.2796 102.146L17.9486 101.857L18.7874 102.006L19.4165 101.637L20.1056 101.417L20.7846 101.158L21.4936 101.028L22.2325 101.018L22.8716 100.559L23.5806 100.379L24.3096 100.329L25.0385 100.359L25.7575 100.28L26.4765 100.05L27.2054 100.2L27.9244 100.04L28.6434 100.08L29.3524 100.04L30.0713 100.02L30.7903 100.14L31.4993 100.449L32.2183 100.15H32.9372L33.6462 100.349L34.3652 100.04L35.0842 100.319L35.7932 100.329L36.5121 100.27L37.2311 100.1L37.9401 100.23L38.6591 100.309L39.378 100.09L40.087 100.01L40.806 100.09L41.525 100.06L42.234 100.03L42.9529 100.429L43.6719 100.23L44.3809 100.07L45.0999 100.399L45.8188 100.2L46.5278 100.06L47.2468 100.07L47.9658 100.499L48.6748 100.02L49.3937 100.17L50.1127 100.25L50.8217 100.06H51.5407L52.2596 100.1L52.9786 100.329L53.6876 100.28L54.4066 100.05L55.1255 100.11L55.8445 100.22L56.5535 100.409L57.2725 100.15L57.9914 100.489L58.7104 100.419L59.4294 100.02L60.1384 100.379L60.8573 100.22L61.5763 100.479L62.2953 100.469L63.0143 100.06L63.7332 100.409L64.4422 100.16L65.1612 100.1L65.8802 100.15L66.5991 100.1L67.3181 100.16L68.0371 100.23L68.7561 100.16L69.475 100.06L70.194 100.499L70.913 100L71.632 100.299L72.3509 100.28L73.0699 100.419L73.7889 100.1L74.5078 100.369L75.2168 100.479L75.9358 100.439L76.6548 100.389L77.3738 100.04L78.0927 100.389L78.8117 100.369L79.5307 100.08L80.2496 100.27L80.9686 100.12L81.6776 100.419L82.3966 100.349L83.1156 100.17L83.8345 100.02L84.5535 100.329L85.2725 100.12L85.9815 100.27L86.7004 100.01L87.4194 100.02L88.1384 100.359L88.8574 100.489L89.5663 100.27L90.2853 100.14L91.0043 100.15H91.7233L92.4422 100.17L93.1512 100.25L93.8702 100.389L94.5892 100L95.3081 100.01L96.0171 100.289L96.7361 100.309L97.4551 100.479L98.174 100.21L98.893 100.16L99.602 100.25L100.321 100.14L101.04 100.28L101.759 100.07L102.468 100.349L103.187 100.1L103.906 100.05L104.625 100.449L105.344 100.08L106.053 100.399L106.772 100.439L107.491 100.12L108.21 100.25L108.929 100.489L109.638 100.429L110.357 100.479L111.076 100.03L111.795 100.429L112.514 100.419L113.233 100.429L113.942 100.479H114.66L115.379 100.05L116.098 100.27L116.817 100.17L117.536 100.02L118.255 100.289L118.974 100.299L119.693 100.489L120.412 100.09L121.131 100.379H121.85L122.569 100.05L123.288 100.06L124.007 100.349L124.726 100.17L125.445 100.389L126.164 100.11L126.883 100.19L127.602 100.25L128.311 100.429L129.03 100.459L129.749 100.05L130.468 100.449L131.187 100.26H131.906L132.625 100.289L133.344 100.489L134.063 100.27L134.782 100.419L135.501 100.03L136.21 100.299L136.929 100.22L137.648 100.23L138.367 100.369L139.086 100.1L139.805 100.299L140.524 100.25L141.233 100.359L141.952 100.24L142.67 100.14H143.389L144.108 100.12L144.827 100.11L145.536 100.399L146.255 100.02L146.974 100.459L147.693 100.359L148.402 100.04L149.121 100.469L149.83 100.01L150.549 100.18L151.268 100.08L151.977 100.24L152.696 100.23L153.415 100.309L154.134 100.23L154.843 100.409L155.562 100.24L156.281 100.13L157 100.15L157.719 100.419L158.438 100.349H159.157L159.876 100.06L160.595 100.21L161.314 100.349L162.033 100.399L162.752 100.14L163.471 100.07L164.19 100.24L164.909 100.26L165.628 100.399L166.347 100.299L167.056 100.11L167.775 100.479L168.494 100.349L169.213 100.19L169.932 100.289L170.641 100.19L171.359 100.309L172.078 100.09L172.797 100.01L173.506 100.2L174.225 100.1H174.944L175.653 100.18L176.372 100.02L177.091 100.399L177.8 100.469L178.519 100.479L179.228 100.06L179.947 100.18L180.666 100.329L181.375 100.459L182.094 100.09L182.803 100.329L183.522 100.429L184.231 100.27L184.95 100.429L185.669 100.489L186.378 100.339L187.097 100.27L187.806 100.369L188.525 100.1L189.234 100.479L189.953 100.07L190.672 100.2L191.381 100.339L192.1 100.24L192.809 100.299L193.528 100.08L194.247 100.379L194.956 100.13L195.675 100.22L196.394 100.359L197.103 100.479L197.822 100.399L198.541 100.359L199.26 100.28L199.969 100.16L200.688 100.21L201.407 100.25L202.126 100.06L202.845 100.26L203.563 100.08L204.282 100.21L205.001 100.359L205.72 100.06L206.439 100.17L207.158 100.459L207.877 100.06L208.596 100.04L209.315 100.409L210.034 100.07L210.763 100.439L211.482 100.24L212.201 100.309L212.92 100.27L213.639 100.12L214.358 100.26L215.077 100.319L215.796 100.25L216.515 100.299L217.234 100.1L217.953 100.479L218.662 100.26L219.381 100.359L220.1 100.15L220.819 100.469L221.538 100.04L222.257 100.13L222.976 100.12L223.685 100.14L224.404 100.359L225.123 100.04L225.842 100.24L226.561 100.07L227.28 100.28L227.999 100.349L228.708 100.439L229.427 100.429L230.146 100.28L230.864 100.27L231.583 100.449L232.302 100.1L233.021 100.06L233.74 100.2L234.459 100.489L235.178 100.18L235.897 100.03L236.616 100.18L237.345 100.399L238.064 100.08L238.783 100.2L239.502 100.479L240.231 100.489L240.95 100.25H241.669L242.388 100.469L243.107 100.459L243.826 100.14L244.545 100.299L245.264 100.489L245.983 100.03L246.702 100.489L247.421 100.15L248.14 100.479L248.859 100.379L249.578 100.16L250.297 100.11L251.016 100.12L251.745 100.319L252.464 100.459L253.183 100.14L253.902 100.16L254.621 100.25L255.34 100.23L256.058 100.469L256.777 100.25L257.506 100.19L258.225 100.18L258.944 100.21L259.673 100.439L260.392 100.499L261.111 100.13L261.83 100L262.549 100.12L263.278 100.27L263.997 100.309L264.716 100.389L265.435 100.09L266.154 100.16L266.873 100.21L267.592 100L268.321 100.12L269.04 100.309L269.759 100.25L270.478 100.489L271.207 100.01L271.926 100.369L272.645 100.23L273.374 100.459L274.093 100.11L274.812 100.24L275.531 100.22L276.24 100.02L276.959 100.429L277.678 100.439L278.397 100.09L279.126 100.289L279.845 100.03L280.563 100.359L281.292 100.16L282.011 100.23L282.73 100.07L283.449 100.18L284.168 100.08L284.887 100.309L285.606 100.06L286.325 100.289L287.044 100.23L287.763 100.409L288.482 100.23L289.201 100.459L289.92 100.469L290.639 100.309L291.358 100.16L292.087 100.07L292.806 100.13L293.535 100.329L294.254 100.339L294.983 100.309L295.702 100.11L296.421 100.369L297.14 100.1L297.859 100.399L298.588 100.409L299.307 100.419L300.036 100.379L300.755 100.399L301.484 100.469L302.203 100.349L302.932 100.359L303.65 100.18L304.369 100.19L305.098 100.05L305.827 100.339L306.546 100.04L307.275 100.02L307.994 100.07L308.713 100.02L309.432 100.1L310.151 100.339L310.88 100.1L311.609 100.01L312.328 100.449L313.057 100.19L313.776 100.18L314.505 100.09L315.234 100.07L315.953 100.06L316.682 100.15L317.411 100.299L318.14 100.23L318.869 100.16L319.598 100.2L320.327 100.21L321.056 100.19L321.785 100.479L322.514 100.399L323.223 100.489L323.942 100.559L324.7 100.309L325.399 100.529L326.088 100.769L326.877 100.539L327.566 100.789L328.255 101.038L328.964 101.218L329.683 101.358L330.372 101.597L331.051 101.877L331.71 102.196L332.22 102.815L332.959 102.945L333.558 103.364L334.247 103.614L334.856 104.023L335.475 104.402L335.924 105.021L336.563 105.36L337.123 105.82L337.702 106.269L338.061 106.928L338.68 107.337L339.369 107.666L339.789 108.275L340.328 108.764L340.488 109.563L341.177 109.952L341.636 110.521L342.096 111.08L342.395 111.759L342.575 112.498L342.944 113.107L343.194 113.785L343.743 114.334L343.823 115.083L344.053 115.772L344.572 116.351L344.482 117.139L345.021 117.728L345.151 118.447L345.231 119.176L345.471 119.865L345.621 120.573L345.73 121.302L345.571 122.041L345.491 122.769L345.92 123.478L345.95 124.207L345.551 124.925L345.631 125.644L345.74 126.353L345.95 127.072L345.621 127.79L345.511 128.509L345.78 129.228L345.531 129.937V130.655L345.8 131.374L346 132.093L345.81 132.811L345.99 133.53L345.89 134.239L345.74 134.958L345.71 135.676L345.98 136.395L345.96 137.114L345.521 137.832L345.571 138.541L345.97 139.26L345.611 139.979L345.95 140.697L345.541 141.416L345.97 142.135L345.99 142.843L345.75 143.562L345.94 144.281L345.82 145L345.571 145.718L345.97 146.437L345.85 147.156L345.75 147.875L346 148.593L345.64 149.312L345.84 150.031L346 150.739L345.571 151.458L345.551 152.177L345.68 152.896L345.9 153.614L345.85 154.333V155.052L345.621 155.77L346 156.499L345.89 157.218L345.74 157.937L345.75 158.655L345.92 159.374L345.71 160.093L345.79 160.811L345.85 161.53L345.95 162.249L345.83 162.968L345.84 163.686L345.541 164.405L345.97 165.124L345.66 165.842L345.94 166.561L345.65 167.28L345.7 167.999L345.92 168.707L345.65 169.426L345.84 170.145L345.571 170.863L345.93 171.582L345.99 172.301L345.541 173.02L345.511 173.738L345.591 174.457L346 175.176L345.99 175.894L345.511 176.603L345.611 177.322L345.86 178.041L345.94 178.759L345.73 179.478L345.521 180.197L345.64 180.916L345.611 181.624V182.343L345.98 183.062L345.91 183.77L345.67 184.489L345.65 185.208L345.9 185.927L345.92 186.635L345.82 187.354V188.073L345.87 188.791L345.551 189.51L345.531 190.229L345.8 190.938L345.92 191.656L345.76 192.375L345.72 193.094L345.571 193.812L345.64 194.541L345.66 195.26L345.95 195.979L345.94 196.697L345.69 197.416L345.511 198.135L345.72 198.853L345.511 199.572L345.65 200.291L345.78 201.01L345.67 201.728L345.9 202.437L345.79 203.156L345.511 203.875L345.581 204.593L345.96 205.312L345.81 206.021L345.65 206.739L345.551 207.458L345.83 208.177L345.87 208.886L345.571 209.604L345.9 210.323L345.78 211.032L345.75 211.75L345.521 212.469L345.87 213.178L345.561 213.897L345.8 214.615L345.65 215.324L345.83 216.043L345.511 216.761L345.99 217.47L345.85 218.189L345.71 218.898L345.501 219.616L345.88 220.335L345.521 221.044L345.631 221.763L345.78 222.481L345.66 223.19L345.71 223.909L345.96 224.617L345.68 225.336L345.65 226.055L345.511 226.764L345.99 227.482L345.571 228.201L345.88 228.92L345.621 229.629L345.77 230.347L345.68 231.066L345.72 231.785L345.77 232.493L345.8 233.212L345.84 233.931L345.581 234.65L345.601 235.368L345.69 236.087L345.86 236.806L345.68 237.524L345.77 238.243L345.99 238.962L345.85 239.681L345.96 240.399L345.561 241.118L345.75 241.837L345.91 242.555L345.561 243.274L345.541 244.003L345.99 244.722L345.89 245.44L345.99 246.159L345.561 246.878L345.73 247.596L345.68 248.315L345.89 249.034L345.84 249.763L345.7 250.481L345.77 251.19L346 251.909L345.77 252.627L345.88 253.346L345.89 254.065L345.78 254.784L345.601 255.502L345.531 256.221L345.67 256.94L345.76 257.658L345.87 258.377L345.79 259.096L345.551 259.805L345.561 260.523L345.621 261.242L345.551 261.961L345.75 262.68L345.69 263.398L345.67 264.117L345.73 264.836L345.79 265.554L345.531 266.273L345.67 266.992L345.591 267.711L345.621 268.429L345.631 269.148L345.581 269.867L345.66 270.595L345.97 271.314L345.74 272.033L345.83 272.752L345.551 273.48L345.561 274.199L345.64 274.918L345.86 275.646L345.7 276.365L345.571 277.084L345.8 277.802L345.68 278.521L345.67 279.24L345.65 279.959L345.86 280.677L345.75 281.396V282.115L345.92 282.843L345.85 283.562L345.8 284.281L345.88 285L345.591 285.718L345.97 286.437L345.86 287.156L345.611 287.875L345.75 288.593L345.98 289.322L345.591 290.041L345.74 290.759L345.96 291.488L345.7 292.207L345.84 292.925L345.7 293.654L345.581 294.373L345.77 295.092L345.84 295.81L345.92 296.529L345.68 297.258L345.88 297.976L345.98 298.695L345.79 299.414V300.133L345.91 300.861L345.72 301.58L345.76 302.299L345.86 303.017L345.561 303.746L345.98 304.465L345.9 305.184L345.71 305.912L345.85 306.631L345.99 307.35L345.86 308.078L345.93 308.797L345.71 309.516L345.621 310.235L345.601 310.953L345.84 311.672L345.98 312.391L345.551 313.109L345.77 313.828L345.581 314.557L345.97 315.276L345.76 315.994L345.571 316.723L345.96 317.442L345.99 318.16L345.85 318.879L345.71 319.598L345.531 320.317L345.97 321.035L345.561 321.754L345.521 322.473L345.591 323.191L345.64 323.91L345.531 324.629L345.9 325.358L345.581 326.076L345.71 326.805L345.611 327.524L345.83 328.252L345.64 328.971L345.72 329.69L345.92 330.419L345.89 331.137L345.541 331.856L345.97 332.575L345.8 333.303L345.68 334.022L345.551 334.751L346 335.479L345.89 336.198L345.511 336.927L345.88 337.646L345.84 338.364L345.561 339.093L345.75 339.822L345.571 340.54L345.76 341.269L345.89 341.988L345.81 342.717L345.74 343.435L345.79 344.154L345.86 344.883L345.98 345.601L345.93 346.33L345.89 347.049L345.96 347.778L345.68 348.506L345.82 349.235L345.78 349.954L345.561 350.682L345.91 351.411L345.86 352.14L345.551 352.868L345.94 353.597L345.89 354.326L345.91 355.055L345.94 355.793L345.561 356.512L345.541 357.231L345.75 357.969L345.72 358.698L345.241 359.367L345.421 360.125L345.401 360.864L345.161 361.563L344.922 362.252L344.892 363L344.462 363.619L344.292 364.328L343.773 364.897L343.553 365.586L343.244 366.245L343.104 366.983L342.825 367.662L342.126 368.091L341.916 368.81L341.676 369.529L341.267 370.128L340.608 370.537L340.188 371.126L339.829 371.775L339.08 372.074L338.74 372.753L338.361 373.402L337.702 373.761L337.243 374.34L336.573 374.67L335.964 375.059L335.525 375.698L334.886 376.057L334.227 376.366L333.508 376.566L332.999 377.155L332.34 377.465L331.551 377.475L330.882 377.744L330.272 378.163L329.653 378.563L328.934 378.702L328.265 379.012L327.566 379.231L326.787 379.072L326.098 379.271L325.399 379.511L324.69 379.651L323.961 379.621L323.242 379.83L322.524 379.93L321.785 379.81Z" stroke="#4C3220" stroke-width="4" stroke-miterlimit="10"/>
<path d="M141.75 96.4938L141.84 97.0724L141.71 97.6511L141.69 98.2297L141.16 98.7371L141.09 99.3078L140.93 99.8626L140.62 100.378L140.72 101.028L140.3 101.511L139.75 101.932L139.55 102.502L139.04 102.914L138.51 103.311L138.38 103.969L137.81 104.333L137.24 104.698L136.63 105.015L136.02 105.316L135.51 105.736L134.99 106.141L134.3 106.339L133.74 106.743L133.09 106.997L132.37 107.131L131.66 107.25L131.04 107.615L130.26 107.496L129.56 107.663L128.87 107.94L128.13 107.774L127.4 107.908L126.68 107.885L125.96 107.774L125.23 107.742L124.52 107.631L123.8 107.528L123.09 107.377L122.45 107.1L121.73 106.973L121.06 106.743L120.46 106.41L119.87 106.077L119.16 105.879L118.72 105.388L118.1 105.078L117.65 104.627L117.13 104.238L116.65 103.81L116.2 103.374L115.8 102.891L115.39 102.431L114.98 101.963L114.76 101.408L114.31 100.949L113.98 100.433L113.59 99.934L113.57 99.3316L113.35 98.7846L113.13 98.2297L113.04 97.6511L113.05 97.0724L113.21 96.4938L113 95.9151L113.43 95.3682L113.05 94.7499L113.66 94.2584L113.46 93.6322L113.6 93.0615L113.89 92.5225L114.3 92.0389L114.46 91.4603L115 91.0402L115.35 90.5408L115.72 90.0493L116.2 89.6213L116.73 89.2329L116.9 88.575L117.68 88.3847L118.01 87.8219L118.59 87.4652L119.21 87.1561L119.74 86.7518L120.58 86.7439L121.06 86.2366L121.84 86.2128L122.44 85.8799L123.18 85.8165L123.85 85.6024L124.54 85.436L125.22 85.1744L125.94 85.0634L126.68 85.1744L127.4 85.103L128.14 85L128.85 85.1982L129.56 85.3409L130.27 85.436L130.97 85.5707L131.67 85.7213L132.44 85.7134L133.05 86.0701L133.75 86.2366L134.39 86.5219L134.96 86.8866L135.43 87.3542L136.05 87.6475L136.54 88.0597L137.12 88.4006L137.9 88.5908L138.32 89.0664L138.85 89.4786L138.97 90.1127L139.41 90.5646L140.05 90.9292L140.33 91.4682L140.69 91.9755L140.84 92.5542L141.16 93.0774L140.99 93.7036L141.47 94.203L141.34 94.8054L141.42 95.3682L141.8 95.9151L141.75 96.4938Z" fill="#FBD0AE"/>
<path d="M141.75 96.4938L141.84 97.0724L141.71 97.6511L141.69 98.2297L141.16 98.7371L141.09 99.3078L140.93 99.8626L140.62 100.378L140.72 101.028L140.3 101.511L139.75 101.932L139.55 102.502L139.04 102.914L138.51 103.311L138.38 103.969L137.81 104.333L137.24 104.698L136.63 105.015L136.02 105.316L135.51 105.736L134.99 106.141L134.3 106.339L133.74 106.743L133.09 106.997L132.37 107.131L131.66 107.25L131.04 107.615L130.26 107.496L129.56 107.663L128.87 107.94L128.13 107.774L127.4 107.908L126.68 107.885L125.96 107.774L125.23 107.742L124.52 107.631L123.8 107.528L123.09 107.377L122.45 107.1L121.73 106.973L121.06 106.743L120.46 106.41L119.87 106.077L119.16 105.879L118.72 105.388L118.1 105.078L117.65 104.627L117.13 104.238L116.65 103.81L116.2 103.374L115.8 102.891L115.39 102.431L114.98 101.963L114.76 101.408L114.31 100.949L113.98 100.433L113.59 99.934L113.57 99.3316L113.35 98.7846L113.13 98.2297L113.04 97.6511L113.05 97.0724L113.21 96.4938L113 95.9151L113.43 95.3682L113.05 94.7499L113.66 94.2584L113.46 93.6322L113.6 93.0615L113.89 92.5225L114.3 92.0389L114.46 91.4603L115 91.0402L115.35 90.5408L115.72 90.0493L116.2 89.6213L116.73 89.2329L116.9 88.575L117.68 88.3847L118.01 87.8219L118.59 87.4652L119.21 87.1561L119.74 86.7518L120.58 86.7439L121.06 86.2366L121.84 86.2128L122.44 85.8799L123.18 85.8165L123.85 85.6024L124.54 85.436L125.22 85.1744L125.94 85.0634L126.68 85.1744L127.4 85.103L128.14 85L128.85 85.1982L129.56 85.3409L130.27 85.436L130.97 85.5707L131.67 85.7213L132.44 85.7134L133.05 86.0701L133.75 86.2366L134.39 86.5219L134.96 86.8866L135.43 87.3542L136.05 87.6475L136.54 88.0597L137.12 88.4006L137.9 88.5908L138.32 89.0664L138.85 89.4786L138.97 90.1127L139.41 90.5646L140.05 90.9292L140.33 91.4682L140.69 91.9755L140.84 92.5542L141.16 93.0774L140.99 93.7036L141.47 94.203L141.34 94.8054L141.42 95.3682L141.8 95.9151L141.75 96.4938Z" stroke="#4C3220" stroke-width="4" stroke-linejoin="round"/>
<path d="M235.75 96.4938L235.84 97.0724L235.71 97.6511L235.69 98.2297L235.16 98.7371L235.09 99.3078L234.93 99.8626L234.62 100.378L234.72 101.028L234.3 101.511L233.75 101.932L233.55 102.502L233.04 102.914L232.51 103.311L232.38 103.969L231.81 104.333L231.24 104.698L230.63 105.015L230.02 105.316L229.51 105.736L228.99 106.141L228.3 106.339L227.74 106.743L227.09 106.997L226.37 107.131L225.66 107.25L225.04 107.615L224.26 107.496L223.56 107.663L222.87 107.94L222.13 107.774L221.4 107.908L220.68 107.885L219.96 107.774L219.23 107.742L218.52 107.631L217.8 107.528L217.09 107.377L216.45 107.1L215.73 106.973L215.06 106.743L214.46 106.41L213.87 106.077L213.16 105.879L212.72 105.388L212.1 105.078L211.65 104.627L211.13 104.238L210.65 103.81L210.2 103.374L209.8 102.891L209.39 102.431L208.98 101.963L208.76 101.408L208.31 100.949L207.98 100.433L207.59 99.934L207.57 99.3316L207.35 98.7846L207.13 98.2297L207.04 97.6511L207.05 97.0724L207.21 96.4938L207 95.9151L207.43 95.3682L207.05 94.7499L207.66 94.2584L207.46 93.6322L207.6 93.0615L207.89 92.5225L208.3 92.0389L208.46 91.4603L209 91.0402L209.35 90.5408L209.72 90.0493L210.2 89.6213L210.73 89.2329L210.9 88.575L211.68 88.3847L212.01 87.8219L212.59 87.4652L213.21 87.1561L213.74 86.7518L214.58 86.7439L215.06 86.2366L215.84 86.2128L216.44 85.8799L217.18 85.8165L217.85 85.6024L218.54 85.436L219.22 85.1744L219.94 85.0634L220.68 85.1744L221.4 85.103L222.14 85L222.85 85.1982L223.56 85.3409L224.27 85.436L224.97 85.5707L225.67 85.7213L226.44 85.7134L227.05 86.0701L227.75 86.2366L228.39 86.5219L228.96 86.8866L229.43 87.3542L230.05 87.6475L230.54 88.0597L231.12 88.4006L231.9 88.5908L232.32 89.0664L232.85 89.4786L232.97 90.1127L233.41 90.5646L234.05 90.9292L234.33 91.4682L234.69 91.9755L234.84 92.5542L235.16 93.0774L234.99 93.7036L235.47 94.203L235.34 94.8054L235.42 95.3682L235.8 95.9151L235.75 96.4938Z" fill="#FBD0AE"/>
<path d="M235.75 96.4938L235.84 97.0724L235.71 97.6511L235.69 98.2297L235.16 98.7371L235.09 99.3078L234.93 99.8626L234.62 100.378L234.72 101.028L234.3 101.511L233.75 101.932L233.55 102.502L233.04 102.914L232.51 103.311L232.38 103.969L231.81 104.333L231.24 104.698L230.63 105.015L230.02 105.316L229.51 105.736L228.99 106.141L228.3 106.339L227.74 106.743L227.09 106.997L226.37 107.131L225.66 107.25L225.04 107.615L224.26 107.496L223.56 107.663L222.87 107.94L222.13 107.774L221.4 107.908L220.68 107.885L219.96 107.774L219.23 107.742L218.52 107.631L217.8 107.528L217.09 107.377L216.45 107.1L215.73 106.973L215.06 106.743L214.46 106.41L213.87 106.077L213.16 105.879L212.72 105.388L212.1 105.078L211.65 104.627L211.13 104.238L210.65 103.81L210.2 103.374L209.8 102.891L209.39 102.431L208.98 101.963L208.76 101.408L208.31 100.949L207.98 100.433L207.59 99.934L207.57 99.3316L207.35 98.7846L207.13 98.2297L207.04 97.6511L207.05 97.0724L207.21 96.4938L207 95.9151L207.43 95.3682L207.05 94.7499L207.66 94.2584L207.46 93.6322L207.6 93.0615L207.89 92.5225L208.3 92.0389L208.46 91.4603L209 91.0402L209.35 90.5408L209.72 90.0493L210.2 89.6213L210.73 89.2329L210.9 88.575L211.68 88.3847L212.01 87.8219L212.59 87.4652L213.21 87.1561L213.74 86.7518L214.58 86.7439L215.06 86.2366L215.84 86.2128L216.44 85.8799L217.18 85.8165L217.85 85.6024L218.54 85.436L219.22 85.1744L219.94 85.0634L220.68 85.1744L221.4 85.103L222.14 85L222.85 85.1982L223.56 85.3409L224.27 85.436L224.97 85.5707L225.67 85.7213L226.44 85.7134L227.05 86.0701L227.75 86.2366L228.39 86.5219L228.96 86.8866L229.43 87.3542L230.05 87.6475L230.54 88.0597L231.12 88.4006L231.9 88.5908L232.32 89.0664L232.85 89.4786L232.97 90.1127L233.41 90.5646L234.05 90.9292L234.33 91.4682L234.69 91.9755L234.84 92.5542L235.16 93.0774L234.99 93.7036L235.47 94.203L235.34 94.8054L235.42 95.3682L235.8 95.9151L235.75 96.4938Z" stroke="#4C3220" stroke-width="4" stroke-linejoin="round"/>
<g clip-path="url(#clip0_316_325)">
<path d="M174.113 0.944808L173.489 0.911063L172.865 1.04604H172.241L171.617 0.970117L170.994 0.860446L170.378 1.13041L169.755 1.09666H169.131L168.507 1.16415L167.874 1.06292L167.259 1.21477L166.635 1.17259L166.012 1.23164L165.396 1.40037L164.755 1.24851L164.14 1.34131L163.508 1.316L162.892 1.40037L162.295 1.66189L161.679 1.74625L161.047 1.67876L160.423 1.72938L159.799 1.78844L159.184 1.92342L158.56 1.99934L157.962 2.19338L157.373 2.40428L156.767 2.53083L156.16 2.6405L155.545 2.74174L154.982 3.0117L154.367 3.12137L153.752 3.23948L153.223 3.58536L152.625 3.75409L152.088 4.0578L151.655 4.47961L151.1 4.80019L150.884 5.4076L151.265 5.92221L151.551 6.47901L152.14 6.71522L152.677 7.01049L153.24 7.24671L153.821 7.44918L154.367 7.76976L154.973 7.91317L155.597 7.9891L156.212 8.09877L156.793 8.31812L157.391 8.48684L157.997 8.63026L158.638 8.58808L159.227 8.80742L159.843 8.89178L160.449 9.02676L161.082 8.99302L161.688 9.14487L162.312 9.21236L162.927 9.34734L163.542 9.41483L164.166 9.39796L164.781 9.45701L165.396 9.5245L166.012 9.59199L166.635 9.62574L167.251 9.76916L167.883 9.65948L168.498 9.78603L169.122 9.76916L169.746 9.71854L170.37 9.66792L170.985 9.78603L171.609 9.85352L172.241 9.81977L172.865 9.94632L173.498 9.90414L174.13 9.92101L174.754 9.81977L175.378 9.76916L176.001 9.87883L176.625 9.7101L177.249 9.73541L177.882 9.86195L178.497 9.65105L179.129 9.76916L179.744 9.65948L180.368 9.63418L181.001 9.69323L181.625 9.65105L182.24 9.48232L182.864 9.44858L183.496 9.48232L184.129 9.53294L184.752 9.47389L185.368 9.37265L185.983 9.26298L186.598 9.14487L187.23 9.16174L187.837 8.95927H188.469L189.093 8.90866L189.674 8.62182L190.306 8.58808L190.93 8.53746L191.528 8.37717L192.143 8.28437L192.741 8.12408L193.304 7.83725L193.867 7.57572L194.517 7.55885L195.106 7.36482L195.583 6.93457L196.146 6.69835L196.726 6.44526L197.125 5.97283L197.16 5.38229L197.099 4.80019L196.588 4.46274L196.103 4.11685L195.609 3.75409L195.046 3.49256L194.43 3.37446L193.867 3.1298L193.321 2.79235L192.663 2.83453L192.074 2.63206L191.485 2.44647L190.887 2.29461L190.263 2.2693L189.682 1.99091H189.05L188.452 1.77156L187.802 1.88124L187.187 1.78L186.589 1.57753L185.957 1.61127L185.342 1.51848L184.744 1.316L184.103 1.45942L183.487 1.38349L182.881 1.23164L182.257 1.17259H181.633L181.009 1.1051L180.386 1.13884L179.77 0.953245L179.138 1.13041L178.514 1.05448L177.89 0.995426L177.266 1.07135L176.643 0.953245L176.019 0.852009L175.386 0.970117L174.754 0.801392L174.121 0.902627L174.113 0.944808ZM174.113 7.27202L173.472 7.23827L172.83 7.36482H172.189L171.548 7.24671L170.916 7.10329L170.266 7.32264L169.625 7.22984L168.983 7.17922L168.342 7.16235L167.718 6.97675L167.069 7.04424L166.445 6.90082L165.812 6.8502L165.162 6.89239L164.565 6.59712L163.932 6.52962L163.334 6.32715L162.719 6.20061H162.052L161.454 5.94752L161.168 5.4076L161.549 5.01953L162.121 4.80019L162.711 4.58084L163.326 4.46274L163.932 4.26027L164.539 4.0578L165.171 3.965L165.804 3.91438L166.445 3.88907L167.069 3.72034L167.71 3.73722L168.351 3.77096L168.983 3.5938L169.625 3.64442L170.257 3.60224L170.89 3.48413L171.539 3.64442H172.172L172.813 3.43351L173.454 3.60224L174.104 3.45882H174.745H175.386H176.027L176.669 3.60224L177.31 3.58536L177.951 3.51787H178.592L179.225 3.62755L179.857 3.71191L180.49 3.78783L181.139 3.6866L181.763 3.8722L182.396 3.93125L183.02 4.0578L183.669 4.03249L184.285 4.21808L184.908 4.33619L185.506 4.55554L186.104 4.74113L186.711 4.92673L187.1 5.39073L186.702 5.83785L186.113 6.06563L185.506 6.25966L184.874 6.31028L184.285 6.57181L183.643 6.58868L183.02 6.72366L182.396 6.87551L181.772 7.01893L181.131 6.97675H180.49L179.857 7.07798L179.207 7.00206L178.575 7.08642L177.942 7.10329L177.31 7.22984L176.669 7.29733L176.027 7.19609L175.386 7.36482L174.745 7.33107L174.095 7.26358L174.113 7.27202Z" fill="#FFF0B0"/>
<path d="M174.113 0.944808L173.489 0.911063L172.865 1.04604H172.241L171.617 0.970117L170.994 0.860446L170.378 1.13041L169.755 1.09666H169.131L168.507 1.16415L167.874 1.06292L167.259 1.21477L166.635 1.17259L166.012 1.23164L165.396 1.40037L164.755 1.24851L164.14 1.34131L163.508 1.316L162.892 1.40037L162.295 1.66189L161.679 1.74625L161.047 1.67876L160.423 1.72938L159.799 1.78844L159.184 1.92342L158.56 1.99934L157.962 2.19338L157.373 2.40428L156.767 2.53083L156.16 2.6405L155.545 2.74174L154.982 3.0117L154.367 3.12137L153.752 3.23948L153.223 3.58536L152.625 3.75409L152.088 4.0578L151.655 4.47961L151.1 4.80019L150.884 5.4076L151.265 5.92221L151.551 6.47901L152.14 6.71522L152.677 7.01049L153.24 7.24671L153.821 7.44918L154.367 7.76976L154.973 7.91317L155.597 7.9891L156.212 8.09877L156.793 8.31812L157.391 8.48684L157.997 8.63026L158.638 8.58808L159.227 8.80742L159.843 8.89178L160.449 9.02676L161.082 8.99302L161.688 9.14487L162.312 9.21236L162.927 9.34734L163.542 9.41483L164.166 9.39796L164.781 9.45701L165.396 9.5245L166.012 9.59199L166.635 9.62574L167.251 9.76916L167.883 9.65948L168.498 9.78603L169.122 9.76916L169.746 9.71854L170.37 9.66792L170.985 9.78603L171.609 9.85352L172.241 9.81977L172.865 9.94632L173.498 9.90414L174.13 9.92101L174.754 9.81977L175.378 9.76916L176.001 9.87883L176.625 9.7101L177.249 9.73541L177.882 9.86195L178.497 9.65105L179.129 9.76916L179.744 9.65948L180.368 9.63418L181.001 9.69323L181.625 9.65105L182.24 9.48232L182.864 9.44858L183.496 9.48232L184.129 9.53294L184.752 9.47389L185.368 9.37265L185.983 9.26298L186.598 9.14487L187.23 9.16174L187.837 8.95927H188.469L189.093 8.90866L189.674 8.62182L190.306 8.58808L190.93 8.53746L191.528 8.37717L192.143 8.28437L192.741 8.12408L193.304 7.83725L193.867 7.57572L194.517 7.55885L195.106 7.36482L195.583 6.93457L196.146 6.69835L196.726 6.44526L197.125 5.97283L197.16 5.38229L197.099 4.80019L196.588 4.46274L196.103 4.11685L195.609 3.75409L195.046 3.49256L194.43 3.37446L193.867 3.1298L193.321 2.79235L192.663 2.83453L192.074 2.63206L191.485 2.44647L190.887 2.29461L190.263 2.2693L189.682 1.99091H189.05L188.452 1.77156L187.802 1.88124L187.187 1.78L186.589 1.57753L185.957 1.61127L185.342 1.51848L184.744 1.316L184.103 1.45942L183.487 1.38349L182.881 1.23164L182.257 1.17259H181.633L181.009 1.1051L180.386 1.13884L179.77 0.953245L179.138 1.13041L178.514 1.05448L177.89 0.995426L177.266 1.07135L176.643 0.953245L176.019 0.852009L175.386 0.970117L174.754 0.801392L174.121 0.902627L174.113 0.944808ZM174.113 7.27202L173.472 7.23827L172.83 7.36482H172.189L171.548 7.24671L170.916 7.10329L170.266 7.32264L169.625 7.22984L168.983 7.17922L168.342 7.16235L167.718 6.97675L167.069 7.04424L166.445 6.90082L165.812 6.8502L165.162 6.89239L164.565 6.59712L163.932 6.52962L163.334 6.32715L162.719 6.20061H162.052L161.454 5.94752L161.168 5.4076L161.549 5.01953L162.121 4.80019L162.711 4.58084L163.326 4.46274L163.932 4.26027L164.539 4.0578L165.171 3.965L165.804 3.91438L166.445 3.88907L167.069 3.72034L167.71 3.73722L168.351 3.77096L168.983 3.5938L169.625 3.64442L170.257 3.60224L170.89 3.48413L171.539 3.64442H172.172L172.813 3.43351L173.454 3.60224L174.104 3.45882H174.745H175.386H176.027L176.669 3.60224L177.31 3.58536L177.951 3.51787H178.592L179.225 3.62755L179.857 3.71191L180.49 3.78783L181.139 3.6866L181.763 3.8722L182.396 3.93125L183.02 4.0578L183.669 4.03249L184.285 4.21808L184.908 4.33619L185.506 4.55554L186.104 4.74113L186.711 4.92673L187.1 5.39073L186.702 5.83785L186.113 6.06563L185.506 6.25966L184.874 6.31028L184.285 6.57181L183.643 6.58868L183.02 6.72366L182.396 6.87551L181.772 7.01893L181.131 6.97675H180.49L179.857 7.07798L179.207 7.00206L178.575 7.08642L177.942 7.10329L177.31 7.22984L176.669 7.29733L176.027 7.19609L175.386 7.36482L174.745 7.33107L174.095 7.26358L174.113 7.27202Z" stroke="#4C3220" stroke-width="2" stroke-linejoin="round"/>
</g>
<defs>
<clipPath id="clip0_316_325">
<rect width="48" height="10.79" fill="white" transform="translate(150)"/>
</clipPath>
</defs>
</svg>
