<svg width="172" height="217" viewBox="0 0 172 217" fill="none" xmlns="http://www.w3.org/2000/svg">
<path d="M132.571 162.842L132.513 162.911L133.124 163.568L133.482 164.329L133.77 165.079L134.024 165.874L134.128 166.739L134.808 167.327L135.027 168.157L135.189 168.987L135.604 169.725L136.354 170.267L136.342 171.212L136.815 171.892L136.573 172.826L136.988 173.668L138.026 174.071L137.899 175.028L138.349 175.801L138.119 176.758L138.638 177.426L138.649 178.303L139.387 178.925L139.549 179.744L139.976 180.482L139.63 181.45L140.46 182.073L140.449 182.96L140.656 183.744L140.91 184.551L141.406 185.243L141.637 186.096L141.141 187.099L142.26 187.63L142.225 188.54L142.04 189.417L142.421 190.201L142.502 191.042L142.456 191.849L143.125 192.61L142.813 193.544L143.505 194.305L143.09 195.146L143.125 196.034L142.871 196.899L143.263 197.683L143.24 198.513L143.148 199.355L142.986 200.185L143.425 201.049L143.125 201.914L142.721 202.652L142.975 203.528L142.709 204.37L142.329 205.131L142.271 205.961L141.579 206.618L141.268 207.413L140.61 207.944L140.16 208.716L139.514 209.235L138.695 209.569L138.165 210.238L137.357 210.515L136.504 210.549L135.685 210.699L135.05 211.368L134.185 211.518L133.366 211.552L132.571 212.037L131.659 211.46L130.99 212.509L130.091 211.979L129.341 212.371L128.441 212.256L127.657 212.233L126.849 212.763H126.019L125.165 212.452L124.381 212.924L123.539 212.89L122.743 213.097L121.855 212.821L121.14 213.455L120.263 213.489L119.421 212.913L118.648 213.558L117.806 213.409L116.976 213.547L116.168 213.362L115.28 213.247L114.531 214.077L113.7 213.478L112.87 213.547L112.028 213.489L111.232 213.628L110.39 213.881L109.617 213.939L108.729 214.273L107.956 213.328L107.091 213.916L106.283 213.581L105.488 213.916L104.599 213.466L103.792 213.916L102.996 213.581L102.212 213.259L101.37 213.328L100.574 212.993L99.7664 212.97L98.936 212.821L98.0939 213.086L97.2288 213.074L96.456 212.832L95.6948 212.509L95.0027 212.037L94.2183 211.818L93.6301 211.276L92.5343 211.31L92.1191 210.503L91.4039 209.938L91.1617 209.051L90.6888 208.416L90.8618 207.402L90.5504 206.653L90.1467 205.892L89.3738 205.327L89.1547 204.508L88.9125 203.701L88.5664 202.929L88.578 202.064L88.5203 201.222L88.2319 200.392L87.7936 199.7L87.7475 198.859L86.9631 198.259L87.4476 198.282L86.9977 198.94L86.6978 199.758L86.4672 200.438L85.9712 201.13L85.8328 201.995L85.9827 202.871L85.6713 203.632L85.0945 204.358L85.3022 205.223L84.9331 205.972L84.7831 206.779L84.4025 207.506L84.1833 208.336L83.6066 208.958L83.3413 209.742L82.5224 210.192L82.1302 210.895L81.5765 211.46L80.8268 211.748L79.9502 211.76L79.4311 212.694L78.5199 212.475L77.7009 212.532L76.9397 212.901L76.0746 212.947L75.3364 213.282L74.4943 213.051L73.7215 213.801L72.868 213.524L72.1067 213.628L71.2416 213.824L70.4227 213.247L69.5691 213.547L68.7502 214.008L67.9658 213.201L67.1815 214.089L66.3279 213.777L65.509 213.512L64.69 213.685L63.8711 213.777L63.0521 213.409L62.2216 213.847L61.4027 213.616L60.5837 213.95L59.7648 213.616L58.8997 213.697L58.1154 213.305L57.2964 213.893L56.489 213.213L55.647 213.42L54.828 213.443L53.986 213.466L53.2824 212.763L52.4058 212.728L51.5407 213.189L50.6987 213.12L49.9259 212.636L49.1069 212.405L48.3341 212.325L47.5151 212.302L46.6962 211.967L45.8196 212.244L45.0122 212.094L44.2047 211.864L43.3512 211.714L42.5668 211.529L41.6671 211.864L40.9174 211.322L40.0869 211.091L39.1872 211.299L38.4606 210.884L37.8031 210.261L37.0187 209.996L36.0152 210.157L35.5077 209.396L34.7234 209.062L34.0198 208.589L33.2816 208.105L32.8202 207.379L32.3703 206.641L32.2781 205.73L31.4937 205.211L31.6552 204.243L31.3438 203.482L30.8016 202.733L30.8939 201.891L30.8132 201.049L30.075 200.265L31.0554 199.447L30.8132 198.559L30.8363 197.694L30.5825 196.887L30.917 196.138L30.767 195.25L30.9747 194.409L30.9977 193.602L31.1823 192.795L31.0323 191.861L31.5053 191.157L31.4476 190.27L31.8859 189.532L32.2665 188.748L32.4511 187.952L32.2089 187.019L32.8202 186.315L33.4546 185.647L33.2354 184.69L33.5353 183.917L33.8122 183.122L33.9967 182.28L34.3543 181.577L34.5158 180.701L35.0463 179.997L35.8422 179.467L35.8076 178.533L36.3036 177.818L36.5228 177L36.3959 176.043L36.7073 175.236L37.2956 174.613L37.7454 173.933L38.5644 173.437L38.4721 172.377L39.0719 171.743L39.7178 171.131L40.11 170.348L40.4676 169.621L40.5944 168.756L41.4941 168.238L40.9982 167.119L41.4134 166.278L42.5207 165.99L42.7629 165.067L42.9705 164.226L43.1897 163.395L43.6857 162.577L42.8898 163.096L42.4746 163.834L41.8863 164.41L41.6556 165.367L40.7213 165.598L40.1561 166.243L39.5448 166.75L38.8066 167.142L38.2645 167.777L37.3648 168.053L37.0187 168.872L36.1421 169.102L35.7153 169.886L34.9195 170.209L34.4004 170.982L33.3392 170.797L32.924 171.673L31.9782 171.719L31.3899 172.354L30.9747 173.31L30.0173 173.322L29.3252 173.749L28.5755 174.198L27.7335 174.371L26.8684 174.36L26.061 174.544L25.4035 175.132L24.6076 175.397L23.7541 175.443L23.0274 175.916L22.1392 175.732L21.401 176.308L20.5475 176.25L19.717 176.135L18.875 176.02L18.1022 175.951L17.2255 176.308L16.3835 175.928L15.4608 176.262L14.7687 175.639L14.019 175.386L13.2 175.224L12.531 174.648L11.862 174.187L11.1123 173.887L10.4433 173.38L9.76272 172.815L8.70155 172.942L8.36704 172.054L7.6173 171.627L7.20206 170.878L6.47539 170.417L5.67951 170.002L5.35654 169.183L4.80288 168.537L4.32997 167.857L4.21462 166.946L3.96087 166.174L3.59176 165.459L3.32647 164.664L2.56519 164.053L2.84202 163.142L2.69207 162.335L2 161.608L2.0346 160.721L2.62286 159.914L2.41524 159.037L2.24222 158.23L2.54212 157.493L3.01504 156.709L2.59979 155.763L3.18805 155.048L3.10731 154.172L3.66097 153.504L4.06468 152.754L3.9724 151.832L4.32997 151.082L4.81442 150.379L5.2758 149.699L5.9102 149.111L6.16396 148.292L6.30237 147.428L7.06365 146.967L7.30587 146.056L8.15942 145.606L8.13635 144.649L8.85149 144.13L9.04758 143.174L10.201 143.127L10.2356 142.101L10.6393 141.271L11.3545 140.845L11.6313 140.003L12.4618 139.576L13.4307 139.357L13.8575 138.596L14.0536 137.674L14.6072 136.994L15.6799 136.948L16.0029 136.072L16.3489 135.253L17.2255 134.953L17.6523 134.169L18.4713 133.835L19.048 133.224L19.4286 132.394L20.1784 131.99L20.9858 131.656L21.574 131.056L22.2546 130.561L22.9005 130.053L23.385 129.327L24.0309 128.866L24.4923 128.059L25.3343 127.702L26.3724 127.678L26.6031 126.71L26.9953 125.857L27.918 125.684L28.6101 125.246L29.1061 124.554L29.8789 124.07L30.6286 123.816L31.2169 123.24L32.0243 122.894L32.6241 122.317L33.6622 122.306L33.5123 121.776L32.9701 121.211L32.1512 120.934L31.6091 120.219L30.8593 119.827L30.3287 119.182L29.8789 118.432L29.0599 118.086L28.2295 117.752L27.9757 116.772L27.3067 116.276L26.8107 115.596L26.3032 114.927L25.3689 114.616V113.578L24.5499 113.152L24.4692 112.16L23.3273 112.034L22.9467 111.203L22.6583 110.419L22.047 109.797L21.401 109.29L20.905 108.529L20.732 107.664L20.04 107.099L19.8554 106.269L19.6939 105.381L18.7366 104.932L19.0711 103.836L18.3675 103.237L18.4251 102.315L17.883 101.623L17.7446 100.793L17.5716 99.9741L16.9256 99.3054L17.3063 98.337L16.545 97.6683L16.4643 96.8267L16.545 95.9735L16.5796 95.1089L16.4758 94.2211L15.8068 93.5179L15.9452 92.6532L15.9106 91.8231L15.8414 90.9815L15.8991 90.1283L16.4527 89.3789L16.8103 88.5488L16.4873 87.638L16.1413 86.7964L16.6604 86.0701L16.7642 85.1939L16.868 84.3753L17.0064 83.5337L17.2371 82.7267L16.9833 81.8274L17.6754 81.1356L17.2601 80.1787L17.6869 79.3948L17.8253 78.5762L18.5751 77.9536L18.5174 77.0544L19.0019 76.3396L19.567 75.6939L19.8669 74.8638L19.5901 73.8608L20.3629 73.2844L21.0089 72.6733L21.0435 71.7741L21.2626 70.9324L21.7932 70.2522L22.0008 69.4337L22.6583 68.8226L22.8659 68.0041L23.731 67.5544L23.7771 66.5399L24.573 66.0672L24.7922 65.2371L25.3112 64.603L25.9456 64.0265L26.3032 63.2541L26.73 62.5162L27.249 61.8706L27.8604 61.3057L28.3333 60.6139L28.7024 59.8415L29.3368 59.3342L29.1984 59.3457L29.7405 58.6309L29.6136 57.7778L29.5213 56.9246L29.8212 56.1176L30.3287 55.3567L30.0634 54.4228L30.4441 53.6734L30.6056 52.8549L30.5594 51.9556L30.8132 51.1601L31.0669 50.3185L31.4706 49.6498L31.4245 48.7851L31.7359 47.9089L32.4626 47.3094L32.6241 46.4678L33.0047 45.753L33.4546 44.9921L33.6622 44.1389L33.8006 43.3319L33.8583 42.4557L34.6888 41.8907L34.585 40.9453L35.3462 40.392L35.5885 39.5388L35.6 38.628L35.8999 37.8325L36.3497 37.1177L36.6612 36.2876L37.7223 35.9879L37.9876 35.1693L38.6105 34.5813L39.118 33.878L39.1872 32.8404L40.0177 32.4715L40.8828 32.1833L41.2519 31.3762L42.0132 30.9497L42.6822 30.5116L43.2589 29.7276L44.0663 29.6008L44.0548 29.5085L44.8968 29.4278L45.7042 29.5777L46.5578 29.497L47.3998 29.1511L48.1726 29.6238L49.0954 29.2895L49.8566 29.7852L50.5487 30.1772L51.3331 30.477L52.2328 30.5692L52.6941 31.3762L53.3055 31.9412L54.2052 32.2063L54.4589 33.1171L55.3586 33.3477L55.9469 33.9933L56.2814 34.7888L56.8004 35.3999L57.5848 35.8726L57.7462 36.7949L58.346 37.3368L58.7151 38.1092L59.4187 38.628L59.8455 39.3774L60.0416 40.2075L60.2377 41.0261L60.7914 41.6832L60.9182 42.5364L61.2758 43.2742L61.6449 44.0121L61.7718 44.8422L62.3485 45.5224L63.1213 45.2457L63.9172 45.0843L64.7246 44.9344L65.509 44.6346L66.351 44.5424L67.0546 44.0351L67.8043 43.6777L68.5079 43.1589L69.3961 43.1935L70.215 43.0091L71.0455 42.9168L71.8068 42.6862L72.6373 42.594L73.4908 42.5825L74.3098 42.3288L75.1864 42.7208L75.9246 41.9368L76.8358 42.5594L77.5856 41.9023L78.4391 41.7178L79.2581 41.9484L80.077 42.0521L80.8614 41.7639L81.7265 41.8792L82.5224 41.7985L83.3528 41.9368L84.1949 42.0983L85.0253 42.0521L85.8212 41.5103L86.6748 41.9138L87.4822 41.5103L88.3473 41.4642L89.1432 41.81L89.9852 41.5103L90.758 42.2827L91.6461 41.81L92.4074 42.4095L93.261 42.1444L94.0915 42.3404L94.8989 42.2943L95.7178 42.3634L96.5714 42.3288L97.448 42.2251L98.1631 42.8938L99.0052 42.7785L99.8818 42.5594L100.678 43.0321L101.427 43.5048L102.269 43.5163L103.065 43.7008L103.85 44.0351L104.795 43.6316L105.488 44.3234L106.376 44.0121L107.264 44.2311L107.921 44.9113L108.694 45.3725L109.525 45.4532L110.459 45.7069L111.024 44.969L111.07 44.0236L111.359 43.2512L111.624 42.4326L112.477 42.006L113.077 41.4065L113.112 40.415L113.735 39.827L114.254 39.2045L114.796 38.605L115.096 37.821L115.961 37.429L116.215 36.5528L117.057 36.1954L117.599 35.5728L117.76 34.6274L118.533 34.1893L118.845 33.3592L119.663 33.0364L120.482 32.7136L121.036 32.0564L121.613 31.4569L122.386 31.1226L123.124 30.7537L123.804 30.281L124.381 29.5431L125.327 29.6238L126.123 29.3471L127.011 29.7391L127.83 29.2318L128.66 29.4509L128.591 29.7737L129.329 30.0389L130.114 30.3617L130.84 30.7767L131.394 31.3993L132.017 31.9527L132.455 32.6905L133.413 32.9442L133.736 33.7397L134.716 33.9472L134.774 35.0425L135.639 35.4345L135.719 36.3453L136.215 37.0601L137.127 37.4175L137.034 38.4897L138.003 38.9278L137.83 39.9308L138.476 40.5649L138.661 41.395L138.822 42.2481L139.48 42.8476L139.826 43.6201L139.768 44.5655L140.575 45.1304L140.841 45.9259L141.21 46.6868L141.302 47.54L141.787 48.2778L141.648 49.1886L142.409 49.8227L142.098 50.7796L142.756 51.4253L143.055 52.2323L143.171 53.097L143.378 53.8925L143.667 54.688L143.644 55.5527L143.886 56.3482L143.932 57.2013L144.278 58.0429V57.8585L144.924 58.4695L145.639 58.9192L145.651 59.9683L146.124 60.6946L147.162 60.8791L147.254 61.8821L147.75 62.5047L147.981 63.3463L148.511 64.1072L149.561 64.2802L149.722 65.191L150.08 65.9288L150.495 66.609L151.303 67.1394V68.0848L151.672 68.8111L152.248 69.4337L152.606 70.183L153.367 70.6903L153.794 71.4282L153.852 72.3159L153.702 73.2959L154.844 73.6533L155.028 74.5064L155.443 75.2674L155.536 76.132L155.616 76.9737L156.182 77.6654L156.032 78.5647L156.585 79.2564L156.897 80.1096L156.493 81.0319L157.058 81.7352L157.185 82.4961L157.07 83.3492L157.923 84.0294L158.177 84.848L157.97 85.7242L157.623 86.5889L157.716 87.4766L157.981 88.2606L158.016 89.0331L158.062 89.8747L158.327 90.7278L158.269 91.5349L158.316 92.3765L158.004 93.195L158.489 94.0136L158.223 94.9013L157.531 95.6161L158.027 96.5269L157.508 97.2879L157.347 98.1064L157.612 99.0287L156.655 99.6283L156.608 100.493L156.793 101.427L156.066 102.015L156.043 102.937L155.605 103.617L155.409 104.424L155.121 105.197L154.544 105.842L153.886 106.453L153.967 107.41L153.644 108.24L152.964 108.782L152.514 109.497L151.81 110.016L151.799 111.03L150.933 111.434L150.426 112.091L149.803 112.668L149.757 113.671L148.892 114.028L148.442 114.743L147.715 115.227L147.231 115.884L146.643 116.495L145.985 117.003L145.478 117.671L144.809 118.179L144.243 118.79L143.367 118.997L142.94 119.85L142.075 120.069L141.291 120.842L142.225 121.499L143.102 121.891L143.632 122.548L144.29 123.09L145.097 123.39L145.408 124.3L146.17 124.773L146.873 125.234L147.727 125.465L148.465 125.891L148.834 126.756L149.803 126.802L150.472 127.321L150.945 128.059L151.776 128.532L152.179 129.293L153.148 129.373L153.725 130.03L154.186 130.78L154.832 131.299L155.616 131.714L156.274 132.209L156.724 132.97L157.197 133.697L157.739 134.273L158.339 134.919L159.135 135.299L159.7 135.933L160.115 136.683L160.865 137.144L161.418 137.812L161.822 138.539L162.849 138.758L163.091 139.657L163.633 140.326L164.187 140.937L164.694 141.652L165.294 142.17L165.905 142.793L166.92 143.024L166.874 144.142L167.439 144.707L168.166 145.26L168.431 145.987L168.57 146.84L168.904 147.543L169.504 148.246L169.25 149.123L169.988 149.791L170 150.644L169.873 151.474V152.305L169.792 153.158L169.689 153.942L168.997 154.68L169.631 155.636L169.043 156.363L168.754 157.112L168.512 157.908V158.818L167.612 159.28L167.497 160.167L166.863 160.79L166.943 161.839L166.182 162.323L165.432 162.738L165.052 163.476L164.683 164.237L163.898 164.675L163.656 165.644L162.975 166.093L162.226 166.508L161.603 167.05L160.888 167.523L160.219 168.007L159.434 168.353L158.604 168.618L158.119 169.448L157.324 169.713L156.505 169.956L155.79 170.509L154.89 170.463L154.036 170.301L153.229 170.682L152.306 170.543L151.545 171.155L150.749 170.578L149.826 170.843L149.076 170.29L148.234 169.99L147.346 170.52L146.689 169.829L145.812 169.713L144.912 169.956L144.163 169.356L143.401 169.148L142.525 168.941L141.914 168.307L141.06 168.226L140.218 167.996L139.295 167.869L138.788 167.108L137.888 166.969L137.334 166.289L136.677 165.736L135.985 165.275L134.993 165.309L134.405 164.606L134.001 163.776L133.309 163.315L132.951 162.588" fill="#FBD0AE"/>
<path d="M132.571 162.842L132.513 162.911L133.124 163.568L133.482 164.329L133.77 165.079L134.024 165.874L134.128 166.739L134.808 167.327L135.027 168.157L135.189 168.987L135.604 169.725L136.354 170.267L136.342 171.212L136.815 171.892L136.573 172.826L136.988 173.668L138.026 174.071L137.899 175.028L138.349 175.801L138.119 176.758L138.638 177.426L138.649 178.303L139.387 178.925L139.549 179.744L139.976 180.482L139.63 181.45L140.46 182.073L140.449 182.96L140.656 183.744L140.91 184.551L141.406 185.243L141.637 186.096L141.141 187.099L142.26 187.63L142.225 188.54L142.04 189.417L142.421 190.201L142.502 191.042L142.456 191.849L143.125 192.61L142.813 193.544L143.505 194.305L143.09 195.146L143.125 196.034L142.871 196.899L143.263 197.683L143.24 198.513L143.148 199.355L142.986 200.185L143.425 201.049L143.125 201.914L142.721 202.652L142.975 203.528L142.709 204.37L142.329 205.131L142.271 205.961L141.579 206.618L141.268 207.413L140.61 207.944L140.16 208.716L139.514 209.235L138.695 209.569L138.165 210.238L137.357 210.515L136.504 210.549L135.685 210.699L135.05 211.368L134.185 211.518L133.366 211.552L132.571 212.037L131.659 211.46L130.99 212.509L130.091 211.979L129.341 212.371L128.441 212.256L127.657 212.233L126.849 212.763H126.019L125.165 212.452L124.381 212.924L123.539 212.89L122.743 213.097L121.855 212.821L121.14 213.455L120.263 213.489L119.421 212.913L118.648 213.558L117.806 213.409L116.976 213.547L116.168 213.362L115.28 213.247L114.531 214.077L113.7 213.478L112.87 213.547L112.028 213.489L111.232 213.628L110.39 213.881L109.617 213.939L108.729 214.273L107.956 213.328L107.091 213.916L106.283 213.581L105.488 213.916L104.599 213.466L103.792 213.916L102.996 213.581L102.212 213.259L101.37 213.328L100.574 212.993L99.7664 212.97L98.936 212.821L98.0939 213.086L97.2288 213.074L96.456 212.832L95.6948 212.509L95.0027 212.037L94.2183 211.818L93.6301 211.276L92.5343 211.31L92.1191 210.503L91.4039 209.938L91.1617 209.051L90.6888 208.416L90.8618 207.402L90.5504 206.653L90.1467 205.892L89.3738 205.327L89.1547 204.508L88.9125 203.701L88.5664 202.929L88.578 202.064L88.5203 201.222L88.2319 200.392L87.7936 199.7L87.7475 198.859L86.9631 198.259L87.4476 198.282L86.9977 198.94L86.6978 199.758L86.4672 200.438L85.9712 201.13L85.8328 201.995L85.9827 202.871L85.6713 203.632L85.0945 204.358L85.3022 205.223L84.9331 205.972L84.7831 206.779L84.4025 207.506L84.1833 208.336L83.6066 208.958L83.3413 209.742L82.5224 210.192L82.1302 210.895L81.5765 211.46L80.8268 211.748L79.9502 211.76L79.4311 212.694L78.5199 212.475L77.7009 212.532L76.9397 212.901L76.0746 212.947L75.3364 213.282L74.4943 213.051L73.7215 213.801L72.868 213.524L72.1067 213.628L71.2416 213.824L70.4227 213.247L69.5691 213.547L68.7502 214.008L67.9658 213.201L67.1815 214.089L66.3279 213.777L65.509 213.512L64.69 213.685L63.8711 213.777L63.0521 213.409L62.2216 213.847L61.4027 213.616L60.5837 213.95L59.7648 213.616L58.8997 213.697L58.1154 213.305L57.2964 213.893L56.489 213.213L55.647 213.42L54.828 213.443L53.986 213.466L53.2824 212.763L52.4058 212.728L51.5407 213.189L50.6987 213.12L49.9259 212.636L49.1069 212.405L48.3341 212.325L47.5151 212.302L46.6962 211.967L45.8196 212.244L45.0122 212.094L44.2047 211.864L43.3512 211.714L42.5668 211.529L41.6671 211.864L40.9174 211.322L40.0869 211.091L39.1872 211.299L38.4606 210.884L37.8031 210.261L37.0187 209.996L36.0152 210.157L35.5077 209.396L34.7234 209.062L34.0198 208.589L33.2816 208.105L32.8202 207.379L32.3703 206.641L32.2781 205.73L31.4937 205.211L31.6552 204.243L31.3438 203.482L30.8016 202.733L30.8939 201.891L30.8132 201.049L30.075 200.265L31.0554 199.447L30.8132 198.559L30.8363 197.694L30.5825 196.887L30.917 196.138L30.767 195.25L30.9747 194.409L30.9977 193.602L31.1823 192.795L31.0323 191.861L31.5053 191.157L31.4476 190.27L31.8859 189.532L32.2665 188.748L32.4511 187.952L32.2089 187.019L32.8202 186.315L33.4546 185.647L33.2354 184.69L33.5353 183.917L33.8122 183.122L33.9967 182.28L34.3543 181.577L34.5158 180.701L35.0463 179.997L35.8422 179.467L35.8076 178.533L36.3036 177.818L36.5228 177L36.3959 176.043L36.7073 175.236L37.2956 174.613L37.7454 173.933L38.5644 173.437L38.4721 172.377L39.0719 171.743L39.7178 171.131L40.11 170.348L40.4676 169.621L40.5944 168.756L41.4941 168.238L40.9982 167.119L41.4134 166.278L42.5207 165.99L42.7629 165.067L42.9705 164.226L43.1897 163.395L43.6857 162.577L42.8898 163.096L42.4746 163.834L41.8863 164.41L41.6556 165.367L40.7213 165.598L40.1561 166.243L39.5448 166.75L38.8066 167.142L38.2645 167.777L37.3648 168.053L37.0187 168.872L36.1421 169.102L35.7153 169.886L34.9195 170.209L34.4004 170.982L33.3392 170.797L32.924 171.673L31.9782 171.719L31.3899 172.354L30.9747 173.31L30.0173 173.322L29.3252 173.749L28.5755 174.198L27.7335 174.371L26.8684 174.36L26.061 174.544L25.4035 175.132L24.6076 175.397L23.7541 175.443L23.0274 175.916L22.1392 175.732L21.401 176.308L20.5475 176.25L19.717 176.135L18.875 176.02L18.1022 175.951L17.2255 176.308L16.3835 175.928L15.4608 176.262L14.7687 175.639L14.019 175.386L13.2 175.224L12.531 174.648L11.862 174.187L11.1123 173.887L10.4433 173.38L9.76272 172.815L8.70155 172.942L8.36704 172.054L7.6173 171.627L7.20206 170.878L6.47539 170.417L5.67951 170.002L5.35654 169.183L4.80288 168.537L4.32997 167.857L4.21462 166.946L3.96087 166.174L3.59176 165.459L3.32647 164.664L2.56519 164.053L2.84202 163.142L2.69207 162.335L2 161.608L2.0346 160.721L2.62286 159.914L2.41524 159.037L2.24222 158.23L2.54212 157.493L3.01504 156.709L2.59979 155.763L3.18805 155.048L3.10731 154.172L3.66097 153.504L4.06468 152.754L3.9724 151.832L4.32997 151.082L4.81442 150.379L5.2758 149.699L5.9102 149.111L6.16396 148.292L6.30237 147.428L7.06365 146.967L7.30587 146.056L8.15942 145.606L8.13635 144.649L8.85149 144.13L9.04758 143.174L10.201 143.127L10.2356 142.101L10.6393 141.271L11.3545 140.845L11.6313 140.003L12.4618 139.576L13.4307 139.357L13.8575 138.596L14.0536 137.674L14.6072 136.994L15.6799 136.948L16.0029 136.072L16.3489 135.253L17.2255 134.953L17.6523 134.169L18.4713 133.835L19.048 133.224L19.4286 132.394L20.1784 131.99L20.9858 131.656L21.574 131.056L22.2546 130.561L22.9005 130.053L23.385 129.327L24.0309 128.866L24.4923 128.059L25.3343 127.702L26.3724 127.678L26.6031 126.71L26.9953 125.857L27.918 125.684L28.6101 125.246L29.1061 124.554L29.8789 124.07L30.6286 123.816L31.2169 123.24L32.0243 122.894L32.6241 122.317L33.6622 122.306L33.5123 121.776L32.9701 121.211L32.1512 120.934L31.6091 120.219L30.8593 119.827L30.3287 119.182L29.8789 118.432L29.0599 118.086L28.2295 117.752L27.9757 116.772L27.3067 116.276L26.8107 115.596L26.3032 114.927L25.3689 114.616V113.578L24.5499 113.152L24.4692 112.16L23.3273 112.034L22.9467 111.203L22.6583 110.419L22.047 109.797L21.401 109.29L20.905 108.529L20.732 107.664L20.04 107.099L19.8554 106.269L19.6939 105.381L18.7366 104.932L19.0711 103.836L18.3675 103.237L18.4251 102.315L17.883 101.623L17.7446 100.793L17.5716 99.9741L16.9256 99.3054L17.3063 98.337L16.545 97.6683L16.4643 96.8267L16.545 95.9735L16.5796 95.1089L16.4758 94.2211L15.8068 93.5179L15.9452 92.6532L15.9106 91.8231L15.8414 90.9815L15.8991 90.1283L16.4527 89.3789L16.8103 88.5488L16.4873 87.638L16.1413 86.7964L16.6604 86.0701L16.7642 85.1939L16.868 84.3753L17.0064 83.5337L17.2371 82.7267L16.9833 81.8274L17.6754 81.1356L17.2601 80.1787L17.6869 79.3948L17.8253 78.5762L18.5751 77.9536L18.5174 77.0544L19.0019 76.3396L19.567 75.6939L19.8669 74.8638L19.5901 73.8608L20.3629 73.2844L21.0089 72.6733L21.0435 71.7741L21.2626 70.9324L21.7932 70.2522L22.0008 69.4337L22.6583 68.8226L22.8659 68.0041L23.731 67.5544L23.7771 66.5399L24.573 66.0672L24.7922 65.2371L25.3112 64.603L25.9456 64.0265L26.3032 63.2541L26.73 62.5162L27.249 61.8706L27.8604 61.3057L28.3333 60.6139L28.7024 59.8415L29.3368 59.3342L29.1984 59.3457L29.7405 58.6309L29.6136 57.7778L29.5213 56.9246L29.8212 56.1176L30.3287 55.3567L30.0634 54.4228L30.4441 53.6734L30.6056 52.8549L30.5594 51.9556L30.8132 51.1601L31.0669 50.3185L31.4706 49.6498L31.4245 48.7851L31.7359 47.9089L32.4626 47.3094L32.6241 46.4678L33.0047 45.753L33.4546 44.9921L33.6622 44.1389L33.8006 43.3319L33.8583 42.4557L34.6888 41.8907L34.585 40.9453L35.3462 40.392L35.5885 39.5388L35.6 38.628L35.8999 37.8325L36.3497 37.1177L36.6612 36.2876L37.7223 35.9879L37.9876 35.1693L38.6105 34.5813L39.118 33.878L39.1872 32.8404L40.0177 32.4715L40.8828 32.1833L41.2519 31.3762L42.0132 30.9497L42.6822 30.5116L43.2589 29.7276L44.0663 29.6008L44.0548 29.5085L44.8968 29.4278L45.7042 29.5777L46.5578 29.497L47.3998 29.1511L48.1726 29.6238L49.0954 29.2895L49.8566 29.7852L50.5487 30.1772L51.3331 30.477L52.2328 30.5692L52.6941 31.3762L53.3055 31.9412L54.2052 32.2063L54.4589 33.1171L55.3586 33.3477L55.9469 33.9933L56.2814 34.7888L56.8004 35.3999L57.5848 35.8726L57.7462 36.7949L58.346 37.3368L58.7151 38.1092L59.4187 38.628L59.8455 39.3774L60.0416 40.2075L60.2377 41.0261L60.7914 41.6832L60.9182 42.5364L61.2758 43.2742L61.6449 44.0121L61.7718 44.8422L62.3485 45.5224L63.1213 45.2457L63.9172 45.0843L64.7246 44.9344L65.509 44.6346L66.351 44.5424L67.0546 44.0351L67.8043 43.6777L68.5079 43.1589L69.3961 43.1935L70.215 43.0091L71.0455 42.9168L71.8068 42.6862L72.6373 42.594L73.4908 42.5825L74.3098 42.3288L75.1864 42.7208L75.9246 41.9368L76.8358 42.5594L77.5856 41.9023L78.4391 41.7178L79.2581 41.9484L80.077 42.0521L80.8614 41.7639L81.7265 41.8792L82.5224 41.7985L83.3528 41.9368L84.1949 42.0983L85.0253 42.0521L85.8212 41.5103L86.6748 41.9138L87.4822 41.5103L88.3473 41.4642L89.1432 41.81L89.9852 41.5103L90.758 42.2827L91.6461 41.81L92.4074 42.4095L93.261 42.1444L94.0915 42.3404L94.8989 42.2943L95.7178 42.3634L96.5714 42.3288L97.448 42.2251L98.1631 42.8938L99.0052 42.7785L99.8818 42.5594L100.678 43.0321L101.427 43.5048L102.269 43.5163L103.065 43.7008L103.85 44.0351L104.795 43.6316L105.488 44.3234L106.376 44.0121L107.264 44.2311L107.921 44.9113L108.694 45.3725L109.525 45.4532L110.459 45.7069L111.024 44.969L111.07 44.0236L111.359 43.2512L111.624 42.4326L112.477 42.006L113.077 41.4065L113.112 40.415L113.735 39.827L114.254 39.2045L114.796 38.605L115.096 37.821L115.961 37.429L116.215 36.5528L117.057 36.1954L117.599 35.5728L117.76 34.6274L118.533 34.1893L118.845 33.3592L119.663 33.0364L120.482 32.7136L121.036 32.0564L121.613 31.4569L122.386 31.1226L123.124 30.7537L123.804 30.281L124.381 29.5431L125.327 29.6238L126.123 29.3471L127.011 29.7391L127.83 29.2318L128.66 29.4509L128.591 29.7737L129.329 30.0389L130.114 30.3617L130.84 30.7767L131.394 31.3993L132.017 31.9527L132.455 32.6905L133.413 32.9442L133.736 33.7397L134.716 33.9472L134.774 35.0425L135.639 35.4345L135.719 36.3453L136.215 37.0601L137.127 37.4175L137.034 38.4897L138.003 38.9278L137.83 39.9308L138.476 40.5649L138.661 41.395L138.822 42.2481L139.48 42.8476L139.826 43.6201L139.768 44.5655L140.575 45.1304L140.841 45.9259L141.21 46.6868L141.302 47.54L141.787 48.2778L141.648 49.1886L142.409 49.8227L142.098 50.7796L142.756 51.4253L143.055 52.2323L143.171 53.097L143.378 53.8925L143.667 54.688L143.644 55.5527L143.886 56.3482L143.932 57.2013L144.278 58.0429V57.8585L144.924 58.4695L145.639 58.9192L145.651 59.9683L146.124 60.6946L147.162 60.8791L147.254 61.8821L147.75 62.5047L147.981 63.3463L148.511 64.1072L149.561 64.2802L149.722 65.191L150.08 65.9288L150.495 66.609L151.303 67.1394V68.0848L151.672 68.8111L152.248 69.4337L152.606 70.183L153.367 70.6903L153.794 71.4282L153.852 72.3159L153.702 73.2959L154.844 73.6533L155.028 74.5064L155.443 75.2674L155.536 76.132L155.616 76.9737L156.182 77.6654L156.032 78.5647L156.585 79.2564L156.897 80.1096L156.493 81.0319L157.058 81.7352L157.185 82.4961L157.07 83.3492L157.923 84.0294L158.177 84.848L157.97 85.7242L157.623 86.5889L157.716 87.4766L157.981 88.2606L158.016 89.0331L158.062 89.8747L158.327 90.7278L158.269 91.5349L158.316 92.3765L158.004 93.195L158.489 94.0136L158.223 94.9013L157.531 95.6161L158.027 96.5269L157.508 97.2879L157.347 98.1064L157.612 99.0287L156.655 99.6283L156.608 100.493L156.793 101.427L156.066 102.015L156.043 102.937L155.605 103.617L155.409 104.424L155.121 105.197L154.544 105.842L153.886 106.453L153.967 107.41L153.644 108.24L152.964 108.782L152.514 109.497L151.81 110.016L151.799 111.03L150.933 111.434L150.426 112.091L149.803 112.668L149.757 113.671L148.892 114.028L148.442 114.743L147.715 115.227L147.231 115.884L146.643 116.495L145.985 117.003L145.478 117.671L144.809 118.179L144.243 118.79L143.367 118.997L142.94 119.85L142.075 120.069L141.291 120.842L142.225 121.499L143.102 121.891L143.632 122.548L144.29 123.09L145.097 123.39L145.408 124.3L146.17 124.773L146.873 125.234L147.727 125.465L148.465 125.891L148.834 126.756L149.803 126.802L150.472 127.321L150.945 128.059L151.776 128.532L152.179 129.293L153.148 129.373L153.725 130.03L154.186 130.78L154.832 131.299L155.616 131.714L156.274 132.209L156.724 132.97L157.197 133.697L157.739 134.273L158.339 134.919L159.135 135.299L159.7 135.933L160.115 136.683L160.865 137.144L161.418 137.812L161.822 138.539L162.849 138.758L163.091 139.657L163.633 140.326L164.187 140.937L164.694 141.652L165.294 142.17L165.905 142.793L166.92 143.024L166.874 144.142L167.439 144.707L168.166 145.26L168.431 145.987L168.57 146.84L168.904 147.543L169.504 148.246L169.25 149.123L169.988 149.791L170 150.644L169.873 151.474V152.305L169.792 153.158L169.689 153.942L168.997 154.68L169.631 155.636L169.043 156.363L168.754 157.112L168.512 157.908V158.818L167.612 159.28L167.497 160.167L166.863 160.79L166.943 161.839L166.182 162.323L165.432 162.738L165.052 163.476L164.683 164.237L163.898 164.675L163.656 165.644L162.975 166.093L162.226 166.508L161.603 167.05L160.888 167.523L160.219 168.007L159.434 168.353L158.604 168.618L158.119 169.448L157.324 169.713L156.505 169.956L155.79 170.509L154.89 170.463L154.036 170.301L153.229 170.682L152.306 170.543L151.545 171.155L150.749 170.578L149.826 170.843L149.076 170.29L148.234 169.99L147.346 170.52L146.689 169.829L145.812 169.713L144.912 169.956L144.163 169.356L143.401 169.148L142.525 168.941L141.914 168.307L141.06 168.226L140.218 167.996L139.295 167.869L138.788 167.108L137.888 166.969L137.334 166.289L136.677 165.736L135.985 165.275L134.993 165.309L134.405 164.606L134.001 163.776L133.309 163.315L132.951 162.588" stroke="#4C3220" stroke-width="4" stroke-linejoin="round"/>
<path d="M120.874 103.49C127.232 103.49 132.386 98.3389 132.386 91.9843C132.386 85.6297 127.232 80.4783 120.874 80.4783C114.517 80.4783 109.363 85.6297 109.363 91.9843C109.363 98.3389 114.517 103.49 120.874 103.49Z" fill="#FFAD76"/>
<path d="M55.3586 103.49C61.7162 103.49 66.87 98.3389 66.87 91.9843C66.87 85.6297 61.7162 80.4783 55.3586 80.4783C49.001 80.4783 43.8472 85.6297 43.8472 91.9843C43.8472 98.3389 49.001 103.49 55.3586 103.49Z" fill="#FFAD76"/>
<path d="M69.3501 95.651C71.6052 95.651 73.4333 93.5759 73.4333 91.0163C73.4333 88.4566 71.6052 86.3816 69.3501 86.3816C67.095 86.3816 65.2668 88.4566 65.2668 91.0163C65.2668 93.5759 67.095 95.651 69.3501 95.651Z" fill="#231F20"/>
<path d="M111.855 95.651C114.11 95.651 115.938 93.5759 115.938 91.0163C115.938 88.4566 114.11 86.3816 111.855 86.3816C109.6 86.3816 107.771 88.4566 107.771 91.0163C107.771 93.5759 109.6 95.651 111.855 95.651Z" fill="#231F20"/>
<path d="M88.1166 93.4942C89.4863 93.4942 90.5965 92.3844 90.5965 91.0154C90.5965 89.6465 89.4863 88.5367 88.1166 88.5367C86.747 88.5367 85.6367 89.6465 85.6367 91.0154C85.6367 92.3844 86.747 93.4942 88.1166 93.4942Z" fill="#231F20"/>
<path d="M42.1861 52.7281L53.4784 46.6753C53.4784 46.6753 49.8566 38.3398 43.8471 41.4642C37.8376 44.5886 42.1746 52.7281 42.1746 52.7281H42.1861Z" fill="#FFBE92"/>
<path d="M130.875 53.315L119.583 47.2623C119.583 47.2623 123.204 38.9267 129.214 42.0511C135.223 45.1755 130.886 53.315 130.886 53.315H130.875Z" fill="#FFBE92"/>
<path d="M86.9864 120.934L86.5942 120.208L86.029 119.597L85.5561 118.905L84.8294 118.49L84.1604 118.017L83.4337 117.648L82.6263 117.475L81.865 117.152L81.0461 116.956L80.2156 116.945L79.3851 117.06H78.5546L77.7357 117.141L76.9629 117.418L76.1324 117.521L75.4519 118.017L74.9674 118.663L74.4484 119.262L74.1254 120.012L74.1139 120.819L74.1485 121.614L74.2407 122.421L74.3099 123.24L74.8175 123.908L75.0712 124.762L75.1058 125.661L74.7944 126.502L74.5522 127.356L73.9293 128.013L73.7217 128.774L73.8716 129.523L74.3215 130.157L74.9443 130.653L75.5903 131.114L76.3515 131.379L77.1474 131.541L77.9433 131.656L78.7507 131.863L79.5466 131.552L80.3886 131.667L81.1384 131.276L81.8881 130.987L82.6379 130.688L83.3761 130.353L84.0335 129.857L84.7371 129.454L85.4292 129.004" fill="#FFB8B8"/>
<path d="M86.9864 120.934L86.5942 120.208L86.029 119.597L85.5561 118.905L84.8294 118.49L84.1604 118.017L83.4337 117.648L82.6263 117.475L81.865 117.152L81.0461 116.956L80.2156 116.945L79.3851 117.06H78.5546L77.7357 117.141L76.9629 117.418L76.1324 117.521L75.4519 118.017L74.9674 118.663L74.4484 119.262L74.1254 120.012L74.1139 120.819L74.1485 121.614L74.2407 122.421L74.3099 123.24L74.8175 123.908L75.0712 124.762L75.1058 125.661L74.7944 126.502L74.5522 127.356L73.9293 128.013L73.7217 128.774L73.8716 129.523L74.3215 130.157L74.9443 130.653L75.5903 131.114L76.3515 131.379L77.1474 131.541L77.9433 131.656L78.7507 131.863L79.5466 131.552L80.3886 131.667L81.1384 131.276L81.8881 130.987L82.6379 130.688L83.3761 130.353L84.0335 129.857L84.7371 129.454L85.4292 129.004" stroke="#4C3220" stroke-width="4" stroke-miterlimit="10"/>
<path d="M89.3394 120.98L89.6508 120.208L90.1122 119.516L90.8273 119.043L91.3002 118.329L92.073 118.006L92.7997 117.614L93.5494 117.222L94.3684 117.06L95.1989 116.922L96.0294 116.887L96.8598 117.107L97.6788 117.21L98.4978 117.256L99.2821 117.418L100.124 117.522L100.701 118.144L101.474 118.49L101.912 119.205L102.189 120L102.246 120.807L102.235 121.626V122.468L101.785 123.194L101.624 123.978L101.301 124.785L101.289 125.65L101.393 126.526L101.75 127.333L102.362 127.99L102.466 128.785L102.443 129.592L101.854 130.169L101.185 130.619L100.539 131.149L99.6858 131.195L98.8899 131.322L98.094 131.506L97.2751 131.437L96.4561 131.391L95.6372 131.333L94.8067 131.241L94.0454 130.884L93.2842 130.572L92.5344 130.215L91.9115 129.65L91.1964 129.235L90.5274 128.751" fill="#FFB8B8"/>
<path d="M89.3394 120.98L89.6508 120.208L90.1122 119.516L90.8273 119.043L91.3002 118.329L92.073 118.006L92.7997 117.614L93.5494 117.222L94.3684 117.06L95.1989 116.922L96.0294 116.887L96.8598 117.107L97.6788 117.21L98.4978 117.256L99.2821 117.418L100.124 117.522L100.701 118.144L101.474 118.49L101.912 119.205L102.189 120L102.246 120.807L102.235 121.626V122.468L101.785 123.194L101.624 123.978L101.301 124.785L101.289 125.65L101.393 126.526L101.75 127.333L102.362 127.99L102.466 128.785L102.443 129.592L101.854 130.169L101.185 130.619L100.539 131.149L99.6858 131.195L98.8899 131.322L98.094 131.506L97.2751 131.437L96.4561 131.391L95.6372 131.333L94.8067 131.241L94.0454 130.884L93.2842 130.572L92.5344 130.215L91.9115 129.65L91.1964 129.235L90.5274 128.751" stroke="#4C3220" stroke-width="4" stroke-miterlimit="10"/>
<path d="M91.5079 124.668L91.4503 125.498L91.2657 126.317L91.185 127.135L90.9427 127.931L90.8735 128.772L90.5852 129.568L90.0546 130.225L89.5009 130.848L88.8896 131.424L88.0591 131.563L87.2402 131.401L86.675 130.779L86.0175 130.271L85.6484 129.522L85.2447 128.784L85.2101 127.919L84.9909 127.135L84.6334 126.34L84.7141 125.498L84.6218 124.668V123.827L84.7372 122.996L84.7948 122.166L85.0947 121.371L85.2908 120.564L85.5907 119.78L86.029 119.065L86.6634 118.523L87.2748 117.993L88.0591 117.682L88.9011 117.901L89.6278 118.35L90.1469 119.042L90.4352 119.826L90.8505 120.552L91.1619 121.336L91.2657 122.166L91.4041 122.996V123.827L91.5079 124.668Z" fill="#FFB8B8"/>
<path d="M91.5079 124.668L91.4503 125.498L91.2657 126.317L91.185 127.135L90.9427 127.931L90.8735 128.772L90.5852 129.568L90.0546 130.225L89.5009 130.848L88.8896 131.424L88.0591 131.563L87.2402 131.401L86.675 130.779L86.0175 130.271L85.6484 129.522L85.2447 128.784L85.2101 127.919L84.9909 127.135L84.6334 126.34L84.7141 125.498L84.6218 124.668V123.827L84.7372 122.996L84.7948 122.166L85.0947 121.371L85.2908 120.564L85.5907 119.78L86.029 119.065L86.6634 118.523L87.2748 117.993L88.0591 117.682L88.9011 117.901L89.6278 118.35L90.1469 119.042L90.4352 119.826L90.8505 120.552L91.1619 121.336L91.2657 122.166L91.4041 122.996V123.827L91.5079 124.668Z" stroke="#4C3220" stroke-width="4" stroke-miterlimit="10"/>
<path d="M83.3876 122.225L82.5802 122.063L81.7612 121.96L80.9307 122.029L80.1349 122.282L79.3621 122.559L78.6584 123.009" fill="#FFB8B8"/>
<path d="M83.3876 122.225L82.5802 122.063L81.7612 121.96L80.9307 122.029L80.1349 122.282L79.3621 122.559L78.6584 123.009" stroke="#4C3220" stroke-width="4" stroke-linecap="round" stroke-linejoin="round"/>
<path d="M81.5653 125.696L80.7694 125.638L79.9504 125.765L79.2007 126.111" fill="#FFB8B8"/>
<path d="M81.5653 125.696L80.7694 125.638L79.9504 125.765L79.2007 126.111" stroke="#4C3220" stroke-width="4" stroke-linecap="round" stroke-linejoin="round"/>
<path d="M93.1687 122.156L93.9761 121.994L94.8066 121.983L95.6255 122.098L96.4214 122.306L97.2058 122.571L97.9094 123.009" fill="#FFB8B8"/>
<path d="M93.1687 122.156L93.9761 121.994L94.8066 121.983L95.6255 122.098L96.4214 122.306L97.2058 122.571L97.9094 123.009" stroke="#4C3220" stroke-width="4" stroke-linecap="round" stroke-linejoin="round"/>
<path d="M95.0029 125.695L95.7988 125.626L96.6062 125.764L97.379 126.087" fill="#FFB8B8"/>
<path d="M95.0029 125.695L95.7988 125.626L96.6062 125.764L97.379 126.087" stroke="#4C3220" stroke-width="4" stroke-linecap="round" stroke-linejoin="round"/>
<path opacity="0.2" d="M57.5124 112.315C70.648 112.315 81.2966 101.672 81.2966 88.5423C81.2966 75.4129 70.648 64.7694 57.5124 64.7694C44.3768 64.7694 33.7283 75.4129 33.7283 88.5423C33.7283 101.672 44.3768 112.315 57.5124 112.315Z" fill="white"/>
<path opacity="0.2" d="M118.518 112.315C131.654 112.315 142.302 101.672 142.302 88.5424C142.302 75.413 131.654 64.7695 118.518 64.7695C105.383 64.7695 94.7341 75.413 94.7341 88.5424C94.7341 101.672 105.383 112.315 118.518 112.315Z" fill="white"/>
<path d="M57.5124 112.315C70.648 112.315 81.2966 101.672 81.2966 88.5423C81.2966 75.4129 70.648 64.7694 57.5124 64.7694C44.3768 64.7694 33.7283 75.4129 33.7283 88.5423C33.7283 101.672 44.3768 112.315 57.5124 112.315Z" stroke="#4C3220" stroke-width="4" stroke-miterlimit="10"/>
<path d="M118.518 112.315C131.654 112.315 142.302 101.672 142.302 88.5424C142.302 75.413 131.654 64.7695 118.518 64.7695C105.383 64.7695 94.7341 75.413 94.7341 88.5424C94.7341 101.672 105.383 112.315 118.518 112.315Z" stroke="#4C3220" stroke-width="4" stroke-miterlimit="10"/>
<path d="M81.2966 88.5428H94.7343" stroke="#4C3220" stroke-width="4" stroke-miterlimit="10"/>
<path d="M33.7166 88.5418L16.4033 84.6219" stroke="#4C3220" stroke-width="4" stroke-miterlimit="10"/>
<path d="M142.314 88.5428L157.47 85.1071" stroke="#4C3220" stroke-width="4" stroke-miterlimit="10"/>
<path d="M126.157 106.995H122.409V109.428H126.157V106.995Z" fill="#EACFBE"/>
<path d="M126.78 109.127L125.062 106.268L147.081 93.5398L154.555 96.1338" fill="#EACFBE"/>
<path d="M126.78 109.127L125.062 106.268L147.081 93.5398L154.555 96.1338" stroke="#4C3220" stroke-width="4" stroke-miterlimit="10"/>
<path d="M126.146 109.427L122.409 161.146H116.157L122.743 109.427H126.146Z" fill="#CCAF9B" stroke="#4C3220" stroke-width="4" stroke-miterlimit="10" stroke-linejoin="round"/>
<path d="M122.743 109.427L116.157 161.146L76.7781 153.548L80.1808 96.491L122.743 109.427Z" fill="#CCAF9B" stroke="#4C3220" stroke-width="4" stroke-miterlimit="10" stroke-linejoin="round"/>
<path d="M160.08 93.5398L146.354 148.441L122.409 161.146L126.146 109.427L160.08 93.5398Z" fill="#CCAF9B" stroke="#4C3220" stroke-width="4" stroke-miterlimit="10" stroke-linejoin="round"/>
<path d="M123.17 107.075L121.786 109.138L82.28 97.1366L85.8788 94.116C85.8788 94.116 101.289 98.0474 123.181 107.075L124.669 106.544C124.669 106.544 128.649 96.5025 147.092 90.0808V93.5511L124.669 106.544" fill="#EACFBE"/>
<path d="M123.17 107.075L121.786 109.138L82.28 97.1366L85.8788 94.116C85.8788 94.116 101.289 98.0474 123.181 107.075L124.669 106.544M124.669 106.544C124.669 106.544 128.649 96.5025 147.092 90.0808V93.5511L124.669 106.544Z" stroke="#4C3220" stroke-width="4" stroke-miterlimit="10" stroke-linejoin="round"/>
<path d="M84.2178 95.4997C84.2178 95.4997 95.7753 97.8055 122.178 108.205Z" fill="#CCAF9B"/>
<path d="M84.2178 95.4997C84.2178 95.4997 95.7753 97.8055 122.178 108.205" stroke="#4C3220" stroke-width="4" stroke-miterlimit="10" stroke-linejoin="round"/>
<path d="M126.146 107.708C126.146 107.708 145.362 96.4327 150.507 94.7264Z" fill="#CCAF9B"/>
<path d="M126.146 107.708C126.146 107.708 145.362 96.4327 150.507 94.7264" stroke="#4C3220" stroke-width="4" stroke-miterlimit="10" stroke-linejoin="round"/>
<path d="M162.145 138.377L161.603 137.743L160.922 137.27L160.288 136.717L159.665 136.164L159.112 135.541L158.419 135.068L157.716 134.619L157.058 134.112L156.459 133.547L155.755 133.085L155.04 132.67L154.371 132.175L153.69 131.702L153.102 131.079L152.422 130.572L151.545 130.434L150.899 129.892L150.207 129.408L149.538 128.889L148.788 128.531L148.119 128.013L147.312 127.759L146.608 127.321L145.778 127.102L145.143 126.514L144.313 126.295L143.575 125.88L142.744 125.707L141.994 125.326L141.164 125.176L140.403 124.831L139.653 124.393L138.753 124.519L137.969 124.22L137.161 123.989L136.331 123.908L135.5 123.793L134.681 123.643L133.839 123.689L132.997 123.632L132.178 123.77L131.336 123.666L130.494 123.724L129.641 123.758L128.88 124.15L128.072 124.346L127.322 124.727L126.48 124.911L125.869 125.534L125.05 125.811L124.335 126.237L123.828 126.929L123.124 127.39L122.536 127.99L121.994 128.612L121.428 129.223L120.99 129.938L120.413 130.549L119.987 131.275L119.525 131.967L119.133 132.705L118.925 133.512L118.545 134.261L118.129 134.999L117.968 135.818L117.887 136.648L117.772 137.478L117.726 138.297L117.657 139.138L117.507 139.968L117.887 140.775L117.726 141.628L117.91 142.435L118.176 143.231L118.245 144.061L118.625 144.822L118.868 145.618L119.018 146.448L119.537 147.128L119.837 147.9L120.24 148.615L120.575 149.376L121.013 150.091L121.474 150.783L121.751 151.59L122.443 152.131L122.824 152.869L123.424 153.469L123.885 154.161L124.3 154.898L125.073 155.325L125.431 156.12L126.042 156.685L126.504 157.4L127.126 157.954L127.749 158.507L128.384 159.037L129.053 159.545L129.445 160.329L130.171 160.755L130.783 161.32L131.463 161.804L132.052 162.404L132.744 162.865L133.424 163.338L133.943 163.868" fill="#FBD0AE"/>
<path d="M162.145 138.377L161.603 137.743L160.922 137.27L160.288 136.717L159.665 136.164L159.112 135.541L158.419 135.068L157.716 134.619L157.058 134.112L156.459 133.547L155.755 133.085L155.04 132.67L154.371 132.175L153.69 131.702L153.102 131.079L152.422 130.572L151.545 130.434L150.899 129.892L150.207 129.408L149.538 128.889L148.788 128.531L148.119 128.013L147.312 127.759L146.608 127.321L145.778 127.102L145.143 126.514L144.313 126.295L143.575 125.88L142.744 125.707L141.994 125.326L141.164 125.176L140.403 124.831L139.653 124.393L138.753 124.519L137.969 124.22L137.161 123.989L136.331 123.908L135.5 123.793L134.681 123.643L133.839 123.689L132.997 123.632L132.178 123.77L131.336 123.666L130.494 123.724L129.641 123.758L128.88 124.15L128.072 124.346L127.322 124.727L126.48 124.911L125.869 125.534L125.05 125.811L124.335 126.237L123.828 126.929L123.124 127.39L122.536 127.99L121.994 128.612L121.428 129.223L120.99 129.938L120.413 130.549L119.987 131.275L119.525 131.967L119.133 132.705L118.925 133.512L118.545 134.261L118.129 134.999L117.968 135.818L117.887 136.648L117.772 137.478L117.726 138.297L117.657 139.138L117.507 139.968L117.887 140.775L117.726 141.628L117.91 142.435L118.176 143.231L118.245 144.061L118.625 144.822L118.868 145.618L119.018 146.448L119.537 147.128L119.837 147.9L120.24 148.615L120.575 149.376L121.013 150.091L121.474 150.783L121.751 151.59L122.443 152.131L122.824 152.869L123.424 153.469L123.885 154.161L124.3 154.898L125.073 155.325L125.431 156.12L126.042 156.685L126.504 157.4L127.126 157.954L127.749 158.507L128.384 159.037L129.053 159.545L129.445 160.329L130.171 160.755L130.783 161.32L131.463 161.804L132.052 162.404L132.744 162.865L133.424 163.338L133.943 163.868" stroke="#4C3220" stroke-width="4" stroke-linejoin="round"/>
<path d="M85.9364 2.19599L85.106 2.14988L84.2755 2.33434H83.445L82.6145 2.23058L81.784 2.0807L80.9651 2.44963L80.1346 2.40352H79.3041L78.4736 2.49575L77.6316 2.3574L76.8127 2.56492L75.9822 2.50728L75.1517 2.58798L74.3327 2.81856L73.4792 2.61104L72.6602 2.73786L71.8182 2.70327L70.9993 2.81856L70.2034 3.17596L69.3844 3.29125L68.5424 3.19902L67.7119 3.2682L66.8815 3.3489L66.0625 3.53336L65.232 3.63713L64.4361 3.90229L63.6518 4.19052L62.8444 4.36346L62.037 4.51333L61.218 4.65168L60.4683 5.02061L59.6493 5.17049L58.8304 5.3319L58.1268 5.80459L57.3309 6.03517L56.6157 6.45022L56.039 7.02667L55.3008 7.46477L55.0125 8.29487L55.52 8.99814L55.9006 9.75906L56.685 10.0819L57.4001 10.4854L58.1498 10.8082L58.9226 11.0849L59.6493 11.523L60.4567 11.719L61.2872 11.8228L62.1062 11.9726L62.879 12.2724L63.6749 12.503L64.4823 12.699L65.3358 12.6413L66.1202 12.9411L66.9391 13.0564L67.7465 13.2408L68.5886 13.1947L69.396 13.4022L70.2265 13.4945L71.0454 13.6789L71.8644 13.7712L72.6948 13.7481L73.5138 13.8288L74.3327 13.921L75.1517 14.0133L75.9822 14.0594L76.8011 14.2554L77.6431 14.1055L78.4621 14.2784L79.2926 14.2554L80.1231 14.1862L80.9535 14.117L81.7725 14.2784L82.603 14.3707L83.445 14.3246L84.2755 14.4975L85.1175 14.4399L85.9595 14.4629L86.79 14.3246L87.6205 14.2554L88.451 14.4053L89.2815 14.1747L90.1119 14.2093L90.954 14.3822L91.7729 14.094L92.6149 14.2554L93.4339 14.1055L94.2644 14.0709L95.1064 14.1516L95.9369 14.094L96.7558 13.8634L97.5863 13.8173L98.4283 13.8634L99.2703 13.9326L100.101 13.8519L100.92 13.7135L101.739 13.5636L102.558 13.4022L103.4 13.4253L104.207 13.1486H105.049L105.88 13.0794L106.652 12.6874L107.494 12.6413L108.325 12.5721L109.121 12.3531L109.94 12.2263L110.736 12.0072L111.485 11.6152L112.235 11.2578L113.1 11.2348L113.885 10.9696L114.519 10.3816L115.269 10.0588L116.042 9.71294L116.572 9.06731L116.618 8.26028L116.537 7.46477L115.857 7.00361L115.211 6.53092L114.554 6.03517L113.804 5.67777L112.985 5.51636L112.235 5.18202L111.508 4.72086L110.632 4.7785L109.847 4.50181L109.063 4.24817L108.267 4.04064L107.437 4.00606L106.664 3.6256H105.822L105.026 3.32584L104.161 3.47572L103.342 3.33737L102.546 3.06067L101.704 3.10679L100.885 2.97997L100.089 2.70327L99.2357 2.89927L98.4168 2.7955L97.6094 2.58798L96.7789 2.50728H95.9484L95.1179 2.41505L94.2874 2.46116L93.4685 2.20752L92.6265 2.44963L91.796 2.34587L90.9655 2.26517L90.135 2.36893L89.3045 2.20752L88.474 2.06917L87.632 2.23058L86.79 2L85.948 2.13835L85.9364 2.19599ZM85.9364 10.8428L85.0829 10.7967L84.2293 10.9696H83.3758L82.5222 10.8082L81.6802 10.6122L80.8151 10.912L79.9616 10.7851L79.108 10.716L78.2545 10.6929L77.424 10.4393L76.5589 10.5315L75.7284 10.3355L74.8864 10.2663L74.0213 10.324L73.2254 9.92046L72.3834 9.82823L71.5875 9.55153L70.7686 9.3786H69.8804L69.0845 9.03273L68.7039 8.29487L69.2114 7.76453L69.9727 7.46477L70.757 7.16502L71.576 7.00361L72.3834 6.72691L73.1908 6.45022L74.0328 6.3234L74.8749 6.25422L75.7284 6.21963L76.5589 5.98905L77.4125 6.01211L78.266 6.05823L79.108 5.81612L79.9616 5.88529L80.8036 5.82765L81.6456 5.66624L82.5107 5.88529H83.3527L84.2063 5.59707L85.0598 5.82765L85.9249 5.63165H86.7785H87.632H88.4856L89.3391 5.82765L90.1927 5.80459L91.0462 5.71236H91.8998L92.7418 5.86223L93.5838 5.97752L94.4258 6.08129L95.2909 5.94294L96.1214 6.19658L96.9634 6.27728L97.7939 6.45022L98.659 6.41563L99.478 6.66927L100.308 6.83067L101.104 7.13043L101.9 7.38407L102.708 7.63771L103.227 8.27181L102.696 8.88285L101.912 9.19413L101.104 9.4593L100.262 9.52847L99.478 9.88588L98.6244 9.90893L97.7939 10.0934L96.9634 10.3009L96.133 10.4969L95.2794 10.4393H94.4258L93.5838 10.5776L92.7187 10.4739L91.8767 10.5891L91.0347 10.6122L90.1927 10.7851L89.3391 10.8774L88.4856 10.739L87.632 10.9696L86.7785 10.9235L85.9134 10.8313L85.9364 10.8428Z" fill="#FFF0B0"/>
<path d="M85.9364 2.19599L85.106 2.14988L84.2755 2.33434H83.445L82.6145 2.23058L81.784 2.0807L80.9651 2.44963L80.1346 2.40352H79.3041L78.4736 2.49575L77.6316 2.3574L76.8127 2.56492L75.9822 2.50728L75.1517 2.58798L74.3327 2.81856L73.4792 2.61104L72.6602 2.73786L71.8182 2.70327L70.9993 2.81856L70.2034 3.17596L69.3844 3.29125L68.5424 3.19902L67.7119 3.2682L66.8815 3.3489L66.0625 3.53336L65.232 3.63713L64.4361 3.90229L63.6518 4.19052L62.8444 4.36346L62.037 4.51333L61.218 4.65168L60.4683 5.02061L59.6493 5.17049L58.8304 5.3319L58.1268 5.80459L57.3309 6.03517L56.6157 6.45022L56.039 7.02667L55.3008 7.46477L55.0125 8.29487L55.52 8.99814L55.9006 9.75906L56.685 10.0819L57.4001 10.4854L58.1498 10.8082L58.9226 11.0849L59.6493 11.523L60.4567 11.719L61.2872 11.8228L62.1062 11.9726L62.879 12.2724L63.6749 12.503L64.4823 12.699L65.3358 12.6413L66.1202 12.9411L66.9391 13.0564L67.7465 13.2408L68.5886 13.1947L69.396 13.4022L70.2265 13.4945L71.0454 13.6789L71.8644 13.7712L72.6948 13.7481L73.5138 13.8288L74.3327 13.921L75.1517 14.0133L75.9822 14.0594L76.8011 14.2554L77.6431 14.1055L78.4621 14.2784L79.2926 14.2554L80.1231 14.1862L80.9535 14.117L81.7725 14.2784L82.603 14.3707L83.445 14.3246L84.2755 14.4975L85.1175 14.4399L85.9595 14.4629L86.79 14.3246L87.6205 14.2554L88.451 14.4053L89.2815 14.1747L90.1119 14.2093L90.954 14.3822L91.7729 14.094L92.6149 14.2554L93.4339 14.1055L94.2644 14.0709L95.1064 14.1516L95.9369 14.094L96.7558 13.8634L97.5863 13.8173L98.4283 13.8634L99.2703 13.9326L100.101 13.8519L100.92 13.7135L101.739 13.5636L102.558 13.4022L103.4 13.4253L104.207 13.1486H105.049L105.88 13.0794L106.652 12.6874L107.494 12.6413L108.325 12.5721L109.121 12.3531L109.94 12.2263L110.736 12.0072L111.485 11.6152L112.235 11.2578L113.1 11.2348L113.885 10.9696L114.519 10.3816L115.269 10.0588L116.042 9.71294L116.572 9.06731L116.618 8.26028L116.537 7.46477L115.857 7.00361L115.211 6.53092L114.554 6.03517L113.804 5.67777L112.985 5.51636L112.235 5.18202L111.508 4.72086L110.632 4.7785L109.847 4.50181L109.063 4.24817L108.267 4.04064L107.437 4.00606L106.664 3.6256H105.822L105.026 3.32584L104.161 3.47572L103.342 3.33737L102.546 3.06067L101.704 3.10679L100.885 2.97997L100.089 2.70327L99.2357 2.89927L98.4168 2.7955L97.6094 2.58798L96.7789 2.50728H95.9484L95.1179 2.41505L94.2874 2.46116L93.4685 2.20752L92.6265 2.44963L91.796 2.34587L90.9655 2.26517L90.135 2.36893L89.3045 2.20752L88.474 2.06917L87.632 2.23058L86.79 2L85.948 2.13835L85.9364 2.19599ZM85.9364 10.8428L85.0829 10.7967L84.2293 10.9696H83.3758L82.5222 10.8082L81.6802 10.6122L80.8151 10.912L79.9616 10.7851L79.108 10.716L78.2545 10.6929L77.424 10.4393L76.5589 10.5315L75.7284 10.3355L74.8864 10.2663L74.0213 10.324L73.2254 9.92046L72.3834 9.82823L71.5875 9.55153L70.7686 9.3786H69.8804L69.0845 9.03273L68.7039 8.29487L69.2114 7.76453L69.9727 7.46477L70.757 7.16502L71.576 7.00361L72.3834 6.72691L73.1908 6.45022L74.0328 6.3234L74.8749 6.25422L75.7284 6.21963L76.5589 5.98905L77.4125 6.01211L78.266 6.05823L79.108 5.81612L79.9616 5.88529L80.8036 5.82765L81.6456 5.66624L82.5107 5.88529H83.3527L84.2063 5.59707L85.0598 5.82765L85.9249 5.63165H86.7785H87.632H88.4856L89.3391 5.82765L90.1927 5.80459L91.0462 5.71236H91.8998L92.7418 5.86223L93.5838 5.97752L94.4258 6.08129L95.2909 5.94294L96.1214 6.19658L96.9634 6.27728L97.7939 6.45022L98.659 6.41563L99.478 6.66927L100.308 6.83067L101.104 7.13043L101.9 7.38407L102.708 7.63771L103.227 8.27181L102.696 8.88285L101.912 9.19413L101.104 9.4593L100.262 9.52847L99.478 9.88588L98.6244 9.90893L97.7939 10.0934L96.9634 10.3009L96.133 10.4969L95.2794 10.4393H94.4258L93.5838 10.5776L92.7187 10.4739L91.8767 10.5891L91.0347 10.6122L90.1927 10.7851L89.3391 10.8774L88.4856 10.739L87.632 10.9696L86.7785 10.9235L85.9134 10.8313L85.9364 10.8428Z" stroke="#4C3220" stroke-width="3" stroke-linejoin="round"/>
</svg>
