<svg width="192" height="209" viewBox="0 0 192 209" fill="none" xmlns="http://www.w3.org/2000/svg">
<path d="M162.32 126.8L162.82 127.27L163.55 127.51L164.15 127.93L164.67 128.37L165.21 128.86L165.65 129.47L166.42 129.62L166.93 130.15L167.39 130.71L168.02 131.08L168.8 131.17L169.19 131.88L169.83 132.2L170.05 133L170.71 133.46L171.67 133.32L171.97 134.1L172.64 134.49L172.86 135.32L173.53 135.6L173.91 136.26L174.72 136.42L175.18 136.97L175.82 137.35L175.96 138.23L176.85 138.34L177.21 139.02L177.7 139.54L178.23 140.04L178.89 140.35L179.42 140.9L179.47 141.86L180.53 141.79L180.88 142.49L181.11 143.23L181.73 143.67L182.15 144.27L182.45 144.89L183.28 145.18L183.45 146.02L184.28 146.29L184.34 147.09L184.74 147.74L184.92 148.49L185.57 148.89L185.91 149.52L186.23 150.18L186.49 150.86L187.22 151.29L187.41 152.05L187.48 152.77L188.11 153.26L188.36 153.98L188.5 154.7L188.93 155.28L188.86 156.1L189.14 156.77L189.08 157.5L189.32 158.23V158.94L189.15 159.68L189.37 160.39L189.2 161.11L188.85 161.76L188.61 162.44L188.85 163.2L188.6 163.92L188.27 164.54L188.23 165.35L187.36 165.7L187.69 166.73L186.81 167L186.6 167.7L185.95 168.17L185.43 168.61L185.18 169.4L184.6 169.85L183.84 170.07L183.51 170.78L182.86 171.13L182.35 171.63L181.55 171.75L181.2 172.51L180.49 172.81L179.64 172.57L179.14 173.29L178.4 173.33L177.71 173.57L176.99 173.5L176.22 173.46L175.58 174.2L174.86 173.67L174.14 173.69L173.42 173.57L172.72 173.6L171.96 173.7L171.29 173.62L170.46 173.72L170.02 172.76L169.16 173.04L168.57 172.55L167.82 172.61L167.23 171.98L166.44 172.1L165.89 171.56L165.36 171.05L164.65 170.81L164.13 170.27L163.48 169.98L162.87 169.57L162.09 169.49L161.4 169.18L160.86 168.73L160.33 168.23L159.88 167.65L159.25 167.28L158.78 166.72L157.83 166.79L157.4 166.17L156.7 165.86L156.29 165.19L155.73 164.8L155.58 163.92L155.1 163.41L154.53 162.92L153.73 162.72L153.27 162.08L153.42 162.04L153.79 162.68L153.87 163.42L154.01 164.14L154.35 164.83L154.8 165.37L154.95 166.09L155.7 166.51L156.02 167.22L156.05 167.98L156.26 168.71L156.46 169.32L156.48 170.08L156.84 170.76L157.41 171.29L157.62 171.99L157.63 172.81L158.26 173.29L158.44 173.99L158.8 174.62L159 175.32L159.37 175.97L159.41 176.71L159.78 177.33L159.66 178.14L160.01 178.79L160.26 179.46L160.36 180.16L160.29 180.96L161.09 181.47L160.9 182.27L160.98 183.01L161.34 183.66L161.43 184.42L161.77 185.05L161.63 185.81L162.34 186.43L162.17 187.2L162.31 187.87L162.54 188.61L162.09 189.37L162.4 190.11L162.83 190.82L162.16 191.54L162.95 192.22L162.68 192.98L162.44 193.7L162.56 194.43L162.59 195.16L162.19 195.83L162.47 196.61L162.15 197.28L162.26 198.06L161.78 198.68L161.6 199.43L161.01 199.92L161.12 200.81L160.24 201.11L159.94 201.8L159.46 202.37L158.93 202.89L158.06 202.79L157.42 203.18L156.95 203.89L156.25 204.16L155.46 204.01L154.71 204.03L154.05 204.15L153.36 204.32L152.6 204.24L151.94 204.68L151.23 204.75H150.5L149.77 204.83L149.07 204.87L148.4 205.36L147.66 205.09L146.92 205.11L146.25 205.54L145.54 205.45L144.79 205.2L144.08 205.33L143.42 205.91L142.69 205.64L141.99 205.87L141.28 206.01L140.58 206.23L139.87 206.17H139.14L138.41 205.89L137.74 206.33L137 205.93L136.3 206.01L135.57 206.33L134.88 206.12L134.15 206.09L133.42 206.67L132.78 205.78L132 205.98L131.25 205.95L130.56 206.19L129.89 205.94L129.14 206.11L128.41 205.99L127.72 206.03L127.02 205.94L126.24 206.15L125.61 205.81L124.86 205.95L124.2 205.64L123.5 205.38L122.82 205.29L122.04 205.56L121.42 205.06L120.86 204.52L120.05 204.67L119.44 204.29L118.87 203.83L118.3 203.34L117.95 202.75L117.41 202.19L117.21 201.44L117.31 200.62L116.67 200.12L116.49 199.4L116.1 198.77L115.42 198.29L115.09 197.61L115.05 196.86L114.89 196.16L115.08 195.37L114.39 194.77V194.03L114.45 193.28L114.24 192.53L113.81 192.67L113.9 193.34L113.25 193.94L113.89 194.75L113.7 195.52L112.81 195.92L112.76 196.72L112.71 197.43L112.65 198.14L112.31 198.76L111.9 199.36L111.81 200.1L111.53 200.75L111.64 201.6L110.95 202.05L110.64 202.73L110.23 203.29L109.66 203.73L109.21 204.28L108.41 204.39L107.95 204.99L107.18 204.92L106.59 205.42L105.84 205.4L105.18 205.84L104.4 205.31L103.77 205.85L103.01 205.55L102.32 205.84L101.66 206.45L100.9 206.13L100.2 206.23L99.47 206.35L98.74 206.22L98.05 205.96L97.34 205.87L96.65 206.18L95.93 206.21L95.22 206.05L94.51 206.3L93.8 205.99L93.09 206.37L92.37 206.22L91.67 206.05L90.95 205.9L90.27 205.83L89.52 206.16L88.79 205.89L88.04 206.27L87.37 205.85L86.7 205.77L85.99 205.82L85.28 205.53L84.59 205.36L83.88 205.38L83.16 205.24L82.4 205.09L81.67 205.66L81.01 205.18L80.27 205.25L79.59 204.96L78.85 205.04L78.1 205.23L77.43 204.9L76.7 204.84L75.99 204.74L75.33 204.32L74.64 204.09L73.92 204.01L73.21 203.83L72.41 204.12L71.85 203.51L71.17 203.27L70.32 203.46L69.67 203.03L69.35 202.21L68.63 201.94L67.97 201.65L67.62 201.05L67.37 200.31L66.52 200.02L66.45 199.22L65.87 198.71L65.85 197.95L65.71 197.23L65.16 196.64L65.03 195.92V195.18L65.04 194.47L65.23 193.74L65.05 193.01L64.77 192.31L65.14 191.63L64.95 190.83L65.39 190.13L64.99 189.4L65.33 188.71L65.09 187.89L65.97 187.39L65.6 186.58L65.58 185.78L65.97 185.16L65.87 184.4L66.35 183.74L67.03 183.2L67.07 182.44L66.88 181.65L67.06 180.9L67.89 180.46L67.83 179.65L67.79 178.88L68.38 178.32L68.42 177.55L68.95 176.99L69.18 176.31L69.19 175.51L69.63 174.92L70.15 174.38L70.4 173.69L70.77 173.06L71.11 172.43L71.24 171.7L71.6 171.1L71.68 170.29L72.21 169.69L73.02 169.28L72.85 168.41L72.83 167.58L73.49 167.08L73.87 166.45L73.98 165.7L74.39 165.01L74.88 164.5L75.1 163.79L75.57 163.18L75.79 162.47L76.5 161.71L75.81 162.44L75.22 162.86L74.91 163.53L74.24 163.91L73.82 164.51L73.22 164.89L72.53 165.19L72.15 165.86L71.78 166.53L70.92 166.64L70.43 167.15L69.8 167.51L69.18 167.87L68.81 168.63L67.93 168.53L67.48 169.19L66.63 169.16L66.42 170.11L65.68 170.35L64.98 170.52L64.39 170.98L63.89 171.48L63.2 171.82L62.44 171.88L61.88 172.4L61.16 172.47L60.39 172.5L59.89 173.25L59 172.82L58.38 173.34L57.62 173.14L56.95 173.48L56.22 173.44L55.51 173.43L54.81 173.83L54.1 173.28L53.36 173.74L52.65 173.57L51.99 173.25L51.31 172.95L50.58 172.72L49.78 173L49.16 172.55L48.52 172.24L47.86 171.93L47.25 171.49L46.97 170.75L46.56 170.1L45.76 169.88L45.01 169.7L44.78 168.96L44.25 168.43L43.75 167.91L43.27 167.36L42.88 166.76L42.16 166.4L42.15 165.55L41.31 165.2L41.14 164.44L40.79 163.81L40.98 162.99L40.5 162.38L40.52 161.64L40.68 160.92L40.58 160.17L40 159.48L40.42 158.76L40.76 158.07L40.53 157.34L40.5 156.59L40.79 155.91V155.18L41.22 154.54L41.26 153.81L41.93 153.3L41.82 152.44L42.44 151.93L42.54 151.19L42.92 150.59L43.41 150.04L43.64 149.34L43.95 148.67L44.34 148.08L44.83 147.54L45.18 146.91L45.44 146.22L45.96 145.7L46.33 145.05L47.05 144.73L47.32 144.04L47.62 143.35L48.19 142.88L48.9 142.53L49.11 141.72L49.71 141.32L50.19 140.78L50.54 140.1L51.07 139.62L51.63 139.09L52.23 138.77L52.57 138.1L53.18 137.58L53.99 137.44L54.46 136.87L55.05 136.51L55.71 136.11L56.22 135.55L56.66 135L57.05 134.35L57.91 134.25L58.2 133.48L58.99 133.34L59.5 132.77L59.83 132.06L60.33 131.54L60.92 131.13L61.42 130.57L62.36 130.65L62.8 130.06L63.46 129.74L64.04 129.27L64.3 128.41L65.05 128.25L65.82 128.12L66.22 127.45L66.89 127.12L67.47 126.74L67.31 126.49L66.96 126.02L66.33 125.62L65.82 125.1L65.44 124.49L64.84 124.02L64.08 123.78L63.76 123.05L62.92 122.89L62.53 122.21L62.11 121.65L61.55 121.16L60.83 120.85L60.62 120.08L60.2 119.47L59.47 119.1L59.37 118.28L58.62 117.98L58.16 117.36L57.94 116.63L57.53 116.06L56.86 115.59L56.77 114.78L56.28 114.27L55.99 113.57L55.39 113.08L55.07 112.4L54.94 111.66L54.81 110.93L54.36 110.33L54.3 109.58L54.04 108.9L53.78 108.23L53.73 107.49L53.31 106.84L53.17 106.15L53.12 105.45L53.08 104.71L52.92 104L52.94 103.26L52.6 102.58L52.4 101.88L52.05 101.19L52.22 100.43L52.21 99.6905L52.27 98.9705L52.22 98.2705L52.3 97.5405L52.47 96.8205L52.43 96.0605L52.96 95.4105L52.48 94.6105L53.21 93.9905L52.85 93.2005L52.93 92.4405L53.34 91.8005L53.64 91.1505L53.62 90.4105L53.98 89.7205L54.14 89.0405L54.51 88.4005L54.9 87.7605L55.13 87.0705L54.94 86.2505L55.55 85.6805L55.49 84.9005L55.74 84.1905L56.29 83.6605L56.34 82.8805L57.23 82.5205L57.18 81.6505L57.93 81.2405L58.03 80.4605L58.49 79.8705L58.76 79.2105L59.13 78.5905L59.42 77.9005L59.67 77.1805L60.47 76.8805L60.7 76.1805L60.89 75.4105L61.57 74.9905L62.23 74.6005L62.58 73.9605L63.05 73.4205L63.63 72.9605L63.73 72.0905L64.08 72.3805L63.74 71.6105L63.88 70.8305L64.42 70.2205L64.77 69.5305L64.8 68.8105L64.97 68.1405L65.2 67.4705L65 66.6605L65.04 65.9305L65.06 65.1705L65.66 64.5905L65.99 63.9305L65.77 63.0905L66.12 62.4205L66.38 61.7605L66.67 61.1005L66.7 60.3605L67.31 59.7805L67.27 58.9805L67.86 58.4405L68.13 57.7505L67.98 56.9205L68.48 56.3305L68.47 55.5405L69.03 55.0105L69.59 54.4605L69.81 53.7305L70.06 53.0405L70.54 52.4705L70.97 51.8805L71.29 51.2305L71.38 50.4105L72.09 50.0105L72.49 49.3805L73.3 49.1105L73.49 48.2905L74.09 47.8605L74.84 47.6405L75.41 47.2005L76 46.7805L76.64 46.4505L76.68 46.5905L77.39 46.4805L78.1 46.6105L78.81 46.1405L79.49 46.4305L80.23 46.0005L80.86 46.6905L81.67 46.5205L82.16 47.1405L82.82 47.4405L83.66 47.3305L83.99 48.2005H84.9L85.1 49.0505L85.8 49.3605L86.18 49.9805L86.53 50.6305L87.22 50.9505L87.69 51.5005L87.83 52.3005L88.63 52.6005L89.01 53.2105L89.45 53.7705L89.67 54.4805L90.21 55.0005L90.23 55.8005L90.97 56.2205L90.84 57.0805L91.49 57.5305L91.85 58.1805L92.04 58.9005L92.31 59.5505L92.54 60.1005L93.15 60.0105L93.8 59.7205L94.52 59.6105L95.18 59.2605L95.8 59.0005L96.5 58.7405L97.13 58.3605L97.95 58.7605L98.7 58.6705L99.24 57.9305L100.06 58.2505L100.73 58.1005L101.48 58.2305L102.27 58.1205L102.81 57.3605L103.57 57.5905H104.29L104.99 57.5205L105.7 57.0905L106.45 57.4405L107.15 57.4305L107.85 57.2105L108.57 57.2005L109.25 56.7905L109.98 56.7205L110.7 57.0005L111.41 57.4705L112.1 56.6805L112.83 56.8305L113.58 56.7705L114.3 56.9805L115 57.2005L115.74 56.9805L116.42 57.3805L117.15 57.1405L117.93 57.1505L118.56 57.7605L119.3 57.5005L119.95 57.6105L120.63 57.9405L121.41 57.4205L122.14 57.4105L122.82 57.8005L123.46 58.2905L124.23 58.4105L124.96 58.3405L125.62 58.4705L126.34 58.5805L127.11 58.5105L127.78 58.6805L128.51 58.7705L129.17 59.1405L129.94 58.8205L130.67 59.1405L131.23 59.8005L132.05 59.4405L132.7 59.9305L133.4 60.1105L134 59.9105L134.73 59.7605L134.94 59.0505V58.2305L135.66 57.8705L135.82 57.0905L136.3 56.5805L136.58 55.9305L136.93 55.3105L137.5 54.8405L138.14 54.4005L138.17 53.5805L138.54 52.9005L139.18 52.5105L139.64 51.9505L140.3 51.5805L140.41 50.7105L141.2 50.4605L141.71 49.9605L142.32 49.5405L142.5 48.6905L143.3 48.5105L143.81 47.9905L144.51 47.7305L145.07 47.3005L145.72 46.9605L146.42 46.7705L147.07 46.4405L147.79 46.3705L148.5 46.2305L149.17 46.6105L149.94 46.4105L149.84 46.7005L150.47 47.0105L151.22 47.0905L152.02 47.1805L152.51 47.8305L153.03 48.3505L153.68 48.7205L153.81 49.5505L154.35 50.0805L154.85 50.6105L155.5 51.0005L156.01 51.5505L156.08 52.3605L156.86 52.6805L157.25 53.3005L157.4 54.0505L157.91 54.6905L157.97 55.4405L158.72 55.8305L158.94 56.5605L159.03 57.3205L159.35 57.9605L159.81 58.5705L160.13 59.2105L160.19 59.9805L160.28 60.7305L160.48 61.3805L160.69 62.1105L161.15 62.7205L161.33 63.4205L161.35 64.1605L161.74 64.8105L161.9 65.5405L161.92 66.2605L162.61 66.8305L162.44 67.6205L162.58 68.3405L162.76 69.0205L162.86 69.7705L163.1 70.4005L163.33 71.1505L163.7 70.7405L163.8 71.7505L164.36 72.1905L165.06 72.5705L165.43 73.1505L165.73 73.8605L166.2 74.3805L166.9 74.7905L166.99 75.5905L167.81 75.8605L168.16 76.5205L168.43 77.2005L168.83 77.8105L169.2 78.4605L169.54 79.0405L169.49 79.9305L170.47 80.1705L170.53 80.9705L170.82 81.6105L171.19 82.2305L171.79 82.7405L171.61 83.6005L172.16 84.1505L172.29 84.9105L173.07 85.3705L173.06 86.1505L173.03 86.8905L173.4 87.5105L173.81 88.1205L173.82 88.9005L174.45 89.4805L174.52 90.1905L174.55 90.9305L174.73 91.6205L174.83 92.3405L174.99 93.0305L175.02 93.7705L174.99 94.5305L175.54 95.1505L175.57 95.8605L175.59 96.5905L175.92 97.2805L175.73 98.0305L175.47 98.7405L175.7 99.4605L175.5 100.24L175.97 100.94L175.44 101.59L175.64 102.39L175.14 103.02L174.88 103.76L175.34 104.51L174.76 105.09L174.67 105.85L174.92 106.62L174.42 107.28L174.27 107.93L174.14 108.69L173.62 109.24L173.59 109.97L173.43 110.71L173.37 111.51L172.73 111.97L172.66 112.75L172.09 113.26L171.64 113.84L171.27 114.45L171.33 115.3L170.74 115.84L170.04 116.21L169.66 116.82L168.99 117.23L168.85 118.04L168.56 118.72L167.98 119.15L167.44 119.67L167.09 120.29L166.35 120.56L166.09 121.33L165.63 121.9L165.13 122.41L164.58 122.89L164.14 123.53L163.55 123.92L163.08 124.46L162.31 124.68L161.77 125.16L161.34 125.61L161.66 126.27L162.32 126.8Z" fill="#FBD0AE"/>
<path d="M162.52 126.99L163.02 127.46L163.75 127.7L164.35 128.12L164.87 128.56L165.41 129.05L165.85 129.66L166.62 129.81L167.13 130.34L167.59 130.9L168.22 131.27L169 131.36L169.39 132.07L170.03 132.39L170.25 133.19L170.91 133.65L171.87 133.51L172.17 134.29L172.84 134.68L173.06 135.51L173.73 135.79L174.11 136.45L174.92 136.61L175.38 137.16L176.02 137.54L176.16 138.42L177.05 138.53L177.41 139.21L177.9 139.73L178.43 140.23L179.09 140.54L179.62 141.09L179.67 142.05L180.73 141.98L181.08 142.68L181.31 143.42L181.93 143.86L182.35 144.46L182.65 145.08L183.48 145.37L183.65 146.21L184.48 146.48L184.54 147.28L184.94 147.93L185.12 148.68L185.77 149.08L186.11 149.71L186.43 150.37L186.69 151.05L187.42 151.48L187.61 152.24L187.68 152.96L188.31 153.45L188.56 154.17L188.7 154.89L189.13 155.47L189.06 156.29L189.34 156.96L189.28 157.69L189.52 158.42V159.13L189.35 159.87L189.57 160.58L189.4 161.3L189.05 161.95L188.81 162.63L189.05 163.39L188.8 164.11L188.47 164.73L188.43 165.54L187.56 165.89L187.89 166.92L187.01 167.19L186.8 167.89L186.15 168.36L185.63 168.8L185.38 169.59L184.8 170.04L184.04 170.26L183.71 170.97L183.06 171.32L182.55 171.82L181.75 171.94L181.4 172.7L180.69 173L179.84 172.76L179.34 173.48L178.6 173.52L177.91 173.76L177.19 173.69L176.42 173.65L175.78 174.39L175.06 173.86L174.34 173.88L173.62 173.76L172.92 173.79L172.16 173.89L171.49 173.81L170.66 173.91L170.22 172.95L169.36 173.23L168.77 172.74L168.02 172.8L167.43 172.17L166.64 172.29L166.09 171.75L165.56 171.24L164.85 171L164.33 170.46L163.68 170.17L163.07 169.76L162.29 169.68L161.6 169.37L161.06 168.92L160.53 168.42L160.08 167.84L159.45 167.47L158.98 166.91L158.03 166.98L157.6 166.36L156.9 166.05L156.49 165.38L155.93 164.99L155.78 164.11L155.3 163.6L154.73 163.11L153.93 162.91L153.47 162.27L153.62 162.23L153.99 162.87L154.07 163.61L154.21 164.33L154.55 165.02L155 165.56L155.15 166.28L155.9 166.7L156.22 167.41L156.25 168.17L156.46 168.9L156.66 169.51L156.68 170.27L157.04 170.95L157.61 171.48L157.82 172.18L157.83 173L158.46 173.48L158.64 174.18L159 174.81L159.2 175.51L159.57 176.16L159.61 176.9L159.98 177.52L159.86 178.33L160.21 178.98L160.46 179.65L160.56 180.35L160.49 181.15L161.29 181.66L161.1 182.46L161.18 183.2L161.54 183.85L161.63 184.61L161.97 185.24L161.83 186L162.54 186.62L162.37 187.39L162.51 188.06L162.74 188.8L162.29 189.56L162.6 190.3L163.03 191.01L162.36 191.73L163.15 192.41L162.88 193.17L162.64 193.89L162.76 194.62L162.79 195.35L162.39 196.02L162.67 196.8L162.35 197.47L162.46 198.25L161.98 198.87L161.8 199.62L161.21 200.11L161.32 201L160.44 201.3L160.14 201.99L159.66 202.56L159.13 203.08L158.26 202.98L157.62 203.37L157.15 204.08L156.45 204.35L155.66 204.2L154.91 204.22L154.25 204.34L153.56 204.51L152.8 204.43L152.14 204.87L151.43 204.94H150.7L149.97 205.02L149.27 205.06L148.6 205.55L147.86 205.28L147.12 205.3L146.45 205.73L145.74 205.64L144.99 205.39L144.28 205.52L143.62 206.1L142.89 205.83L142.19 206.06L141.48 206.2L140.78 206.42L140.07 206.36H139.34L138.61 206.08L137.94 206.52L137.2 206.12L136.5 206.2L135.77 206.52L135.08 206.31L134.35 206.28L133.62 206.86L132.98 205.97L132.2 206.17L131.45 206.14L130.76 206.38L130.09 206.13L129.34 206.3L128.61 206.18L127.92 206.22L127.22 206.13L126.44 206.34L125.81 206L125.06 206.14L124.4 205.83L123.7 205.57L123.02 205.48L122.24 205.75L121.62 205.25L121.06 204.71L120.25 204.86L119.64 204.48L119.07 204.02L118.5 203.53L118.15 202.94L117.61 202.38L117.41 201.63L117.51 200.81L116.87 200.31L116.69 199.59L116.3 198.96L115.62 198.48L115.29 197.8L115.25 197.05L115.09 196.35L115.28 195.56L114.59 194.96V194.22L114.65 193.47L114.44 192.72L114.01 192.86L114.1 193.53L113.45 194.13L114.09 194.94L113.9 195.71L113.01 196.11L112.96 196.91L112.91 197.62L112.85 198.33L112.51 198.95L112.1 199.55L112.01 200.29L111.73 200.94L111.84 201.79L111.15 202.24L110.84 202.92L110.43 203.48L109.86 203.92L109.41 204.47L108.61 204.58L108.15 205.18L107.38 205.11L106.79 205.61L106.04 205.59L105.38 206.03L104.6 205.5L103.97 206.04L103.21 205.74L102.52 206.03L101.86 206.64L101.1 206.32L100.4 206.42L99.6699 206.54L98.94 206.41L98.25 206.15L97.54 206.06L96.8499 206.37L96.1299 206.4L95.4199 206.24L94.7099 206.49L94 206.18L93.29 206.56L92.57 206.41L91.87 206.24L91.15 206.09L90.47 206.02L89.72 206.35L88.9899 206.08L88.2399 206.46L87.57 206.04L86.9 205.96L86.19 206.01L85.48 205.72L84.79 205.55L84.08 205.57L83.36 205.43L82.5999 205.28L81.87 205.85L81.2099 205.37L80.47 205.44L79.79 205.15L79.05 205.23L78.3 205.42L77.6299 205.09L76.9 205.03L76.19 204.93L75.5299 204.51L74.8399 204.28L74.12 204.2L73.41 204.02L72.61 204.31L72.05 203.7L71.37 203.46L70.5199 203.65L69.87 203.22L69.55 202.4L68.83 202.13L68.1699 201.84L67.82 201.24L67.57 200.5L66.72 200.21L66.65 199.41L66.07 198.9L66.05 198.14L65.91 197.42L65.36 196.83L65.23 196.11V195.37L65.2399 194.66L65.43 193.93L65.25 193.2L64.97 192.5L65.3399 191.82L65.15 191.02L65.5899 190.32L65.19 189.59L65.5299 188.9L65.29 188.08L66.1699 187.58L65.8 186.77L65.7799 185.97L66.1699 185.35L66.07 184.59L66.55 183.93L67.23 183.39L67.2699 182.63L67.08 181.84L67.26 181.09L68.0899 180.65L68.0299 179.84L67.9899 179.07L68.58 178.51L68.62 177.74L69.15 177.18L69.3799 176.5L69.3899 175.7L69.83 175.11L70.3499 174.57L70.5999 173.88L70.97 173.25L71.3099 172.62L71.44 171.89L71.8 171.29L71.8799 170.48L72.41 169.88L73.22 169.47L73.05 168.6L73.0299 167.77L73.69 167.27L74.07 166.64L74.18 165.89L74.5899 165.2L75.08 164.69L75.3 163.98L75.7699 163.37L75.9899 162.66L76.6999 161.9L76.01 162.63L75.4199 163.05L75.11 163.72L74.44 164.1L74.0199 164.7L73.4199 165.08L72.73 165.38L72.3499 166.05L71.98 166.72L71.12 166.83L70.6299 167.34L70 167.7L69.3799 168.06L69.01 168.82L68.1299 168.72L67.68 169.38L66.83 169.35L66.62 170.3L65.8799 170.54L65.18 170.71L64.59 171.17L64.09 171.67L63.4 172.01L62.6399 172.07L62.08 172.59L61.36 172.66L60.59 172.69L60.09 173.44L59.2 173.01L58.58 173.53L57.82 173.33L57.15 173.67L56.4199 173.63L55.7099 173.62L55.0099 174.02L54.2999 173.47L53.56 173.93L52.8499 173.76L52.1899 173.44L51.5099 173.14L50.7799 172.91L49.9799 173.19L49.36 172.74L48.72 172.43L48.06 172.12L47.45 171.68L47.1699 170.94L46.7599 170.29L45.9599 170.07L45.2099 169.89L44.9799 169.15L44.45 168.62L43.95 168.1L43.47 167.55L43.08 166.95L42.36 166.59L42.3499 165.74L41.5099 165.39L41.34 164.63L40.99 164L41.18 163.18L40.7 162.57L40.72 161.83L40.88 161.11L40.7799 160.36L40.2 159.67L40.6199 158.95L40.9599 158.26L40.7299 157.53L40.7 156.78L40.99 156.1V155.37L41.4199 154.73L41.4599 154L42.13 153.49L42.02 152.63L42.6399 152.12L42.74 151.38L43.1199 150.78L43.61 150.23L43.84 149.53L44.15 148.86L44.54 148.27L45.0299 147.73L45.38 147.1L45.6399 146.41L46.16 145.89L46.5299 145.24L47.25 144.92L47.52 144.23L47.82 143.54L48.3899 143.07L49.0999 142.72L49.31 141.91L49.91 141.51L50.3899 140.97L50.74 140.29L51.27 139.81L51.83 139.28L52.43 138.96L52.77 138.29L53.38 137.77L54.1899 137.63L54.66 137.06L55.25 136.7L55.91 136.3L56.4199 135.74L56.86 135.19L57.25 134.54L58.11 134.44L58.4 133.67L59.1899 133.53L59.7 132.96L60.0299 132.25L60.5299 131.73L61.1199 131.32L61.6199 130.76L62.56 130.84L63 130.25L63.66 129.93L64.24 129.46L64.5 128.6L65.25 128.44L66.0199 128.31L66.4199 127.64L67.0899 127.31L67.6699 126.93L67.51 126.68L67.16 126.21L66.5299 125.81L66.0199 125.29L65.6399 124.68L65.04 124.21L64.2799 123.97L63.9599 123.24L63.1199 123.08L62.7299 122.4L62.31 121.84L61.75 121.35L61.0299 121.04L60.82 120.27L60.4 119.66L59.6699 119.29L59.57 118.47L58.82 118.17L58.36 117.55L58.1399 116.82L57.7299 116.25L57.06 115.78L56.97 114.97L56.4799 114.46L56.1899 113.76L55.59 113.27L55.27 112.59L55.1399 111.85L55.0099 111.12L54.56 110.52L54.5 109.77L54.24 109.09L53.9799 108.42L53.93 107.68L53.5099 107.03L53.3699 106.34L53.32 105.64L53.2799 104.9L53.1199 104.19L53.1399 103.45L52.7999 102.77L52.5999 102.07L52.25 101.38L52.4199 100.62L52.41 99.8799L52.47 99.1599L52.4199 98.4599L52.5 97.7299L52.6699 97.0099L52.63 96.2499L53.16 95.5999L52.68 94.7999L53.41 94.1799L53.0499 93.3899L53.13 92.6299L53.54 91.9899L53.84 91.3399L53.82 90.5999L54.18 89.9099L54.34 89.2299L54.7099 88.5899L55.0999 87.9499L55.33 87.2599L55.1399 86.4399L55.75 85.8699L55.6899 85.0899L55.9399 84.3799L56.49 83.8499L56.54 83.0699L57.43 82.7099L57.38 81.8399L58.13 81.4299L58.2299 80.6499L58.6899 80.0599L58.9599 79.3999L59.33 78.7799L59.6199 78.0899L59.8699 77.3699L60.6699 77.0699L60.9 76.3699L61.09 75.5999L61.77 75.1799L62.43 74.7899L62.7799 74.1499L63.25 73.6099L63.83 73.1499L63.93 72.2799L64.2799 72.5699L63.9399 71.7999L64.08 71.0199L64.6199 70.4099L64.97 69.7199L65 68.9999L65.1699 68.3299L65.4 67.6599L65.1999 66.8499L65.2399 66.1199L65.26 65.3599L65.86 64.7799L66.19 64.1199L65.97 63.2799L66.32 62.6099L66.58 61.9499L66.87 61.2899L66.9 60.5499L67.51 59.9699L67.47 59.1699L68.0599 58.6299L68.33 57.9399L68.18 57.1099L68.68 56.5199L68.6699 55.7299L69.23 55.1999L69.79 54.6499L70.01 53.9199L70.26 53.2299L70.7399 52.6599L71.1699 52.0699L71.4899 51.4199L71.58 50.5999L72.29 50.1999L72.69 49.5699L73.5 49.2999L73.69 48.4799L74.29 48.0499L75.04 47.8299L75.61 47.3899L76.1999 46.9699L76.8399 46.6399L76.8799 46.7799L77.5899 46.6699L78.3 46.7999L79.01 46.3299L79.69 46.6199L80.43 46.1899L81.0599 46.8799L81.87 46.7099L82.36 47.3299L83.0199 47.6299L83.86 47.5199L84.19 48.3899H85.0999L85.3 49.2399L86 49.5499L86.3799 50.1699L86.73 50.8199L87.4199 51.1399L87.8899 51.6899L88.0299 52.4899L88.83 52.7899L89.2099 53.3999L89.65 53.9599L89.87 54.6699L90.41 55.1899L90.43 55.9899L91.1699 56.4099L91.04 57.2699L91.69 57.7199L92.05 58.3699L92.2399 59.0899L92.51 59.7399L92.7399 60.2899L93.3499 60.1999L94 59.9099L94.72 59.7999L95.3799 59.4499L96 59.1899L96.6999 58.9299L97.33 58.5499L98.15 58.9499L98.9 58.8599L99.44 58.1199L100.26 58.4399L100.93 58.2899L101.68 58.4199L102.47 58.3099L103.01 57.5499L103.77 57.7799H104.49L105.19 57.7099L105.9 57.2799L106.65 57.6299L107.35 57.6199L108.05 57.3999L108.77 57.3899L109.45 56.9799L110.18 56.9099L110.9 57.1899L111.61 57.6599L112.3 56.8699L113.03 57.0199L113.78 56.9599L114.5 57.1699L115.2 57.3899L115.94 57.1699L116.62 57.5699L117.35 57.3299L118.13 57.3399L118.76 57.9499L119.5 57.6899L120.15 57.7999L120.83 58.1299L121.61 57.6099L122.34 57.5999L123.02 57.9899L123.66 58.4799L124.43 58.5999L125.16 58.5299L125.82 58.6599L126.54 58.7699L127.31 58.6999L127.98 58.8699L128.71 58.9599L129.37 59.3299L130.14 59.0099L130.87 59.3299L131.43 59.9899L132.25 59.6299L132.9 60.1199L133.6 60.2999L134.2 60.0999L134.93 59.9499L135.14 59.2399V58.4199L135.86 58.0599L136.02 57.2799L136.5 56.7699L136.78 56.1199L137.13 55.4999L137.7 55.0299L138.34 54.5899L138.37 53.7699L138.74 53.0899L139.38 52.6999L139.84 52.1399L140.5 51.7699L140.61 50.8999L141.4 50.6499L141.91 50.1499L142.52 49.7299L142.7 48.8799L143.5 48.6999L144.01 48.1799L144.71 47.9199L145.27 47.4899L145.92 47.1499L146.62 46.9599L147.27 46.6299L147.99 46.5599L148.7 46.4199L149.37 46.7999L150.14 46.5999L150.04 46.8899L150.67 47.1999L151.42 47.2799L152.22 47.3699L152.71 48.0199L153.23 48.5399L153.88 48.9099L154.01 49.7399L154.55 50.2699L155.05 50.7999L155.7 51.1899L156.21 51.7399L156.28 52.5499L157.06 52.8699L157.45 53.4899L157.6 54.2399L158.11 54.8799L158.17 55.6299L158.92 56.0199L159.14 56.7499L159.23 57.5099L159.55 58.1499L160.01 58.7599L160.33 59.3999L160.39 60.1699L160.48 60.9199L160.68 61.5699L160.89 62.2999L161.35 62.9099L161.53 63.6099L161.55 64.3499L161.94 64.9999L162.1 65.7299L162.12 66.4499L162.81 67.0199L162.64 67.8099L162.78 68.5299L162.96 69.2099L163.06 69.9599L163.3 70.5899L163.53 71.3399L163.9 70.9299L164 71.9399L164.56 72.3799L165.26 72.7599L165.63 73.3399L165.93 74.0499L166.4 74.5699L167.1 74.9799L167.19 75.7799L168.01 76.0499L168.36 76.7099L168.63 77.3899L169.03 77.9999L169.4 78.6499L169.74 79.2299L169.69 80.1199L170.67 80.3599L170.73 81.1599L171.02 81.7999L171.39 82.4199L171.99 82.9299L171.81 83.7899L172.36 84.3399L172.49 85.0999L173.27 85.5599L173.26 86.3399L173.23 87.0799L173.6 87.6999L174.01 88.3099L174.02 89.0899L174.65 89.6699L174.72 90.3799L174.75 91.1199L174.93 91.8099L175.03 92.5299L175.19 93.2199L175.22 93.9599L175.19 94.7199L175.74 95.3399L175.77 96.0499L175.79 96.7799L176.12 97.4699L175.93 98.2199L175.67 98.9299L175.9 99.6499L175.7 100.43L176.17 101.13L175.64 101.78L175.84 102.58L175.34 103.21L175.08 103.95L175.54 104.7L174.96 105.28L174.87 106.04L175.12 106.81L174.62 107.47L174.47 108.12L174.34 108.88L173.82 109.43L173.79 110.16L173.63 110.9L173.57 111.7L172.93 112.16L172.86 112.94L172.29 113.45L171.84 114.03L171.47 114.64L171.53 115.49L170.94 116.03L170.24 116.4L169.86 117.01L169.19 117.42L169.05 118.23L168.76 118.91L168.18 119.34L167.64 119.86L167.29 120.48L166.55 120.75L166.29 121.52L165.83 122.09L165.33 122.6L164.78 123.08L164.34 123.72L163.75 124.11L163.28 124.65L162.51 124.87L161.97 125.35L161.54 125.8L161.86 126.46L162.52 126.99Z" stroke="#4C3220" stroke-width="4" stroke-linejoin="round"/>
<path d="M135.66 105.99C141.172 105.99 145.64 101.522 145.64 96.0098C145.64 90.498 141.172 86.0298 135.66 86.0298C130.148 86.0298 125.68 90.498 125.68 96.0098C125.68 101.522 130.148 105.99 135.66 105.99Z" fill="#FFAD76"/>
<path d="M78.8599 105.99C84.3717 105.99 88.8399 101.522 88.8399 96.0098C88.8399 90.498 84.3717 86.0298 78.8599 86.0298C73.3481 86.0298 68.8799 90.498 68.8799 96.0098C68.8799 101.522 73.3481 105.99 78.8599 105.99Z" fill="#FFAD76"/>
<path d="M88.84 93.1499C90.7951 93.1499 92.38 91.35 92.38 89.1299C92.38 86.9097 90.7951 85.1099 88.84 85.1099C86.885 85.1099 85.3 86.9097 85.3 89.1299C85.3 91.35 86.885 93.1499 88.84 93.1499Z" fill="#231F20"/>
<path d="M125.69 93.1499C127.645 93.1499 129.23 91.35 129.23 89.1299C129.23 86.9097 127.645 85.1099 125.69 85.1099C123.735 85.1099 122.15 86.9097 122.15 89.1299C122.15 91.35 123.735 93.1499 125.69 93.1499Z" fill="#231F20"/>
<path d="M107.26 97.32C108.447 97.32 109.41 96.3574 109.41 95.17C109.41 93.9826 108.447 93.02 107.26 93.02C106.072 93.02 105.11 93.9826 105.11 95.17C105.11 96.3574 106.072 97.32 107.26 97.32Z" fill="#231F20"/>
<path d="M75.2 66.7099L84.99 61.4599C84.99 61.4599 81.85 54.2299 76.64 56.9399C71.43 59.6499 75.19 66.7099 75.19 66.7099H75.2Z" fill="#FFBE92"/>
<path d="M152.09 67.2201L142.3 61.9701C142.3 61.9701 145.44 54.7401 150.65 57.4501C155.86 60.1601 152.1 67.2201 152.1 67.2201H152.09Z" fill="#FFBE92"/>
<path d="M114.05 125.88L113.7 125.25L113.21 124.71L112.8 124.12L112.18 123.75L111.6 123.34L110.96 123.03L110.26 122.87L109.6 122.59L108.9 122.42H108.17L107.46 122.52L106.73 122.51L106.02 122.58L105.35 122.83L104.63 122.92L104.05 123.34L103.62 123.9L103.17 124.43L102.9 125.07L102.89 125.77L102.92 126.47L103 127.16L103.06 127.88L103.49 128.46L103.71 129.2L103.74 129.98L103.47 130.71L103.26 131.45L102.72 132.02L102.54 132.68L102.68 133.33L103.07 133.88L103.61 134.3L104.17 134.7L104.83 134.93L105.51 135.08L106.2 135.17L106.91 135.36L107.59 135.08L108.33 135.18L108.97 134.85L109.63 134.6L110.28 134.34L110.92 134.04L111.48 133.62L112.09 133.26L112.69 132.88" fill="#FFB8B8"/>
<path d="M114.05 125.88L113.7 125.25L113.21 124.71L112.8 124.12L112.18 123.75L111.6 123.34L110.96 123.03L110.26 122.87L109.6 122.59L108.9 122.42H108.17L107.46 122.52L106.73 122.51L106.02 122.58L105.35 122.83L104.63 122.92L104.05 123.34L103.62 123.9L103.17 124.43L102.9 125.07L102.89 125.77L102.92 126.47L103 127.16L103.06 127.88L103.49 128.46L103.71 129.2L103.74 129.98L103.47 130.71L103.26 131.45L102.72 132.02L102.54 132.68L102.68 133.33L103.07 133.88L103.61 134.3L104.17 134.7L104.83 134.93L105.51 135.08L106.2 135.17L106.91 135.36L107.59 135.08L108.33 135.18L108.97 134.85L109.63 134.6L110.28 134.34L110.92 134.04L111.48 133.62L112.09 133.26L112.69 132.88" stroke="#4C3220" stroke-width="2" stroke-miterlimit="10"/>
<path d="M116.09 125.91L116.36 125.24L116.76 124.64L117.37 124.23L117.78 123.61L118.46 123.33L119.09 123L119.73 122.66L120.45 122.51L121.16 122.4L121.88 122.37L122.6 122.56L123.32 122.65L124.02 122.68L124.71 122.83L125.44 122.92L125.93 123.46L126.61 123.76L126.99 124.38L127.22 125.06L127.27 125.77V126.48L127.26 127.2L126.88 127.83L126.74 128.52L126.45 129.21L126.44 129.97L126.53 130.72L126.84 131.43L127.38 131.99L127.46 132.68L127.44 133.38L126.94 133.89L126.36 134.28L125.79 134.74L125.06 134.77L124.37 134.89L123.67 135.05L122.97 134.99L122.26 134.94L121.55 134.89L120.83 134.82L120.17 134.51L119.5 134.23L118.86 133.92L118.32 133.43L117.7 133.07L117.11 132.66" fill="#FFB8B8"/>
<path d="M116.09 125.91L116.36 125.24L116.76 124.64L117.37 124.23L117.78 123.61L118.46 123.33L119.09 123L119.73 122.66L120.45 122.51L121.16 122.4L121.88 122.37L122.6 122.56L123.32 122.65L124.02 122.68L124.71 122.83L125.44 122.92L125.93 123.46L126.61 123.76L126.99 124.38L127.22 125.06L127.27 125.77V126.48L127.26 127.2L126.88 127.83L126.74 128.52L126.45 129.21L126.44 129.97L126.53 130.72L126.84 131.43L127.38 131.99L127.46 132.68L127.44 133.38L126.94 133.89L126.36 134.28L125.79 134.74L125.06 134.77L124.37 134.89L123.67 135.05L122.97 134.99L122.26 134.94L121.55 134.89L120.83 134.82L120.17 134.51L119.5 134.23L118.86 133.92L118.32 133.43L117.7 133.07L117.11 132.66" stroke="#4C3220" stroke-width="2" stroke-miterlimit="10"/>
<path d="M117.96 129.11L117.92 129.83L117.75 130.54L117.68 131.26L117.48 131.94L117.42 132.68L117.16 133.37L116.7 133.94L116.23 134.47L115.7 134.97L114.98 135.09L114.27 134.95L113.77 134.42L113.2 133.97L112.89 133.32L112.54 132.69L112.51 131.94L112.31 131.25L112.01 130.57L112.08 129.83L112 129.11L111.99 128.38L112.09 127.67L112.14 126.94L112.41 126.26L112.58 125.56L112.83 124.88L113.21 124.25L113.77 123.79L114.3 123.33L114.98 123.05L115.7 123.24L116.33 123.64L116.78 124.23L117.04 124.92L117.4 125.54L117.66 126.22L117.76 126.95L117.88 127.66L117.87 128.39L117.96 129.11Z" fill="#FFB8B8"/>
<path d="M117.96 129.11L117.92 129.83L117.75 130.54L117.68 131.26L117.48 131.94L117.42 132.68L117.16 133.37L116.7 133.94L116.23 134.47L115.7 134.97L114.98 135.09L114.27 134.95L113.77 134.42L113.2 133.97L112.89 133.32L112.54 132.69L112.51 131.94L112.31 131.25L112.01 130.57L112.08 129.83L112 129.11L111.99 128.38L112.09 127.67L112.14 126.94L112.41 126.26L112.58 125.56L112.83 124.88L113.21 124.25L113.77 123.79L114.3 123.33L114.98 123.05L115.7 123.24L116.33 123.64L116.78 124.23L117.04 124.92L117.4 125.54L117.66 126.22L117.76 126.95L117.88 127.66L117.87 128.39L117.96 129.11Z" stroke="#4C3220" stroke-width="2" stroke-miterlimit="10"/>
<path d="M110.93 127L110.23 126.85L109.52 126.77L108.8 126.83L108.11 127.04L107.43 127.29L106.82 127.67" fill="#FFB8B8"/>
<path d="M110.93 127L110.23 126.85L109.52 126.77L108.8 126.83L108.11 127.04L107.43 127.29L106.82 127.67" stroke="#4C3220" stroke-width="2" stroke-linecap="round" stroke-linejoin="round"/>
<path d="M109.35 130L108.65 129.95L107.95 130.06L107.29 130.37" fill="#FFB8B8"/>
<path d="M109.35 130L108.65 129.95L107.95 130.06L107.29 130.37" stroke="#4C3220" stroke-width="2" stroke-linecap="round" stroke-linejoin="round"/>
<path d="M119.4 126.94L120.1 126.8L120.82 126.79L121.53 126.88L122.22 127.07L122.9 127.3L123.51 127.68" fill="#FFB8B8"/>
<path d="M119.4 126.94L120.1 126.8L120.82 126.79L121.53 126.88L122.22 127.07L122.9 127.3L123.51 127.68" stroke="#4C3220" stroke-width="2" stroke-linecap="round" stroke-linejoin="round"/>
<path d="M120.99 130.01L121.69 129.94L122.39 130.06L123.05 130.34" fill="#FFB8B8"/>
<path d="M120.99 130.01L121.69 129.94L122.39 130.06L123.05 130.34" stroke="#4C3220" stroke-width="2" stroke-linecap="round" stroke-linejoin="round"/>
<path d="M43.44 29.71L43.31 28.99L43.53 28.27L43.35 27.56L43.27 26.84L43.22 26.13L43.37 25.39L43.16 24.69L42.89 24.01L42.78 23.3L42.57 22.61L42.49 21.9L42.53 21.15L42.15 20.51L41.91 19.84L41.85 19.11L41.62 18.43L41.48 17.72L41.07 17.11L40.84 16.43L40.47 15.81L40.39 15.06L40.15 14.38L39.7 13.8L39.57 13.05L38.82 12.65L38.43 12.06L38.36 11.24L37.7 10.83L37.33 10.21L37.1 9.48L36.3 9.2L35.83 8.68L35.37 8.14L35.01 7.48L34.51 6.97L33.84 6.65L33.41 6.05L32.97 5.44L32.3 5.14L31.74 4.67L30.96 4.59L30.47 3.99L29.82 3.67L29.1 3.53L28.47 3.16L27.75 3.05L27.04 2.95L26.43 2.45L25.65 2.67L24.96 2.51L24.27 2.35L23.55 2.36L22.84 2.24L22.12 2L21.43 2.49L20.71 2.45L20.02 2.65L19.33 2.79L18.6 2.82L17.91 3.01L17.18 3.1L16.64 3.69L16 4L15.18 3.96L14.6 4.4L13.97 4.76L13.49 5.32L12.7 5.45L12.39 6.23L11.87 6.71L11.17 7L10.73 7.58L10.18 8.04L9.76 8.62L9.22 9.1L8.82 9.69L8.42 10.28L7.77 10.69L7.45 11.34L7.1 11.97L6.6 12.51L6.14 13.07L5.94 13.78L5.63 14.43L5.49 15.16L4.83 15.65L4.9 16.46L4.72 17.15L4.19 17.72L4.2 18.48L3.74 19.08L3.69 19.81L3.51 20.51L3.01 21.12L3.08 21.87L3.06 22.6L2.7 23.26L2.74 24L2.44 24.68L2.37 25.39L2.43 26.12L2.11 26.82L2.03 27.53L2 28.26L2.03 28.98L2.15 29.71L2.17 30.42L2.35 31.14L2.17 31.86L2.08 32.59L2.16 33.31L2.33 34.01L2.6 34.7L2.71 35.41L2.86 36.11L3.06 36.79L2.8 37.59L3.36 38.19L3.33 38.94L3.58 39.61L3.96 40.24L4.11 40.94L4.43 41.58L4.61 42.28L4.54 43.08L4.81 43.74L5.17 44.37L5.51 45.02L6.16 45.48L6.15 46.31L6.88 46.71L7.17 47.37L7.51 48L7.92 48.58L8.3 49.2L8.9 49.63L9.07 50.41L9.71 50.81L10.13 51.39L10.63 51.9L11.07 52.48L11.63 52.92L12.31 53.23L12.67 53.94L13.44 54.09L13.93 54.65L14.54 55.04L15.31 55.12L15.77 55.8L16.43 56.08L17.16 56.2L17.81 56.53L18.5 56.71L19.23 56.76L19.97 56.68L20.71 57.05L20.43 57.7L20.1 58.3L19.51 58.75L19.26 59.39L18.9 59.98L18.54 60.57L18.1 61.27L18.94 61L19.65 60.99L20.35 61.09L21.06 61.06L21.77 61.24L22.48 61.43L23.19 61.26L23.89 61.41L24.6 61.33L25.31 61.01L26.02 61.31L26.74 61.16L27.36 61.13L27.04 60.64L26.96 59.9L26.43 59.42L25.92 58.92L25.55 58.34L25.45 57.61L24.88 57.07L25.79 57.09L26.5 56.94L27.1 56.39L27.83 56.34L28.55 56.25L29.25 56.05L29.74 55.39L30.35 55.04L31.13 54.98L31.8 54.69L32.42 54.32L32.87 53.71L33.57 53.45L34 52.84L34.57 52.4L34.89 51.7L35.49 51.3L36.03 50.83L36.34 50.15L36.96 49.74L37.49 49.25L37.72 48.53L38.37 48.11L38.66 47.44L38.94 46.78L39.29 46.16L39.58 45.51L39.82 44.83L40.44 44.34L40.87 43.74L40.94 42.99L41.32 42.37L41.27 41.59L41.5 40.91L42.05 40.34L42.12 39.62L42.41 38.95L42.69 38.28L42.64 37.53L42.66 36.81L42.84 36.11L42.89 35.4L43.35 34.74L43.28 34.01L43.22 33.28V32.56L43.68 31.88L43.25 31.14L43.52 30.43L43.44 29.71Z" fill="#FFB8B8"/>
<path d="M43.44 29.71L43.31 28.99L43.53 28.27L43.35 27.56L43.27 26.84L43.22 26.13L43.37 25.39L43.16 24.69L42.89 24.01L42.78 23.3L42.57 22.61L42.49 21.9L42.53 21.15L42.15 20.51L41.91 19.84L41.85 19.11L41.62 18.43L41.48 17.72L41.07 17.11L40.84 16.43L40.47 15.81L40.39 15.06L40.15 14.38L39.7 13.8L39.57 13.05L38.82 12.65L38.43 12.06L38.36 11.24L37.7 10.83L37.33 10.21L37.1 9.48L36.3 9.2L35.83 8.68L35.37 8.14L35.01 7.48L34.51 6.97L33.84 6.65L33.41 6.05L32.97 5.44L32.3 5.14L31.74 4.67L30.96 4.59L30.47 3.99L29.82 3.67L29.1 3.53L28.47 3.16L27.75 3.05L27.04 2.95L26.43 2.45L25.65 2.67L24.96 2.51L24.27 2.35L23.55 2.36L22.84 2.24L22.12 2L21.43 2.49L20.71 2.45L20.02 2.65L19.33 2.79L18.6 2.82L17.91 3.01L17.18 3.1L16.64 3.69L16 4L15.18 3.96L14.6 4.4L13.97 4.76L13.49 5.32L12.7 5.45L12.39 6.23L11.87 6.71L11.17 7L10.73 7.58L10.18 8.04L9.76 8.62L9.22 9.1L8.82 9.69L8.42 10.28L7.77 10.69L7.45 11.34L7.1 11.97L6.6 12.51L6.14 13.07L5.94 13.78L5.63 14.43L5.49 15.16L4.83 15.65L4.9 16.46L4.72 17.15L4.19 17.72L4.2 18.48L3.74 19.08L3.69 19.81L3.51 20.51L3.01 21.12L3.08 21.87L3.06 22.6L2.7 23.26L2.74 24L2.44 24.68L2.37 25.39L2.43 26.12L2.11 26.82L2.03 27.53L2 28.26L2.03 28.98L2.15 29.71L2.17 30.42L2.35 31.14L2.17 31.86L2.08 32.59L2.16 33.31L2.33 34.01L2.6 34.7L2.71 35.41L2.86 36.11L3.06 36.79L2.8 37.59L3.36 38.19L3.33 38.94L3.58 39.61L3.96 40.24L4.11 40.94L4.43 41.58L4.61 42.28L4.54 43.08L4.81 43.74L5.17 44.37L5.51 45.02L6.16 45.48L6.15 46.31L6.88 46.71L7.17 47.37L7.51 48L7.92 48.58L8.3 49.2L8.9 49.63L9.07 50.41L9.71 50.81L10.13 51.39L10.63 51.9L11.07 52.48L11.63 52.92L12.31 53.23L12.67 53.94L13.44 54.09L13.93 54.65L14.54 55.04L15.31 55.12L15.77 55.8L16.43 56.08L17.16 56.2L17.81 56.53L18.5 56.71L19.23 56.76L19.97 56.68L20.71 57.05L20.43 57.7L20.1 58.3L19.51 58.75L19.26 59.39L18.9 59.98L18.54 60.57L18.1 61.27L18.94 61L19.65 60.99L20.35 61.09L21.06 61.06L21.77 61.24L22.48 61.43L23.19 61.26L23.89 61.41L24.6 61.33L25.31 61.01L26.02 61.31L26.74 61.16L27.36 61.13L27.04 60.64L26.96 59.9L26.43 59.42L25.92 58.92L25.55 58.34L25.45 57.61L24.88 57.07L25.79 57.09L26.5 56.94L27.1 56.39L27.83 56.34L28.55 56.25L29.25 56.05L29.74 55.39L30.35 55.04L31.13 54.98L31.8 54.69L32.42 54.32L32.87 53.71L33.57 53.45L34 52.84L34.57 52.4L34.89 51.7L35.49 51.3L36.03 50.83L36.34 50.15L36.96 49.74L37.49 49.25L37.72 48.53L38.37 48.11L38.66 47.44L38.94 46.78L39.29 46.16L39.58 45.51L39.82 44.83L40.44 44.34L40.87 43.74L40.94 42.99L41.32 42.37L41.27 41.59L41.5 40.91L42.05 40.34L42.12 39.62L42.41 38.95L42.69 38.28L42.64 37.53L42.66 36.81L42.84 36.11L42.89 35.4L43.35 34.74L43.28 34.01L43.22 33.28V32.56L43.68 31.88L43.25 31.14L43.52 30.43L43.44 29.71Z" stroke="#4C3220" stroke-width="4" stroke-linecap="round" stroke-linejoin="round"/>
<path d="M23.5301 61.1499L23.0101 61.6699L22.8501 62.4299L22.4501 63.0199L21.8301 63.4799L21.5001 64.1199L21.2001 64.7799L20.8401 65.3999L20.4701 66.0199L20.2401 66.7099L20.0801 67.4399L19.7401 68.0699L19.0901 68.5599L19.0701 69.3399L18.8701 70.0299L18.2901 70.5599L17.9501 71.1899L17.5801 71.8199L17.5301 72.5699L17.4501 73.3099L17.0701 73.9299L16.9401 74.6399L16.5401 75.2699L16.3301 75.9499L16.2101 76.6699L16.0801 77.3799L15.8301 78.0499L15.7201 78.7699L15.4501 79.4399L15.2301 80.1299L15.0101 80.8199L15.1101 81.5699L14.8001 82.2499L14.7901 82.9799L14.6001 83.6799L14.4001 84.3799L14.4901 85.1199L14.4301 85.8299L14.4601 86.5599L14.3201 87.2699L14.3001 87.9899L14.3901 88.7199L14.4001 89.4399L14.0801 90.1699L14.5001 90.8699L14.1901 91.6099L14.2701 92.3299L14.7501 93.0099L14.4501 93.7699L14.9201 94.4299L14.9801 95.1499L14.9301 95.8899L15.3401 96.5399L15.3301 97.2799L15.4201 97.9999L15.4101 98.7499L15.6001 99.4499L15.8501 100.13L16.4401 100.69L16.7401 101.35L16.9501 102.03L16.8401 102.86L17.1001 103.53L17.6301 104.09L17.8001 104.8L18.2401 105.39L18.6201 106.01L19.0101 106.62L19.5201 107.15L19.8801 107.77L20.1501 108.45L20.4001 109.15L20.9901 109.63L21.0901 110.44L21.8601 110.76L22.1101 111.48L22.7301 111.91L23.2301 112.42L23.5301 113.12L24.1001 113.57L24.4201 114.26L24.9901 114.71L25.3201 115.4L25.9501 115.8L26.5401 116.23L26.9601 116.84L27.6901 117.12L28.1301 117.71L28.6401 118.22L29.0601 118.85L29.8001 119.1L30.4501 119.45L30.9601 119.96L31.3501 120.62L31.9401 121.04L32.5201 121.46L33.1701 121.82L33.4801 122.55L34.1701 122.85L34.7501 123.29L35.0701 124L35.6501 124.44L36.2101 124.89L36.8601 125.25L37.2801 125.86L37.7401 126.41L38.2701 126.9L38.5901 127.58L39.1401 128.05L39.5601 128.63L40.3001 128.96L40.6501 129.6L41.0601 130.2L41.4101 130.83L41.7701 131.46L42.3201 131.96L42.5301 132.68L42.7401 133.38L43.3801 133.84L43.6501 134.52L43.7401 135.27L44.2201 135.84L44.5401 136.48L44.9701 137.08L45.0401 137.83L45.1401 138.55L45.7401 139.11L45.5101 139.93L45.9101 140.56L46.1901 141.23L46.2901 141.94L46.1601 142.69L46.4401 143.37L46.5601 144.07L46.4201 144.81L46.5401 145.51L46.8001 146.21L46.9101 146.92L46.9301 147.64L46.8801 148.36L46.8001 149.08L46.6201 149.79L46.8201 150.52L46.6701 151.23L46.7501 151.96L46.4901 152.65L46.5801 153.39L46.4801 154.1L46.1401 154.77L46.1201 155.49L45.8401 156.16L46.0801 156.94L45.9901 157.65L45.6601 158.32L45.4301 159L45.4401 159.75L45.1901 160.43L45.0901 161.15L44.5601 161.75L44.6801 162.53L44.4401 163.21L44.3301 163.93L43.7401 164.5L43.5401 165.19L43.7201 166.02L43.2601 166.63L43.0301 167.32L42.9201 168.06" stroke="#4C3220" stroke-width="4" stroke-linejoin="round"/>
<path d="M16.3599 8.43018L15.7099 8.75018L14.9999 8.93018L14.5299 9.53018L13.9499 9.94018L13.2899 10.2402L12.7399 10.7002L12.1599 11.1202L11.6399 11.6202L11.2699 12.2502L10.5699 12.5902L10.1899 13.2102L9.93991 13.9102L9.30991 14.3502L9.07991 15.0502L8.55991 15.5902L8.35991 16.2902L7.90991 16.8702L7.74991 17.5902L7.32991 18.1902L7.04991 18.8502L6.80991 19.5302L6.78991 20.2702L6.66991 20.9802L6.16991 21.5902L5.97991 22.2802L5.90991 23.0102L5.98991 23.7602L5.71991 24.4302L5.79991 25.1702L5.66991 25.8702L5.50991 26.5702L5.60991 27.3002L5.35991 28.0002L5.15991 28.7102" stroke="white" stroke-width="2" stroke-linecap="round" stroke-linejoin="round"/>
</svg>
