<svg width="335" height="441" viewBox="0 0 335 441" fill="none" xmlns="http://www.w3.org/2000/svg">
<path d="M76.9622 339L77.1436 339.521L77.2418 340.081L77.4987 340.572L77.7859 341.055L78.0579 341.539L78.3451 342.015L78.7078 342.446L79.1083 342.831L79.4484 343.27L79.7053 343.798L80.1965 344.093L80.6348 344.426L80.9824 344.887L81.4207 345.242L81.8665 345.582L82.4106 345.763L83 345.982L82.4937 346.307L82.1008 346.67L81.6474 346.957L81.262 347.327L80.9219 347.736L80.5743 348.144L80.204 348.521L79.8942 348.952L79.5239 349.345L79.1763 349.753L78.8363 350.161L78.6171 350.668L78.2469 351.06L78.005 351.537L77.6801 351.967L77.3627 352.398L77.1662 352.897L76.9093 353.358L76.6222 352.912L76.403 352.428L76.1234 351.975L75.806 351.552L75.5113 351.106L75.3451 350.577L74.8992 350.244L74.7179 349.715L74.3854 349.3L73.9093 348.997L73.7053 348.469L73.2217 348.181L72.8816 347.773L72.5642 347.335L72.0957 347.055L71.7406 346.655L71.3476 346.292L71 346.005L71.4534 345.846L71.9446 345.559L72.3224 345.121L72.7531 344.773L73.199 344.448L73.7355 344.214L74.1436 343.821L74.4307 343.33L74.8388 342.945L75.1335 342.461L75.4282 341.992L75.7078 341.509L75.9194 340.987L76.1763 340.496L76.471 340.02L76.7582 339.544L76.8489 339" fill="white"/>
<path d="M76 339L77.1436 339.521L77.2418 340.081L77.4987 340.572L77.7859 341.055L78.0579 341.539L78.3451 342.015L78.7078 342.446L79.1083 342.831L79.4484 343.27L79.7053 343.798L80.1965 344.093L80.6348 344.426L80.9824 344.887L81.4207 345.242L81.8665 345.582L82.4106 345.763L83 345.982L82.4937 346.307L82.1008 346.67L81.6474 346.957L81.262 347.327L80.9219 347.736L80.5743 348.144L80.204 348.521L79.8942 348.952L79.5239 349.345L79.1763 349.753L78.8363 350.161L78.6171 350.668L78.2469 351.06L78.005 351.537L77.6801 351.967L77.3627 352.398L77.1662 352.897L76.9093 353.358L76.6222 352.912L76.403 352.428L76.1234 351.975L75.806 351.552L75.5113 351.106L75.3451 350.577L74.8992 350.244L74.7179 349.715L74.3854 349.3L73.9093 348.997L73.7053 348.469L73.2217 348.181L72.8816 347.773L72.5642 347.335L72.0957 347.055L71.7406 346.655L71.3476 346.292L71 346.005L71.4534 345.846L71.9446 345.559L72.3224 345.121L72.7531 344.773L73.199 344.448L73.7355 344.214L74.1436 343.821L74.4307 343.33L74.8388 342.945L75.1335 342.461L75.4282 341.992L75.7078 341.509L75.9194 340.987L76.1763 340.496L76.471 340.02L76.7582 339.544L76.8489 339" stroke="#4C3220" stroke-width="3" stroke-miterlimit="10"/>
<path d="M248.962 421L249.144 421.521L249.242 422.081L249.499 422.572L249.786 423.055L250.058 423.539L250.345 424.015L250.708 424.446L251.108 424.831L251.448 425.27L251.705 425.798L252.196 426.093L252.635 426.426L252.982 426.887L253.421 427.242L253.866 427.582L254.411 427.763L255 427.982L254.494 428.307L254.101 428.67L253.647 428.957L253.262 429.327L252.922 429.736L252.574 430.144L252.204 430.521L251.894 430.952L251.524 431.345L251.176 431.753L250.836 432.161L250.617 432.668L250.247 433.06L250.005 433.537L249.68 433.967L249.363 434.398L249.166 434.897L248.909 435.358L248.622 434.912L248.403 434.428L248.123 433.975L247.806 433.552L247.511 433.106L247.345 432.577L246.899 432.244L246.718 431.715L246.385 431.3L245.909 430.997L245.705 430.469L245.222 430.181L244.882 429.773L244.564 429.335L244.096 429.055L243.741 428.655L243.348 428.292L243 428.005L243.453 427.846L243.945 427.559L244.322 427.121L244.753 426.773L245.199 426.448L245.736 426.214L246.144 425.821L246.431 425.33L246.839 424.945L247.134 424.461L247.428 423.992L247.708 423.509L247.919 422.987L248.176 422.496L248.471 422.02L248.758 421.544L248.849 421" fill="white"/>
<path d="M248 421L249.144 421.521L249.242 422.081L249.499 422.572L249.786 423.055L250.058 423.539L250.345 424.015L250.708 424.446L251.108 424.831L251.448 425.27L251.705 425.798L252.196 426.093L252.635 426.426L252.982 426.887L253.421 427.242L253.866 427.582L254.411 427.763L255 427.982L254.494 428.307L254.101 428.67L253.647 428.957L253.262 429.327L252.922 429.736L252.574 430.144L252.204 430.521L251.894 430.952L251.524 431.345L251.176 431.753L250.836 432.161L250.617 432.668L250.247 433.06L250.005 433.537L249.68 433.967L249.363 434.398L249.166 434.897L248.909 435.358L248.622 434.912L248.403 434.428L248.123 433.975L247.806 433.552L247.511 433.106L247.345 432.577L246.899 432.244L246.718 431.715L246.385 431.3L245.909 430.997L245.705 430.469L245.222 430.181L244.882 429.773L244.564 429.335L244.096 429.055L243.741 428.655L243.348 428.292L243 428.005L243.453 427.846L243.945 427.559L244.322 427.121L244.753 426.773L245.199 426.448L245.736 426.214L246.144 425.821L246.431 425.33L246.839 424.945L247.134 424.461L247.428 423.992L247.708 423.509L247.919 422.987L248.176 422.496L248.471 422.02L248.758 421.544L248.849 421" stroke="#4C3220" stroke-width="3" stroke-miterlimit="10"/>
<path d="M173.962 396L174.144 396.521L174.242 397.081L174.499 397.572L174.786 398.055L175.058 398.539L175.345 399.015L175.708 399.446L176.108 399.831L176.448 400.27L176.705 400.798L177.196 401.093L177.635 401.426L177.982 401.887L178.421 402.242L178.866 402.582L179.411 402.763L180 402.982L179.494 403.307L179.101 403.67L178.647 403.957L178.262 404.327L177.922 404.736L177.574 405.144L177.204 405.521L176.894 405.952L176.524 406.345L176.176 406.753L175.836 407.161L175.617 407.668L175.247 408.06L175.005 408.537L174.68 408.967L174.363 409.398L174.166 409.897L173.909 410.358L173.622 409.912L173.403 409.428L173.123 408.975L172.806 408.552L172.511 408.106L172.345 407.577L171.899 407.244L171.718 406.715L171.385 406.3L170.909 405.997L170.705 405.469L170.222 405.181L169.882 404.773L169.564 404.335L169.096 404.055L168.741 403.655L168.348 403.292L168 403.005L168.453 402.846L168.945 402.559L169.322 402.121L169.753 401.773L170.199 401.448L170.736 401.214L171.144 400.821L171.431 400.33L171.839 399.945L172.134 399.461L172.428 398.992L172.708 398.509L172.919 397.987L173.176 397.496L173.471 397.02L173.758 396.544L173.849 396" fill="white"/>
<path d="M173 396L174.144 396.521L174.242 397.081L174.499 397.572L174.786 398.055L175.058 398.539L175.345 399.015L175.708 399.446L176.108 399.831L176.448 400.27L176.705 400.798L177.196 401.093L177.635 401.426L177.982 401.887L178.421 402.242L178.866 402.582L179.411 402.763L180 402.982L179.494 403.307L179.101 403.67L178.647 403.957L178.262 404.327L177.922 404.736L177.574 405.144L177.204 405.521L176.894 405.952L176.524 406.345L176.176 406.753L175.836 407.161L175.617 407.668L175.247 408.06L175.005 408.537L174.68 408.967L174.363 409.398L174.166 409.897L173.909 410.358L173.622 409.912L173.403 409.428L173.123 408.975L172.806 408.552L172.511 408.106L172.345 407.577L171.899 407.244L171.718 406.715L171.385 406.3L170.909 405.997L170.705 405.469L170.222 405.181L169.882 404.773L169.564 404.335L169.096 404.055L168.741 403.655L168.348 403.292L168 403.005L168.453 402.846L168.945 402.559L169.322 402.121L169.753 401.773L170.199 401.448L170.736 401.214L171.144 400.821L171.431 400.33L171.839 399.945L172.134 399.461L172.428 398.992L172.708 398.509L172.919 397.987L173.176 397.496L173.471 397.02L173.758 396.544L173.849 396" stroke="#4C3220" stroke-width="3" stroke-miterlimit="10"/>
<path d="M15.9244 408L16.2872 409.043L16.4836 410.161L16.9975 411.144L17.5718 412.111L18.1159 413.078L18.6902 414.03L19.4156 414.892L20.2166 415.662L20.8967 416.539L21.4106 417.597L22.3929 418.186L23.2695 418.851L23.9647 419.773L24.8413 420.484L25.733 421.164L26.8212 421.526L28 421.965L26.9874 422.615L26.2015 423.34L25.2947 423.914L24.5239 424.655L23.8438 425.471L23.1486 426.287L22.4081 427.043L21.7884 427.904L21.0479 428.69L20.3526 429.506L19.6725 430.322L19.2343 431.335L18.4937 432.121L18.0101 433.073L17.3602 433.935L16.7254 434.796L16.3325 435.793L15.8186 436.715L15.2443 435.824L14.806 434.856L14.2469 433.95L13.6121 433.103L13.0227 432.212L12.6902 431.154L11.7985 430.489L11.4358 429.431L10.7708 428.599L9.81864 427.995L9.41058 426.937L8.44332 426.363L7.76322 425.547L7.12846 424.67L6.19144 424.111L5.48111 423.31L4.69521 422.584L4 422.01L4.9068 421.693L5.88917 421.118L6.64484 420.242L7.5063 419.547L8.39798 418.897L9.47103 418.428L10.2872 417.642L10.8615 416.66L11.6776 415.889L12.267 414.922L12.8564 413.985L13.4156 413.018L13.8388 411.975L14.3526 410.992L14.9421 410.04L15.5164 409.088L15.6977 408" fill="white"/>
<path d="M15.9244 408L16.2872 409.043L16.4836 410.161L16.9975 411.144L17.5718 412.111L18.1159 413.078L18.6902 414.03L19.4156 414.892L20.2166 415.662L20.8967 416.539L21.4106 417.597L22.3929 418.186L23.2695 418.851L23.9647 419.773L24.8413 420.484L25.733 421.164L26.8212 421.526L28 421.965L26.9874 422.615L26.2015 423.34L25.2947 423.914L24.5239 424.655L23.8438 425.471L23.1486 426.287L22.4081 427.043L21.7884 427.904L21.0479 428.69L20.3526 429.506L19.6725 430.322L19.2343 431.335L18.4937 432.121L18.0101 433.073L17.3602 433.935L16.7254 434.796L16.3325 435.793L15.8186 436.715L15.2443 435.824L14.806 434.856L14.2469 433.95L13.6121 433.103L13.0227 432.212L12.6902 431.154L11.7985 430.489L11.4358 429.431L10.7708 428.599L9.81864 427.995L9.41058 426.937L8.44332 426.363L7.76322 425.547L7.12846 424.67L6.19144 424.111L5.48111 423.31L4.69521 422.584L4 422.01L4.9068 421.693L5.88917 421.118L6.64484 420.242L7.5063 419.547L8.39798 418.897L9.47103 418.428L10.2872 417.642L10.8615 416.66L11.6776 415.889L12.267 414.922L12.8564 413.985L13.4156 413.018L13.8388 411.975L14.3526 410.992L14.9421 410.04L15.5164 409.088L15.6977 408" stroke="#4C3220" stroke-width="4" stroke-miterlimit="10"/>
<path d="M301.962 312L302.144 312.521L302.242 313.081L302.499 313.572L302.786 314.055L303.058 314.539L303.345 315.015L303.708 315.446L304.108 315.831L304.448 316.27L304.705 316.798L305.196 317.093L305.635 317.426L305.982 317.887L306.421 318.242L306.866 318.582L307.411 318.763L308 318.982L307.494 319.307L307.101 319.67L306.647 319.957L306.262 320.327L305.922 320.736L305.574 321.144L305.204 321.521L304.894 321.952L304.524 322.345L304.176 322.753L303.836 323.161L303.617 323.668L303.247 324.06L303.005 324.537L302.68 324.967L302.363 325.398L302.166 325.897L301.909 326.358L301.622 325.912L301.403 325.428L301.123 324.975L300.806 324.552L300.511 324.106L300.345 323.577L299.899 323.244L299.718 322.715L299.385 322.3L298.909 321.997L298.705 321.469L298.222 321.181L297.882 320.773L297.564 320.335L297.096 320.055L296.741 319.655L296.348 319.292L296 319.005L296.453 318.846L296.945 318.559L297.322 318.121L297.753 317.773L298.199 317.448L298.736 317.214L299.144 316.821L299.431 316.33L299.839 315.945L300.134 315.461L300.428 314.992L300.708 314.509L300.919 313.987L301.176 313.496L301.471 313.02L301.758 312.544L301.849 312" fill="white"/>
<path d="M301.962 311L302.144 311.521L302.242 312.081L302.499 312.572L302.786 313.055L303.058 313.539L303.345 314.015L303.708 314.446L304.108 314.831L304.448 315.27L304.705 315.798L305.196 316.093L305.635 316.426L305.982 316.887L306.421 317.242L306.866 317.582L307.411 317.763L308 317.982L307.494 318.307L307.101 318.67L306.647 318.957L306.262 319.327L305.922 319.736L305.574 320.144L305.204 320.521L304.894 320.952L304.524 321.345L304.176 321.753L303.836 322.161L303.617 322.668L303.247 323.06L303.005 323.537L302.68 323.967L302.363 324.398L302.166 324.897L301.909 325.358L301.622 324.912L301.403 324.428L301.123 323.975L300.806 323.552L300.511 323.106L300.345 322.577L299.899 322.244L299.718 321.715L299.385 321.3L298.909 320.997L298.705 320.469L298.222 320.181L297.882 319.773L297.564 319.335L297.096 319.055L296.741 318.655L296.348 318.292L296 318.005L296.453 317.846L296.945 317.559L297.322 317.121L297.753 316.773L298.199 316.448L298.736 316.214L299.144 315.821L299.431 315.33L299.839 314.945L300.134 314.461L300.428 313.992L300.708 313.509L300.919 312.987L301.176 312.496L301.471 312.02L301.758 311.544L301.849 311" stroke="#4C3220" stroke-width="3" stroke-miterlimit="10"/>
<path d="M220.962 32L221.144 32.5214L221.242 33.0806L221.499 33.5718L221.786 34.0554L222.058 34.539L222.345 35.0151L222.708 35.4458L223.108 35.8312L223.448 36.2695L223.705 36.7985L224.196 37.0932L224.635 37.4257L224.982 37.8866L225.421 38.2418L225.866 38.5819L226.411 38.7632L227 38.9824L226.494 39.3073L226.101 39.67L225.647 39.9572L225.262 40.3275L224.922 40.7355L224.574 41.1436L224.204 41.5214L223.894 41.9521L223.524 42.3451L223.176 42.7531L222.836 43.1612L222.617 43.6675L222.247 44.0605L222.005 44.5365L221.68 44.9673L221.363 45.398L221.166 45.8967L220.909 46.3577L220.622 45.9118L220.403 45.4282L220.123 44.9748L219.806 44.5516L219.511 44.1058L219.345 43.5768L218.899 43.2443L218.718 42.7154L218.385 42.2997L217.909 41.9975L217.705 41.4685L217.222 41.1814L216.882 40.7733L216.564 40.335L216.096 40.0554L215.741 39.6549L215.348 39.2922L215 39.005L215.453 38.8463L215.945 38.5592L216.322 38.1209L216.753 37.7733L217.199 37.4484L217.736 37.2141L218.144 36.8212L218.431 36.33L218.839 35.9446L219.134 35.461L219.428 34.9924L219.708 34.5088L219.919 33.9874L220.176 33.4962L220.471 33.0202L220.758 32.5441L220.849 32" fill="white"/>
<path d="M220.962 32L221.144 32.5214L221.242 33.0806L221.499 33.5718L221.786 34.0554L222.058 34.539L222.345 35.0151L222.708 35.4458L223.108 35.8312L223.448 36.2695L223.705 36.7985L224.196 37.0932L224.635 37.4257L224.982 37.8866L225.421 38.2418L225.866 38.5819L226.411 38.7632L227 38.9824L226.494 39.3073L226.101 39.67L225.647 39.9572L225.262 40.3275L224.922 40.7355L224.574 41.1436L224.204 41.5214L223.894 41.9521L223.524 42.3451L223.176 42.7531L222.836 43.1612L222.617 43.6675L222.247 44.0605L222.005 44.5365L221.68 44.9673L221.363 45.398L221.166 45.8967L220.909 46.3577L220.622 45.9118L220.403 45.4282L220.123 44.9748L219.806 44.5516L219.511 44.1058L219.345 43.5768L218.899 43.2443L218.718 42.7154L218.385 42.2997L217.909 41.9975L217.705 41.4685L217.222 41.1814L216.882 40.7733L216.564 40.335L216.096 40.0554L215.741 39.6549L215.348 39.2922L215 39.005L215.453 38.8463L215.945 38.5592L216.322 38.1209L216.753 37.7733L217.199 37.4484L217.736 37.2141L218.144 36.8212L218.431 36.33L218.839 35.9446L219.134 35.461L219.428 34.9924L219.708 34.5088L219.919 33.9874L220.176 33.4962L220.471 33.0202L220.758 32.5441L220.849 32" stroke="#4C3220" stroke-width="3" stroke-miterlimit="10"/>
<path d="M324.962 128L325.144 128.521L325.242 129.081L325.499 129.572L325.786 130.055L326.058 130.539L326.345 131.015L326.708 131.446L327.108 131.831L327.448 132.27L327.705 132.798L328.196 133.093L328.635 133.426L328.982 133.887L329.421 134.242L329.866 134.582L330.411 134.763L331 134.982L330.494 135.307L330.101 135.67L329.647 135.957L329.262 136.327L328.922 136.736L328.574 137.144L328.204 137.521L327.894 137.952L327.524 138.345L327.176 138.753L326.836 139.161L326.617 139.668L326.247 140.06L326.005 140.537L325.68 140.967L325.363 141.398L325.166 141.897L324.909 142.358L324.622 141.912L324.403 141.428L324.123 140.975L323.806 140.552L323.511 140.106L323.345 139.577L322.899 139.244L322.718 138.715L322.385 138.3L321.909 137.997L321.705 137.469L321.222 137.181L320.882 136.773L320.564 136.335L320.096 136.055L319.741 135.655L319.348 135.292L319 135.005L319.453 134.846L319.945 134.559L320.322 134.121L320.753 133.773L321.199 133.448L321.736 133.214L322.144 132.821L322.431 132.33L322.839 131.945L323.134 131.461L323.428 130.992L323.708 130.509L323.919 129.987L324.176 129.496L324.471 129.02L324.758 128.544L324.849 128" fill="white"/>
<path d="M324.962 128L325.144 128.521L325.242 129.081L325.499 129.572L325.786 130.055L326.058 130.539L326.345 131.015L326.708 131.446L327.108 131.831L327.448 132.27L327.705 132.798L328.196 133.093L328.635 133.426L328.982 133.887L329.421 134.242L329.866 134.582L330.411 134.763L331 134.982L330.494 135.307L330.101 135.67L329.647 135.957L329.262 136.327L328.922 136.736L328.574 137.144L328.204 137.521L327.894 137.952L327.524 138.345L327.176 138.753L326.836 139.161L326.617 139.668L326.247 140.06L326.005 140.537L325.68 140.967L325.363 141.398L325.166 141.897L324.909 142.358L324.622 141.912L324.403 141.428L324.123 140.975L323.806 140.552L323.511 140.106L323.345 139.577L322.899 139.244L322.718 138.715L322.385 138.3L321.909 137.997L321.705 137.469L321.222 137.181L320.882 136.773L320.564 136.335L320.096 136.055L319.741 135.655L319.348 135.292L319 135.005L319.453 134.846L319.945 134.559L320.322 134.121L320.753 133.773L321.199 133.448L321.736 133.214L322.144 132.821L322.431 132.33L322.839 131.945L323.134 131.461L323.428 130.992L323.708 130.509L323.919 129.987L324.176 129.496L324.471 129.02L324.758 128.544L324.849 128" stroke="#4C3220" stroke-width="3" stroke-miterlimit="10"/>
<path d="M14.9622 180L15.1436 180.521L15.2418 181.081L15.4987 181.572L15.7859 182.055L16.0579 182.539L16.3451 183.015L16.7078 183.446L17.1083 183.831L17.4484 184.27L17.7053 184.798L18.1965 185.093L18.6348 185.426L18.9824 185.887L19.4207 186.242L19.8665 186.582L20.4106 186.763L21 186.982L20.4937 187.307L20.1008 187.67L19.6474 187.957L19.262 188.327L18.9219 188.736L18.5743 189.144L18.204 189.521L17.8942 189.952L17.5239 190.345L17.1763 190.753L16.8363 191.161L16.6171 191.668L16.2469 192.06L16.005 192.537L15.6801 192.967L15.3627 193.398L15.1662 193.897L14.9093 194.358L14.6222 193.912L14.403 193.428L14.1234 192.975L13.806 192.552L13.5113 192.106L13.3451 191.577L12.8992 191.244L12.7179 190.715L12.3854 190.3L11.9093 189.997L11.7053 189.469L11.2217 189.181L10.8816 188.773L10.5642 188.335L10.0957 188.055L9.74055 187.655L9.34761 187.292L9 187.005L9.4534 186.846L9.94458 186.559L10.3224 186.121L10.7531 185.773L11.199 185.448L11.7355 185.214L12.1436 184.821L12.4307 184.33L12.8388 183.945L13.1335 183.461L13.4282 182.992L13.7078 182.509L13.9194 181.987L14.1763 181.496L14.471 181.02L14.7582 180.544L14.8489 180" fill="white"/>
<path d="M14.9622 180L15.1436 180.521L15.2418 181.081L15.4987 181.572L15.7859 182.055L16.0579 182.539L16.3451 183.015L16.7078 183.446L17.1083 183.831L17.4484 184.27L17.7053 184.798L18.1965 185.093L18.6348 185.426L18.9824 185.887L19.4207 186.242L19.8665 186.582L20.4106 186.763L21 186.982L20.4937 187.307L20.1008 187.67L19.6474 187.957L19.262 188.327L18.9219 188.736L18.5743 189.144L18.204 189.521L17.8942 189.952L17.5239 190.345L17.1763 190.753L16.8363 191.161L16.6171 191.668L16.2469 192.06L16.005 192.537L15.6801 192.967L15.3627 193.398L15.1662 193.897L14.9093 194.358L14.6222 193.912L14.403 193.428L14.1234 192.975L13.806 192.552L13.5113 192.106L13.3451 191.577L12.8992 191.244L12.7179 190.715L12.3854 190.3L11.9093 189.997L11.7053 189.469L11.2217 189.181L10.8816 188.773L10.5642 188.335L10.0957 188.055L9.74055 187.655L9.34761 187.292L9 187.005L9.4534 186.846L9.94458 186.559L10.3224 186.121L10.7531 185.773L11.199 185.448L11.7355 185.214L12.1436 184.821L12.4307 184.33L12.8388 183.945L13.1335 183.461L13.4282 182.992L13.7078 182.509L13.9194 181.987L14.1763 181.496L14.471 181.02L14.7582 180.544L14.8489 180" stroke="#4C3220" stroke-width="3" stroke-miterlimit="10"/>
<path d="M43.6315 1L44.107 2.36701L44.3645 3.83308L45.0381 5.12084L45.7909 6.3888L46.5042 7.65675L47.257 8.90489L48.208 10.0342L49.258 11.0446L50.1495 12.1936L50.8231 13.5805L52.1109 14.3531L53.26 15.2248L54.1713 16.4334L55.3204 17.3645L56.4893 18.256L57.9157 18.7315L59.4611 19.3061L58.1337 20.158L57.1035 21.1089L55.9148 21.8618L54.9044 22.8325L54.0128 23.9024L53.1015 24.9722L52.1307 25.9628L51.3184 27.0921L50.3477 28.1223L49.4363 29.1921L48.5448 30.262L47.9702 31.5893L46.9995 32.6196L46.3655 33.8677L45.5136 34.997L44.6815 36.1262L44.1664 37.4338L43.4928 38.6423L42.7399 37.4734L42.1654 36.2055L41.4324 35.0168L40.6003 33.9073L39.8276 32.7384L39.3918 31.3516L38.2229 30.4799L37.7474 29.0931L36.8757 28.0034L35.6275 27.2109L35.0926 25.8241L33.8247 25.0713L32.9331 24.0014L32.101 22.8524L30.8727 22.1193L29.9416 21.0693L28.9113 20.1183L28 19.3655L29.1887 18.9494L30.4765 18.1966L31.4671 17.0475L32.5963 16.1362L33.7652 15.2843L35.1719 14.6701L36.2417 13.6399L36.9945 12.3521L38.0644 11.3417L38.837 10.0738L39.6097 8.84545L40.3427 7.5775L40.8974 6.21049L41.571 4.92273L42.3437 3.67459L43.0966 2.42645L43.3343 1" fill="white"/>
<path d="M43.6315 1L44.107 2.36701L44.3645 3.83308L45.0381 5.12084L45.7909 6.3888L46.5042 7.65675L47.257 8.90489L48.208 10.0342L49.258 11.0446L50.1495 12.1936L50.8231 13.5805L52.1109 14.3531L53.26 15.2248L54.1713 16.4334L55.3204 17.3645L56.4893 18.256L57.9157 18.7315L59.4611 19.3061L58.1337 20.158L57.1035 21.1089L55.9148 21.8618L54.9044 22.8325L54.0128 23.9024L53.1015 24.9722L52.1307 25.9628L51.3184 27.0921L50.3477 28.1223L49.4363 29.1921L48.5448 30.262L47.9702 31.5893L46.9995 32.6196L46.3655 33.8677L45.5136 34.997L44.6815 36.1262L44.1664 37.4338L43.4928 38.6423L42.7399 37.4734L42.1654 36.2055L41.4324 35.0168L40.6003 33.9073L39.8276 32.7384L39.3918 31.3516L38.2229 30.4799L37.7474 29.0931L36.8757 28.0034L35.6275 27.2109L35.0926 25.8241L33.8247 25.0713L32.9331 24.0014L32.101 22.8524L30.8727 22.1193L29.9416 21.0693L28.9113 20.1183L28 19.3655L29.1887 18.9494L30.4765 18.1966L31.4671 17.0475L32.5963 16.1362L33.7652 15.2843L35.1719 14.6701L36.2417 13.6399L36.9945 12.3521L38.0644 11.3417L38.837 10.0738L39.6097 8.84545L40.3427 7.5775L40.8974 6.21049L41.571 4.92273L42.3437 3.67459L43.0966 2.42645L43.3343 1" stroke="#4C3220" stroke-width="4" stroke-miterlimit="10"/>
</svg>
