<svg width="254" height="256" viewBox="0 0 254 256" fill="none" xmlns="http://www.w3.org/2000/svg">
<path d="M235.458 64.616L234.892 62.835L233.571 61.5481L232.984 59.7796L232.127 58.1956L230.827 56.8962L230.066 55.2278L228.918 53.8408L227.566 52.6006L226.858 50.873L225.775 49.4484L224.349 48.28L223.328 46.7619L222.053 45.5058L220.958 44.0595L219.469 42.9845L218.535 41.4163L217.164 40.2445L215.942 38.9292L214.887 37.402L213.507 36.2643L211.935 35.2952L210.744 33.9332L209.491 32.6646L208.204 31.3868L206.886 30.1558L205.388 29.1149L203.82 28.2016L202.378 27.1573L201.079 25.8579L199.594 24.8387L198.254 23.6202L196.583 22.8812L195.006 22.002L193.499 20.9953L192.005 20.0103L190.316 19.3396L188.729 18.4947L187.174 17.6031L185.729 16.503L184.133 15.6922L182.435 15.0557L180.937 14.0148L179.31 13.2508L177.742 12.3375L175.918 12.0336L174.26 11.3163L172.75 10.2537L171.034 9.68559L169.299 9.1858L167.592 8.58349L165.907 7.96866L164.136 7.60557L162.328 7.37918L160.602 6.84522L159.018 5.85444L157.167 5.85477L155.368 5.59422L153.725 4.75266L151.982 4.28705L150.247 3.78726L148.409 3.80925L146.58 3.79704L144.858 3.31891L143.047 3.23837L141.291 2.7511L139.486 2.58055L137.679 2.55583L135.893 2.51859L134.097 2.31385L132.302 2.31079L130.507 2.10607L128.705 1.99134L126.925 1.86409L125.12 2.2427L123.321 1.98214L121.517 2.21492L119.71 2.1902L117.912 2.13131L116.118 2.53156L114.346 2.71764L112.558 3.02789L110.767 3.08065L108.989 3.35672L107.229 3.76611L105.454 4.09802L103.594 3.93086L101.933 4.86097L100.05 4.70633L98.3161 5.15903L96.7176 6.19741L94.8261 6.07694L93.2493 7.10279L91.4901 7.51218L89.7118 7.78825L88.1067 8.71497L86.3317 9.04688L84.5883 9.53374L82.7916 9.87817L81.1015 10.5075L79.4523 11.2576L78.0097 12.4658L76.398 13.2808L74.7329 13.9535L72.8487 14.1463L71.212 14.9181L69.7661 16.0704L68.0543 16.7123L66.5676 17.7439L65.0309 18.6888L63.5066 19.6554L62.1166 20.8044L60.5457 21.7403L58.9556 22.5428L57.2972 23.3271L56.0039 24.5934L54.1862 25.1521L53.1021 26.7307L51.4654 27.5024L50.2346 28.8771L48.8912 30.0568L47.2953 30.9494L46.0487 32.2465L44.4778 33.1824L43.2436 34.5012L41.6852 35.4587L40.5569 36.8607L39.382 38.2319L37.9453 39.3501L37.0071 40.9311L35.6296 42.1018L34.3705 43.3773L32.9462 44.5171L32.1015 46.1597L31.0916 47.6665L29.8917 48.9945L28.4924 50.1776L27.4576 51.6412L26.4694 53.1356L25.5996 54.7348L24.1445 55.9214L23.4365 57.6005L22.5418 59.1564L21.1925 60.4262L20.3445 62.0129L19.5089 63.6212L18.8693 65.3186L17.8344 66.7822L16.9054 68.329L16.1724 69.9647L15.0692 71.4101L14.417 73.0857L13.5815 74.6941L13.3213 76.5477L12.4607 78.1127L11.7277 79.7485L10.9263 81.366L10.2058 83.0234L9.83968 84.7938L8.96989 86.393L8.13431 88.0014L8.07595 89.8539L7.42382 91.5296L6.56655 93.1505L6.37142 94.9665L5.97114 96.7277L5.7852 98.5096L5.0897 100.21L4.50596 101.904L4.75202 103.783L3.76129 105.423L3.7805 107.26L3.66294 109.06L3.34024 110.805L2.72561 112.546L2.77571 114.336L2.62397 116.127L2.14611 117.904L2.08444 119.701L2.31468 121.502L2.34309 123.305L2.28142 125.101L2.17305 126.867L2.0555 128.667L1.84787 130.462L2.24576 132.253L2.18409 134.049L2.49191 135.835L2.31847 137.638L2.74724 139.383L2.9216 141.188L2.76067 143.013L3.13356 144.761L3.16196 146.563L4.02529 148.259L4.39818 150.007L4.46078 151.818L4.70021 153.586L5.3617 155.282L5.65702 157.046L6.24094 158.759L6.16089 160.624L7.14186 162.223L7.59233 163.955L8.2847 165.605L8.27303 167.488L8.90033 169.176L10.1416 170.624L10.4402 172.444L11.1109 174.107L12.011 175.666L12.5607 177.369L13.4608 178.928L13.9021 180.694L14.8798 182.237L15.724 183.8L16.5373 185.409L17.0686 187.181L18.0989 188.665L19.2376 190.086L20.1285 191.679L21.1679 193.129L22.0588 194.722L22.7637 196.394L24.0542 197.727L25.1153 199.164L25.9845 200.77L27.0673 202.195L28.045 203.738L29.3539 205.003L30.4367 206.428L31.693 207.752L32.5839 209.345L33.7009 210.779L35.0624 211.985L36.0309 213.562L37.7511 214.388L39.06 215.653L39.9326 217.315L41.5477 218.259L42.8132 219.549L43.8777 221.042L45.6689 221.74L47.0612 222.9L48.4102 224.084L49.614 225.468L51.0155 226.593L52.6582 227.434L53.9454 228.712L55.236 230.046L56.8445 230.878L58.2677 231.991L60.074 232.565L61.3737 233.864L62.9205 234.79L64.5999 235.495L66.0974 236.535L67.7861 237.206L69.4439 237.923L70.8303 239.173L72.7101 239.473L74.297 240.318L75.8838 241.163L77.5817 241.8L79.1685 242.645L80.7218 243.682L82.6318 243.734L84.2712 244.52L85.9933 244.998L87.7095 245.566L89.3489 246.352L91.0868 246.908L92.7446 247.625L94.617 247.612L96.37 248.043L97.9885 249.043L99.7749 249.282L101.55 249.701L103.369 249.748L105.046 250.598L106.933 250.26L108.741 250.486L110.448 251.088L112.268 251.135L114.058 251.429L115.878 251.476L117.646 251.783L119.462 251.774L121.27 251.798L123.06 252.295L124.87 252.174L126.662 252.121L128.479 252.313L130.284 252.484L132.093 252.161L133.903 252.04L135.662 251.63L137.518 252.089L139.27 251.366L141.045 251.034L142.896 251.236L144.62 250.616L146.465 250.705L148.196 250.197L149.98 249.831L151.841 249.998L153.537 249.279L155.252 248.693L157.096 248.581L158.795 247.917L160.611 247.706L162.342 247.197L164.004 246.469L165.845 246.301L167.585 245.758L169.287 245.151L170.961 244.444L172.573 243.629L174.26 242.944L175.977 242.01L177.428 243.222L178.929 244.319L180.507 245.198L182.159 246.005L183.881 246.685L185.472 247.586L187.083 248.474L188.735 249.281L189.989 250.752L191.885 251.13L193.324 252.32L194.966 253.161L196.648 253.519L198.291 253.609L199.797 252.913L201.154 251.956L202.503 250.687L202.832 248.851L202.735 247.031L202.716 245.194L202.159 243.379L202.78 241.548L202.155 239.715L202.282 237.88L202.353 236.049L202.368 234.222L202.473 232.4L202.14 230.571L202.692 228.723L202.368 226.86L203.92 225.79L205.348 224.706L206.847 223.697L208.212 222.504L209.374 221.111L211.055 220.315L212.049 218.73L213.582 217.729L214.888 216.485L215.826 214.904L217.525 214.039L218.759 212.72L219.781 211.234L221.099 210.011L222.262 208.619L223.272 207.112L224.129 205.491L225.447 204.268L226.435 202.773L227.505 201.319L228.904 200.136L229.82 198.567L230.855 197.104L231.877 195.618L232.993 194.195L233.493 192.405L234.434 190.88L235.457 189.395L236.305 187.808L237.408 186.363L238.477 184.908L239.082 183.202L240.092 181.695L240.744 180.019L241.073 178.184L242.198 176.726L242.688 174.97L243.25 173.289L243.937 171.622L244.99 170.091L245.288 168.302L245.607 166.501L246.101 164.801L247.039 163.22L247.221 161.382L248.194 159.811L248.662 158.068L248.528 156.182L249.202 154.494L249.807 152.787L250.289 151.066L250.021 149.2L250.263 147.414L251.048 145.719L251.461 143.98L251.724 142.182L251.606 140.374L252.096 138.618L251.978 136.81L252.164 135.028L251.831 133.2L252.141 131.433L252.293 129.642L252.019 127.865L252.339 126.064L252.49 124.273L252.071 122.495L252.446 120.69L252.16 118.892L251.886 117.116L251.703 115.345L251.442 113.59L251.112 111.817L251.372 109.964L251.322 108.174L250.704 106.452L250.586 104.644L249.769 102.979L249.418 101.219L249.532 99.3627L248.926 97.6626L248.631 95.8988L248.323 94.1133L247.519 92.47L246.827 90.82L246.376 89.088L245.706 87.4254L245.64 85.558L244.792 83.9398L243.979 82.3307L243.243 80.7057L243.131 78.8075L241.793 77.4431L241.395 75.6519L240.681 74.0144L239.825 72.4304L239.241 70.7177L238.037 69.334L237.18 67.75L236.531 66.0748L235.458 64.616Z" fill="white" stroke="#4C3220" stroke-width="3" stroke-miterlimit="10"/>
</svg>
